<?xml version="1.0" encoding="UTF-8" standalone="no"?>
<!-- Created with Inkscape (http://www.inkscape.org/) -->

<svg
   xml:space="preserve"
   inkscape:export-ydpi="96"
   inkscape:export-xdpi="96"
   inkscape:export-filename="Dárek pro rejnartovou.svg"
   inkscape:version="1.2.2 (732a01da63, 2022-12-09)"
   sodipodi:docname="Dárek pro rejnartovou.svg"
   id="svg557"
   version="1.1"
   viewBox="0 0 299.99997 300"
   height="300mm"
   width="299.99997mm"
   xmlns:inkscape="http://www.inkscape.org/namespaces/inkscape"
   xmlns:sodipodi="http://sodipodi.sourceforge.net/DTD/sodipodi-0.dtd"
   xmlns="http://www.w3.org/2000/svg"
   xmlns:svg="http://www.w3.org/2000/svg"><sodipodi:namedview
     id="namedview559"
     pagecolor="#ffffff"
     bordercolor="#000000"
     borderopacity="0.25"
     inkscape:showpageshadow="2"
     inkscape:pageopacity="0.0"
     inkscape:pagecheckerboard="0"
     inkscape:deskcolor="#d1d1d1"
     inkscape:document-units="mm"
     showgrid="false"
     inkscape:lockguides="true"
     inkscape:zoom="0.543628"
     inkscape:cx="213.38121"
     inkscape:cy="581.27985"
     inkscape:window-width="1920"
     inkscape:window-height="1009"
     inkscape:window-x="-8"
     inkscape:window-y="-8"
     inkscape:window-maximized="1"
     inkscape:current-layer="layer1" /><defs
     id="defs554"><rect
       x="408.36749"
       y="487.4657"
       width="369.73813"
       height="88.29567"
       id="rect2141" /><rect
       x="251.03859"
       y="603.5332"
       width="630.84827"
       height="157.38689"
       id="rect1222" /><rect
       x="567.1131"
       y="330.38239"
       width="351.19388"
       height="704.9892"
       id="rect2704" /></defs><g
     inkscape:label="Vrstva 1"
     inkscape:groupmode="layer"
     id="layer1"
     transform="translate(-48.183216,-49.643326)"><rect
       style="vector-effect:non-scaling-stroke;fill:none;stroke:#000000;stroke-width:0.264583;stroke-dasharray:none;stroke-opacity:1;-inkscape-stroke:hairline"
       id="rect730"
       width="300"
       height="300"
       x="48.18322"
       y="49.643326"
       inkscape:export-filename="Dárek pro Rejnartovou"
       inkscape:export-xdpi="96"
       inkscape:export-ydpi="96" /><g
       id="g6582"
       style="vector-effect:non-scaling-stroke;stroke-width:0.264583;stroke-dasharray:none;-inkscape-stroke:hairline"><path
         style="vector-effect:non-scaling-stroke;fill:none;stroke:#ff0000;stroke-width:0.264583;stroke-dasharray:none;stroke-opacity:1;-inkscape-stroke:hairline"
         d="M 122.96183,294.64006 H 273.4046"
         id="path2762" /><g
         id="g2313"
         transform="translate(-2.4864201)"
         style="vector-effect:non-scaling-stroke;stroke-width:0.264583;stroke-dasharray:none;-inkscape-stroke:hairline"><path
           id="path2816"
           style="vector-effect:non-scaling-stroke;fill:none;stroke:#ff0000;stroke-width:0.264583;stroke-dasharray:none;stroke-opacity:1;-inkscape-stroke:hairline"
           d="m 213.35213,265.23725 a 13,13 0 0 1 -13,13 13,13 0 0 1 -13,-13 13,13 0 0 1 13,-13 13,13 0 0 1 13,13 z" /><path
           style="vector-effect:non-scaling-stroke;fill:none;stroke:#ff0000;stroke-width:0.264583;stroke-dasharray:none;stroke-opacity:1;-inkscape-stroke:hairline"
           d="m 157.34307,256.5143 -13.7,8.71748 13.7,9.28252 z"
           id="path2818"
           sodipodi:nodetypes="cccc" /><g
           id="g3482"
           transform="translate(4.2123449,-5.6112516)"
           style="vector-effect:non-scaling-stroke;stroke:#ff00ff;stroke-width:0.264583;stroke-dasharray:none;stroke-opacity:1;-inkscape-stroke:hairline"><path
             id="rect2917-1"
             style="vector-effect:non-scaling-stroke;fill:none;stroke-width:0.264583;stroke-dasharray:none;-inkscape-stroke:hairline"
             d="m 198.65963,263.57462 c 0.92945,0 1.67772,0.74826 1.67772,1.67772 v 11.18482 c 0,0.92946 -0.74827,1.67772 -1.67772,1.67772 -0.92946,0 -1.67773,-0.74826 -1.67773,-1.67772 v -11.18482 c 0,-0.92946 0.74827,-1.67772 1.67773,-1.67772 z" /></g><g
           id="g3487"
           transform="translate(4.2123449,-5.6112516)"
           style="vector-effect:non-scaling-stroke;stroke:#ff00ff;stroke-width:0.264583;stroke-dasharray:none;stroke-opacity:1;-inkscape-stroke:hairline"><path
             id="rect2917"
             style="vector-effect:non-scaling-stroke;fill:none;stroke-width:0.264583;stroke-dasharray:none;-inkscape-stroke:hairline"
             d="m 193.45436,263.47974 c 0.92946,0 1.67773,0.74826 1.67773,1.67772 v 11.18482 c 0,0.92946 -0.74827,1.67772 -1.67773,1.67772 -0.92945,0 -1.67772,-0.74826 -1.67772,-1.67772 v -11.18482 c 0,-0.92946 0.74827,-1.67772 1.67772,-1.67772 z" /></g><path
           style="vector-effect:non-scaling-stroke;fill:none;stroke:#ff0000;stroke-width:0.264583;stroke-dasharray:none;stroke-opacity:1;-inkscape-stroke:hairline"
           d="m 243.99582,256.5143 13.70039,8.71748 -13.70039,9.28252 z"
           id="path2818-7"
           sodipodi:nodetypes="cccc" /></g><g
         id="g1218"
         transform="matrix(0.36138663,0,0,0.36138663,121.48063,135.71395)"
         style="vector-effect:non-scaling-stroke;stroke-width:0.732134;stroke-dasharray:none;-inkscape-stroke:hairline"><g
           id="g2246"
           transform="translate(12.24523)"
           style="vector-effect:non-scaling-stroke;stroke-width:0.732134;stroke-dasharray:none;-inkscape-stroke:hairline"><g
             transform="translate(20,20)"
             id="g1184"
             style="vector-effect:non-scaling-stroke;fill:#000000;fill-opacity:0;stroke:#ff00ff;stroke-width:0.732134;stroke-dasharray:none;stroke-opacity:1;-inkscape-stroke:hairline"><path
               fill="#000000"
               d="M 30,0 A 30,30 0 1 1 0,30 30,30 0 0 1 30,0 M 43.73,43.2 A 1.85,1.85 0 0 0 43.26,40.77 5,5 0 0 0 42.78,40.46 30.64,30.64 0 0 0 36.86,37.74 37.07,37.07 0 0 0 25.3,35.9 c -1.33,0.07 -2.67,0.12 -4,0.23 a 52.44,52.44 0 0 0 -7.08,1.12 3.45,3.45 0 0 0 -0.54,0.16 1.83,1.83 0 0 0 -1.11,2.08 1.79,1.79 0 0 0 1.8,1.51 4.29,4.29 0 0 0 0.88,-0.12 48.93,48.93 0 0 1 8.66,-1.15 35.33,35.33 0 0 1 6.75,0.37 28.29,28.29 0 0 1 10.25,3.61 4.77,4.77 0 0 0 0.5,0.27 1.85,1.85 0 0 0 2.33,-0.74 M 47.41,35 A 2.34,2.34 0 0 0 46.63,31.81 L 46.28,31.6 A 35.72,35.72 0 0 0 38.9,28.3 45.39,45.39 0 0 0 23.2,26.17 41.19,41.19 0 0 0 15.81,27.09 c -1,0.22 -2,0.48 -2.94,0.77 a 2.26,2.26 0 0 0 -1.58,2.14 2.32,2.32 0 0 0 1.44,2.2 2.47,2.47 0 0 0 1.67,0 37,37 0 0 1 10.38,-1.46 43,43 0 0 1 7.91,0.74 35.46,35.46 0 0 1 9.58,3.18 c 0.66,0.34 1.3,0.72 1.95,1.08 A 2.33,2.33 0 0 0 47.41,35 m 0.35,-8.49 A 2.79,2.79 0 0 0 52,24.11 c 0,-0.2 0,-0.4 -0.08,-0.6 a 2.78,2.78 0 0 0 -1.4,-1.85 35.91,35.91 0 0 0 -6.41,-2.91 56.19,56.19 0 0 0 -16.86,-2.89 58.46,58.46 0 0 0 -7,0.21 48.31,48.31 0 0 0 -6.52,1 c -0.87,0.2 -1.73,0.42 -2.58,0.7 a 2.73,2.73 0 0 0 -1.85,2.68 2.79,2.79 0 0 0 2,2.61 2.9,2.9 0 0 0 1.6,0 c 0.87,-0.23 1.75,-0.47 2.63,-0.66 a 45.52,45.52 0 0 1 7.26,-0.91 57.42,57.42 0 0 1 6.4,0 53.7,53.7 0 0 1 6.11,0.72 42.63,42.63 0 0 1 8.49,2.35 33.25,33.25 0 0 1 4,2"
               id="path1182"
               style="vector-effect:non-scaling-stroke;fill:#000000;fill-opacity:0;stroke:#ff00ff;stroke-width:0.732134;stroke-dasharray:none;stroke-opacity:1;-inkscape-stroke:hairline" /></g><g
             id="g2218"
             style="vector-effect:non-scaling-stroke;stroke-width:0.732134;stroke-dasharray:none;-inkscape-stroke:hairline"><path
               id="rect1136"
               style="vector-effect:non-scaling-stroke;fill-opacity:0;stroke:#ff00ff;stroke-width:0.732134;stroke-dasharray:none;-inkscape-stroke:hairline"
               d="m 103.355,44.5 c 1.85867,0 3.355,1.49856 3.355,3.36 v 4.28 c 0,1.86144 -1.49633,3.36 -3.355,3.36 -1.85867,0 -3.355,-1.49856 -3.355,-3.36 v -4.28 c 0,-1.86144 1.49633,-3.36 3.355,-3.36 z" /><path
               id="rect1138"
               style="vector-effect:non-scaling-stroke;fill-opacity:0;stroke:#ff00ff;stroke-width:0.732134;stroke-dasharray:none;-inkscape-stroke:hairline"
               d="m 115.775,30.5 c 1.85867,0 3.355,1.49856 3.355,3.36 v 32.28 c 0,1.86144 -1.49633,3.36 -3.355,3.36 -1.85867,0 -3.355,-1.49856 -3.355,-3.36 V 33.86 c 0,-1.86144 1.49633,-3.36 3.355,-3.36 z" /><path
               id="rect1140"
               style="vector-effect:non-scaling-stroke;fill-opacity:0;stroke:#ff00ff;stroke-width:0.732134;stroke-dasharray:none;-inkscape-stroke:hairline"
               d="m 128.195,41 c 1.85867,0 3.355,1.49856 3.355,3.36 v 11.28 c 0,1.86144 -1.49633,3.36 -3.355,3.36 -1.85867,0 -3.355,-1.49856 -3.355,-3.36 V 44.36 c 0,-1.86144 1.49633,-3.36 3.355,-3.36 z" /><path
               id="rect1142"
               style="vector-effect:non-scaling-stroke;fill-opacity:0;stroke:#ff00ff;stroke-width:0.732134;stroke-dasharray:none;-inkscape-stroke:hairline"
               d="m 140.625,41 c 1.85867,0 3.355,1.49856 3.355,3.36 v 11.28 c 0,1.86144 -1.49633,3.36 -3.355,3.36 -1.85867,0 -3.355,-1.49856 -3.355,-3.36 V 44.36 c 0,-1.86144 1.49633,-3.36 3.355,-3.36 z" /><path
               id="rect1144"
               style="vector-effect:non-scaling-stroke;fill-opacity:0;stroke:#ff00ff;stroke-width:0.732134;stroke-dasharray:none;-inkscape-stroke:hairline"
               d="m 153.045,27 c 1.85867,0 3.355,1.49856 3.355,3.36 v 39.28 c 0,1.86144 -1.49633,3.36 -3.355,3.36 -1.85867,0 -3.355,-1.49856 -3.355,-3.36 V 30.36 c 0,-1.86144 1.49633,-3.36 3.355,-3.36 z" /><path
               id="rect1146"
               style="vector-effect:non-scaling-stroke;fill-opacity:0;stroke:#ff00ff;stroke-width:0.732134;stroke-dasharray:none;-inkscape-stroke:hairline"
               d="m 165.465,23.5 c 1.85867,0 3.355,1.49856 3.355,3.36 v 46.28 c 0,1.86144 -1.49633,3.36 -3.355,3.36 -1.85867,0 -3.355,-1.49856 -3.355,-3.36 V 26.86 c 0,-1.86144 1.49633,-3.36 3.355,-3.36 z" /><path
               id="rect1148"
               style="vector-effect:non-scaling-stroke;fill-opacity:0;stroke:#ff00ff;stroke-width:0.732134;stroke-dasharray:none;-inkscape-stroke:hairline"
               d="m 177.885,41 c 1.85867,0 3.355,1.49856 3.355,3.36 v 11.28 c 0,1.86144 -1.49633,3.36 -3.355,3.36 -1.85867,0 -3.355,-1.49856 -3.355,-3.36 V 44.36 c 0,-1.86144 1.49633,-3.36 3.355,-3.36 z" /><path
               id="rect1150"
               style="vector-effect:non-scaling-stroke;fill-opacity:0;stroke:#ff00ff;stroke-width:0.732134;stroke-dasharray:none;-inkscape-stroke:hairline"
               d="m 190.31501,34 c 1.85867,0 3.355,1.49856 3.355,3.36 v 25.28 c 0,1.86144 -1.49633,3.36 -3.355,3.36 -1.85867,0 -3.355,-1.49856 -3.355,-3.36 V 37.36 c 0,-1.86144 1.49633,-3.36 3.355,-3.36 z" /><path
               id="rect1152"
               style="vector-effect:non-scaling-stroke;fill-opacity:0;stroke:#ff00ff;stroke-width:0.732134;stroke-dasharray:none;-inkscape-stroke:hairline"
               d="m 202.735,41 c 1.85867,0 3.355,1.49856 3.355,3.36 v 11.28 c 0,1.86144 -1.49633,3.36 -3.355,3.36 -1.85867,0 -3.355,-1.49856 -3.355,-3.36 V 44.36 c 0,-1.86144 1.49633,-3.36 3.355,-3.36 z" /><path
               id="rect1154"
               style="vector-effect:non-scaling-stroke;fill-opacity:0;stroke:#ff00ff;stroke-width:0.732134;stroke-dasharray:none;-inkscape-stroke:hairline"
               d="m 215.155,27 c 1.85867,0 3.355,1.49856 3.355,3.36 v 39.28 c 0,1.86144 -1.49633,3.36 -3.355,3.36 -1.85867,0 -3.355,-1.49856 -3.355,-3.36 V 30.36 c 0,-1.86144 1.49633,-3.36 3.355,-3.36 z" /><path
               id="rect1156"
               style="vector-effect:non-scaling-stroke;fill-opacity:0;stroke:#ff00ff;stroke-width:0.732134;stroke-dasharray:none;-inkscape-stroke:hairline"
               d="m 227.575,41 c 1.85867,0 3.355,1.49856 3.355,3.36 v 11.28 c 0,1.86144 -1.49633,3.36 -3.355,3.36 -1.85867,0 -3.355,-1.49856 -3.355,-3.36 V 44.36 c 0,-1.86144 1.49633,-3.36 3.355,-3.36 z" /><path
               id="rect1158"
               style="vector-effect:non-scaling-stroke;fill-opacity:0;stroke:#ff00ff;stroke-width:0.732134;stroke-dasharray:none;-inkscape-stroke:hairline"
               d="m 239.995,20 c 1.85867,0 3.355,1.49856 3.355,3.36 v 53.28 c 0,1.86144 -1.49633,3.36 -3.355,3.36 -1.85867,0 -3.355,-1.49856 -3.355,-3.36 V 23.36 c 0,-1.86144 1.49633,-3.36 3.355,-3.36 z" /><path
               id="rect1160"
               style="vector-effect:non-scaling-stroke;fill-opacity:0;stroke:#ff00ff;stroke-width:0.732134;stroke-dasharray:none;-inkscape-stroke:hairline"
               d="m 252.42501,41 c 1.85867,0 3.355,1.49856 3.355,3.36 v 11.28 c 0,1.86144 -1.49633,3.36 -3.355,3.36 -1.85867,0 -3.355,-1.49856 -3.355,-3.36 V 44.36 c 0,-1.86144 1.49633,-3.36 3.355,-3.36 z" /><path
               id="rect1162"
               style="vector-effect:non-scaling-stroke;fill-opacity:0;stroke:#ff00ff;stroke-width:0.732134;stroke-dasharray:none;-inkscape-stroke:hairline"
               d="m 264.84499,30.5 c 1.85867,0 3.355,1.49856 3.355,3.36 v 32.28 c 0,1.86144 -1.49633,3.36 -3.355,3.36 -1.85867,0 -3.355,-1.49856 -3.355,-3.36 V 33.86 c 0,-1.86144 1.49633,-3.36 3.355,-3.36 z" /><path
               id="rect1164"
               style="vector-effect:non-scaling-stroke;fill-opacity:0;stroke:#ff00ff;stroke-width:0.732134;stroke-dasharray:none;-inkscape-stroke:hairline"
               d="m 277.265,34 c 1.85867,0 3.355,1.49856 3.355,3.36 v 25.28 c 0,1.86144 -1.49633,3.36 -3.355,3.36 -1.85867,0 -3.355,-1.49856 -3.355,-3.36 V 37.36 c 0,-1.86144 1.49633,-3.36 3.355,-3.36 z" /><path
               id="rect1166"
               style="vector-effect:non-scaling-stroke;fill-opacity:0;stroke:#ff00ff;stroke-width:0.732134;stroke-dasharray:none;-inkscape-stroke:hairline"
               d="m 289.68499,20 c 1.85867,0 3.355,1.49856 3.355,3.36 v 53.28 c 0,1.86144 -1.49633,3.36 -3.355,3.36 -1.85867,0 -3.355,-1.49856 -3.355,-3.36 V 23.36 c 0,-1.86144 1.49633,-3.36 3.355,-3.36 z" /><path
               id="rect1168"
               style="vector-effect:non-scaling-stroke;fill-opacity:0;stroke:#ff00ff;stroke-width:0.732134;stroke-dasharray:none;-inkscape-stroke:hairline"
               d="m 302.11501,34 c 1.85867,0 3.355,1.49856 3.355,3.36 v 25.28 c 0,1.86144 -1.49633,3.36 -3.355,3.36 -1.85867,0 -3.355,-1.49856 -3.355,-3.36 V 37.36 c 0,-1.86144 1.49633,-3.36 3.355,-3.36 z" /><path
               id="rect1170"
               style="vector-effect:non-scaling-stroke;fill-opacity:0;stroke:#ff00ff;stroke-width:0.732134;stroke-dasharray:none;-inkscape-stroke:hairline"
               d="m 314.53499,34 c 1.85867,0 3.355,1.49856 3.355,3.36 v 25.28 c 0,1.86144 -1.49633,3.36 -3.355,3.36 -1.85867,0 -3.355,-1.49856 -3.355,-3.36 V 37.36 c 0,-1.86144 1.49633,-3.36 3.355,-3.36 z" /><path
               id="rect1172"
               style="vector-effect:non-scaling-stroke;fill-opacity:0;stroke:#ff00ff;stroke-width:0.732134;stroke-dasharray:none;-inkscape-stroke:hairline"
               d="m 326.95501,37.5 c 1.85867,0 3.355,1.49856 3.355,3.36 v 18.28 c 0,1.86144 -1.49633,3.36 -3.355,3.36 -1.85867,0 -3.355,-1.49856 -3.355,-3.36 V 40.86 c 0,-1.86144 1.49633,-3.36 3.355,-3.36 z" /><path
               id="rect1174"
               style="vector-effect:non-scaling-stroke;fill-opacity:0;stroke:#ff00ff;stroke-width:0.732134;stroke-dasharray:none;-inkscape-stroke:hairline"
               d="m 339.37499,41 c 1.85867,0 3.355,1.49856 3.355,3.36 v 11.28 c 0,1.86144 -1.49633,3.36 -3.355,3.36 -1.85867,0 -3.355,-1.49856 -3.355,-3.36 V 44.36 c 0,-1.86144 1.49633,-3.36 3.355,-3.36 z" /><path
               id="rect1176"
               style="vector-effect:non-scaling-stroke;fill-opacity:0;stroke:#ff00ff;stroke-width:0.732134;stroke-dasharray:none;-inkscape-stroke:hairline"
               d="m 351.795,34 c 1.85867,0 3.355,1.49856 3.355,3.36 v 25.28 c 0,1.86144 -1.49633,3.36 -3.355,3.36 -1.85867,0 -3.355,-1.49856 -3.355,-3.36 V 37.36 c 0,-1.86144 1.49633,-3.36 3.355,-3.36 z" /><path
               id="rect1178"
               style="vector-effect:non-scaling-stroke;fill-opacity:0;stroke:#ff00ff;stroke-width:0.732134;stroke-dasharray:none;-inkscape-stroke:hairline"
               d="m 364.225,20 c 1.85867,0 3.355,1.49856 3.355,3.36 v 53.28 c 0,1.86144 -1.49633,3.36 -3.355,3.36 -1.85867,0 -3.355,-1.49856 -3.355,-3.36 V 23.36 c 0,-1.86144 1.49633,-3.36 3.355,-3.36 z" /><path
               id="rect1180"
               style="vector-effect:non-scaling-stroke;fill-opacity:0;stroke:#ff00ff;stroke-width:0.732134;stroke-dasharray:none;-inkscape-stroke:hairline"
               d="m 376.64501,44.5 c 1.85867,0 3.355,1.49856 3.355,3.36 v 4.28 c 0,1.86144 -1.49633,3.36 -3.355,3.36 -1.85867,0 -3.355,-1.49856 -3.355,-3.36 v -4.28 c 0,-1.86144 1.49633,-3.36 3.355,-3.36 z" /></g></g><g
           aria-label="Děkujeme!"
           transform="matrix(0.53081838,0,0,0.50710776,-102.83608,-133.66412)"
           id="text2139"
           style="font-size:68.0315px;font-family:Gotham;-inkscape-font-specification:Gotham;text-align:center;text-anchor:middle;white-space:pre;shape-inside:url(#rect2141);vector-effect:non-scaling-stroke;fill-opacity:0;stroke:#ff00ff;stroke-width:1.41113;stroke-dasharray:none;-inkscape-stroke:hairline"><path
             d="m 464.19062,527.89084 q 0,-5.03433 -1.83685,-9.38834 -1.83685,-4.35402 -5.23842,-7.5515 -3.33355,-3.19748 -8.02772,-4.9663 -4.62614,-1.83685 -10.20473,-1.83685 h -16.53165 v 47.62205 h 16.53165 q 5.57859,0 10.20473,-1.83685 4.69417,-1.83685 8.02772,-5.03433 3.40157,-3.19748 5.23842,-7.5515 1.83685,-4.42205 1.83685,-9.45638 z m -5.57858,0.13607 q 0,4.01386 -1.42866,7.41543 -1.36063,3.40158 -3.94583,5.98677 -2.51717,2.51717 -6.19087,3.94583 -3.6737,1.42866 -8.16378,1.42866 h -11.15716 v -37.68945 h 11.15716 q 4.49008,0 8.16378,1.49669 3.6737,1.42866 6.19087,4.01386 2.5852,2.51717 3.94583,5.98677 1.42866,3.46961 1.42866,7.41544 z"
             style="vector-effect:non-scaling-stroke;stroke-width:1.41113;stroke-dasharray:none;-inkscape-stroke:hairline"
             id="path2340" /><path
             d="m 506.02146,533.86513 h -27.33883 q 0,3.4215 1.02978,5.97933 1.02977,2.5246 2.82357,4.15231 1.72736,1.59449 4.08588,2.39173 2.39173,0.79725 5.24852,0.79725 3.78691,0 7.60704,-1.49484 3.85335,-1.52805 5.48105,-2.98966 h 0.33219 v 6.80979 q -3.15576,1.32874 -6.44439,2.22564 -3.28864,0.8969 -6.90945,0.8969 -9.23475,0 -14.41683,-4.98277 -5.18209,-5.016 -5.18209,-14.21752 0,-9.10188 4.94956,-14.45006 4.98277,-5.34817 13.08809,-5.34817 7.50738,0 11.56004,4.38484 4.08587,4.38484 4.08587,12.45694 z m -6.07898,-4.78347 q -0.0332,-4.91634 -2.49139,-7.60704 -2.42495,-2.6907 -7.40773,-2.6907 -5.01599,0 -8.00566,2.95645 -2.95644,2.95645 -3.35507,7.34129 z m 1.6277,-32.98598 -7.57382,12.58982 h -7.5406 l -7.57382,-12.58982 h 5.28175 l 6.14542,8.50394 6.11221,-8.50394 z"
             style="vector-effect:non-scaling-stroke;stroke-width:1.41113;stroke-dasharray:none;-inkscape-stroke:hairline"
             id="path2342" /><path
             d="m 531.18143,531.70061 14.76284,-15.103 h -6.53103 l -18.98079,19.79717 V 502.1069 h -5.23842 v 49.663 h 5.23842 v -9.18425 l 7.14331,-7.21134 12.58583,16.39559 h 6.2589 z"
             style="vector-effect:non-scaling-stroke;stroke-width:1.41113;stroke-dasharray:none;-inkscape-stroke:hairline"
             id="path2344" /><path
             d="m 578.19119,536.73494 q 0,2.44913 -0.81638,4.49008 -0.81638,2.04094 -2.24504,3.53764 -1.36063,1.42866 -3.33354,2.24504 -1.90488,0.74834 -4.14992,0.74834 -4.69418,0 -7.21134,-2.85732 -2.51717,-2.85732 -2.51717,-7.75559 v -20.54552 h -5.23842 v 21.83812 q 0,3.12945 0.88441,5.71464 0.95244,2.5852 2.65322,4.49008 1.76882,1.83685 4.21796,2.85732 2.51716,1.02048 5.71464,1.02048 4.55811,0 7.41544,-1.97292 2.85732,-2.04094 4.62614,-4.89826 v 6.12283 h 5.17039 v -35.17229 h -5.17039 z"
             style="vector-effect:non-scaling-stroke;stroke-width:1.41113;stroke-dasharray:none;-inkscape-stroke:hairline"
             id="path2346" /><path
             d="m 601.25383,508.91005 v -5.78267 h -5.98677 v 5.78267 z m -5.64662,7.68756 v 37.1452 q 0,2.44914 -1.15653,3.53764 -1.08851,1.15654 -2.85733,1.15654 -0.54425,0 -1.29259,-0.068 -0.68032,0 -1.2926,-0.13607 v 4.28599 q 0.88441,0.20409 1.56472,0.27212 0.74835,0.068 1.70079,0.068 4.01386,0 6.2589,-2.17701 2.31307,-2.17701 2.31307,-6.87118 V 516.5976 Z"
             style="vector-effect:non-scaling-stroke;stroke-width:1.41113;stroke-dasharray:none;-inkscape-stroke:hairline"
             id="path2348" /><path
             d="m 616.15276,536.12266 h 27.89292 q 0.068,-0.47623 0.068,-0.88441 0,-0.40819 0,-0.74835 0,-3.8778 -1.08851,-7.27937 -1.0885,-3.40158 -3.19748,-5.91874 -2.10897,-2.51717 -5.17039,-3.94583 -3.06142,-1.49669 -6.93921,-1.49669 -3.67371,0 -6.80315,1.42866 -3.06142,1.42866 -5.30646,3.94583 -2.24504,2.44913 -3.53764,5.85071 -1.22457,3.33354 -1.22457,7.1433 0,4.08189 1.36063,7.48347 1.42866,3.40157 3.80977,5.85071 2.3811,2.3811 5.57858,3.74173 3.19748,1.2926 6.80315,1.2926 5.03433,0 8.43591,-1.76882 3.40157,-1.83685 6.0548,-4.83024 l -3.26551,-2.92535 q -2.17701,2.24504 -4.83024,3.60567 -2.5852,1.36063 -6.2589,1.36063 -2.31307,0 -4.42204,-0.74835 -2.10898,-0.81638 -3.80977,-2.31307 -1.70079,-1.56472 -2.78929,-3.74173 -1.0885,-2.24504 -1.36063,-5.10236 z m 0,-3.8778 q 0.27213,-2.5852 1.22457,-4.76221 0.95244,-2.177 2.44913,-3.74173 1.49669,-1.63275 3.46961,-2.51716 1.97291,-0.95244 4.28598,-0.95244 2.65323,0 4.62614,1.02047 2.04095,0.95244 3.40158,2.5852 1.42866,1.63275 2.17701,3.80976 0.81638,2.17701 1.02047,4.55811 z"
             style="vector-effect:non-scaling-stroke;stroke-width:1.41113;stroke-dasharray:none;-inkscape-stroke:hairline"
             id="path2350" /><path
             d="m 681.19093,522.85651 q -1.42866,-2.99338 -4.21795,-4.9663 -2.78929,-2.04094 -7.07528,-2.04094 -2.24504,0 -3.94583,0.54425 -1.70078,0.54425 -3.06141,1.49669 -1.36063,0.88441 -2.44914,2.10898 -1.02047,1.22457 -1.90488,2.51717 v -5.91875 h -5.23842 v 35.17229 h 5.23842 v -20.06929 q 0,-2.44914 0.74835,-4.42205 0.74834,-2.04094 2.04094,-3.53764 1.36063,-1.49669 3.12945,-2.31307 1.76882,-0.81638 3.8778,-0.81638 4.21795,0 6.59905,2.78929 2.44914,2.72126 2.44914,7.68756 v 20.68158 h 5.17039 v -20.27339 q 0,-2.58519 0.74835,-4.62614 0.81638,-2.04094 2.10897,-3.40157 1.36063,-1.42867 3.12945,-2.10898 1.76882,-0.74835 3.74174,-0.74835 4.28598,0 6.66708,2.78929 2.44914,2.72126 2.44914,7.82363 v 20.54551 h 5.23842 v -21.77008 q 0,-6.59906 -3.4696,-10.34079 -3.46961,-3.80976 -9.59245,-3.80976 -2.31307,0 -4.21795,0.54425 -1.83685,0.54425 -3.33354,1.49669 -1.4967,0.95244 -2.72126,2.24504 -1.15654,1.2926 -2.10898,2.72126 z"
             style="vector-effect:non-scaling-stroke;stroke-width:1.41113;stroke-dasharray:none;-inkscape-stroke:hairline"
             id="path2352" /><path
             d="m 721.12546,536.12266 h 27.89292 q 0.068,-0.47623 0.068,-0.88441 0,-0.40819 0,-0.74835 0,-3.8778 -1.0885,-7.27937 -1.08851,-3.40158 -3.19749,-5.91874 -2.10897,-2.51717 -5.17039,-3.94583 -3.06142,-1.49669 -6.93921,-1.49669 -3.6737,0 -6.80315,1.42866 -3.06142,1.42866 -5.30646,3.94583 -2.24504,2.44913 -3.53764,5.85071 -1.22456,3.33354 -1.22456,7.1433 0,4.08189 1.36063,7.48347 1.42866,3.40157 3.80976,5.85071 2.3811,2.3811 5.57858,3.74173 3.19748,1.2926 6.80315,1.2926 5.03433,0 8.43591,-1.76882 3.40157,-1.83685 6.0548,-4.83024 l -3.26551,-2.92535 q -2.17701,2.24504 -4.83024,3.60567 -2.58519,1.36063 -6.25889,1.36063 -2.31308,0 -4.42205,-0.74835 -2.10898,-0.81638 -3.80977,-2.31307 -1.70078,-1.56472 -2.78929,-3.74173 -1.0885,-2.24504 -1.36063,-5.10236 z m 0,-3.8778 q 0.27213,-2.5852 1.22457,-4.76221 0.95244,-2.177 2.44913,-3.74173 1.4967,-1.63275 3.46961,-2.51716 1.97291,-0.95244 4.28598,-0.95244 2.65323,0 4.62615,1.02047 2.04094,0.95244 3.40157,2.5852 1.42866,1.63275 2.17701,3.80976 0.81638,2.17701 1.02047,4.55811 z"
             style="vector-effect:non-scaling-stroke;stroke-width:1.41113;stroke-dasharray:none;-inkscape-stroke:hairline"
             id="path2354" /><path
             d="m 758.61086,504.14785 v 3.8778 l 1.56472,30.27401 h 2.92536 l 1.63275,-30.27401 v -3.8778 z m 6.19087,47.62205 v -7.14331 h -6.2589 v 7.14331 z"
             style="vector-effect:non-scaling-stroke;stroke-width:1.41113;stroke-dasharray:none;-inkscape-stroke:hairline"
             id="path2356" /></g></g><g
         aria-label="4 roky prázdnin"
         transform="matrix(0.30700874,0,0,0.29321121,25.695323,41.528701)"
         id="text1220"
         style="font-size:68.0315px;font-family:Gotham;-inkscape-font-specification:Gotham;text-align:center;text-anchor:middle;white-space:pre;shape-inside:url(#rect1222);vector-effect:non-scaling-stroke;fill:none;fill-opacity:0.248276;stroke:#ff00ff;stroke-width:0.881854;stroke-dasharray:none;-inkscape-stroke:hairline"><path
           d="m 321.4136,619.87605 -26.12409,30.27402 1.70078,7.41543 h 23.26678 v 10.27276 H 330.2577 V 657.5655 h 6.39496 v -8.50393 h -6.39496 v -29.18552 z m -1.15653,29.18552 h -12.65386 l 12.65386,-14.83087 z"
           style="font-weight:bold;-inkscape-font-specification:'Gotham Bold';font-variation-settings:normal;opacity:1;vector-effect:non-scaling-stroke;fill:none;fill-opacity:0.248276;stroke:#ff00ff;stroke-width:0.881854;stroke-linecap:butt;stroke-linejoin:miter;stroke-miterlimit:4;stroke-dasharray:none;stroke-dashoffset:0;stroke-opacity:1;-inkscape-stroke:hairline;stop-color:#000000;stop-opacity:1"
           id="path2359" /><path
           d="m 387.0639,641.51007 v -10.81701 q -4.62615,-0.20409 -7.34741,2.04095 -2.72126,2.24503 -4.28598,5.98677 v -7.3474 h -10.34079 v 36.46488 h 10.34079 v -13.47024 q 0,-6.59905 2.92535,-9.7285 2.99339,-3.12945 8.16378,-3.12945 z"
           style="font-weight:bold;-inkscape-font-specification:'Gotham Bold';vector-effect:non-scaling-stroke;stroke-width:0.881854;stroke-dasharray:none;-inkscape-stroke:hairline"
           id="path2361" /><path
           d="m 431.21629,649.67385 v -0.13606 q 0,-3.94583 -1.49669,-7.34741 -1.49669,-3.4696 -4.14992,-5.98677 -2.5852,-2.5852 -6.19087,-4.01386 -3.60567,-1.49669 -7.82362,-1.49669 -4.28599,0 -7.89166,1.49669 -3.60567,1.4967 -6.25889,4.08189 -2.65323,2.5852 -4.14993,6.05481 -1.49669,3.40157 -1.49669,7.3474 v 0.13606 q 0,3.94583 1.49669,7.41544 1.4967,3.40157 4.08189,5.98677 2.65323,2.51716 6.2589,4.01386 3.60567,1.42866 7.82363,1.42866 4.28598,0 7.89165,-1.49669 3.60567,-1.4967 6.2589,-4.08189 2.65323,-2.5852 4.14992,-5.98678 1.49669,-3.4696 1.49669,-7.41543 z m -10.20472,0.13606 q 0,2.04095 -0.68032,3.8778 -0.61228,1.76882 -1.83685,3.12945 -1.22457,1.36063 -2.99338,2.17701 -1.70079,0.74834 -3.94583,0.74834 -2.17701,0 -3.94583,-0.81638 -1.70079,-0.81637 -2.99338,-2.177 -1.2926,-1.42867 -1.97292,-3.19749 -0.68031,-1.83685 -0.68031,-3.87779 v -0.13606 q 0,-2.04095 0.61228,-3.80977 0.68032,-1.83685 1.90488,-3.19748 1.22457,-1.36063 2.92536,-2.10897 1.76882,-0.81638 4.01386,-0.81638 2.10897,0 3.87779,0.81638 1.76882,0.81637 3.06142,2.24503 1.2926,1.36063 1.97291,3.19749 0.68032,1.76881 0.68032,3.80976 z"
           style="font-weight:bold;-inkscape-font-specification:'Gotham Bold';vector-effect:non-scaling-stroke;stroke-width:0.881854;stroke-dasharray:none;-inkscape-stroke:hairline"
           id="path2363" /><path
           d="m 474.00807,667.83826 -14.35465,-22.11024 13.87843,-14.35464 h -12.38173 l -12.10961,13.26614 v -26.46426 h -10.34079 v 49.663 h 10.34079 v -11.08913 l 3.60567,-3.80977 9.52441,14.8989 z"
           style="font-weight:bold;-inkscape-font-specification:'Gotham Bold';vector-effect:non-scaling-stroke;stroke-width:0.881854;stroke-dasharray:none;-inkscape-stroke:hairline"
           id="path2365" /><path
           d="m 513.67051,631.37338 h -10.74898 l -7.95969,24.83149 -8.29984,-24.83149 h -10.95307 l 14.28661,36.60094 q -0.68031,1.36063 -1.49669,1.83685 -0.74834,0.54426 -2.10897,0.54426 -1.02048,0 -2.24504,-0.40819 -1.15654,-0.40819 -2.17701,-1.02048 l -3.46961,7.48347 q 1.97291,1.15654 4.14992,1.83685 2.17701,0.68032 5.03433,0.68032 2.31307,0 4.08189,-0.54426 1.76882,-0.54425 3.12945,-1.76882 1.42866,-1.22456 2.5852,-3.19748 1.15654,-1.90488 2.17701,-4.69417 z"
           style="font-weight:bold;-inkscape-font-specification:'Gotham Bold';vector-effect:non-scaling-stroke;stroke-width:0.881854;stroke-dasharray:none;-inkscape-stroke:hairline"
           id="path2367" /><path
           d="m 578.50449,649.67385 v -0.13606 q 0,-4.55811 -1.42866,-8.02772 -1.36063,-3.53764 -3.6737,-5.91874 -2.31307,-2.44914 -5.30646,-3.6737 -2.99338,-1.22457 -6.19086,-1.22457 -4.08189,0 -6.80315,1.70079 -2.65323,1.63275 -4.55811,4.21795 v -5.23842 h -10.34079 v 47.34992 h 10.34079 v -15.64724 q 1.83685,2.177 4.49008,3.80976 2.72126,1.63276 6.87118,1.63276 3.26551,0 6.2589,-1.22457 2.99338,-1.22457 5.23842,-3.60567 2.31307,-2.44914 3.6737,-5.91874 1.42866,-3.53764 1.42866,-8.09575 z m -10.34078,0 q 0,2.31307 -0.74835,4.14992 -0.68032,1.83685 -1.90488,3.19748 -1.22457,1.2926 -2.85733,2.04095 -1.56472,0.68031 -3.40157,0.68031 -1.83685,0 -3.46961,-0.68031 -1.56472,-0.74835 -2.78929,-2.04095 -1.15653,-1.36063 -1.90488,-3.19748 -0.68032,-1.90488 -0.68032,-4.14992 v -0.13606 q 0,-2.24504 0.68032,-4.08189 0.74835,-1.90489 1.90488,-3.19748 1.22457,-1.36063 2.78929,-2.04095 1.63276,-0.74835 3.46961,-0.74835 1.83685,0 3.40157,0.74835 1.63276,0.68032 2.85733,2.04095 1.22456,1.29259 1.90488,3.19748 0.74835,1.83685 0.74835,4.08189 z"
           style="font-weight:bold;-inkscape-font-specification:'Gotham Bold';vector-effect:non-scaling-stroke;stroke-width:0.881854;stroke-dasharray:none;-inkscape-stroke:hairline"
           id="path2369" /><path
           d="m 608.09817,641.51007 v -10.81701 q -4.62614,-0.20409 -7.3474,2.04095 -2.72126,2.24503 -4.28599,5.98677 v -7.3474 h -10.34079 v 36.46488 h 10.34079 v -13.47024 q 0,-6.59905 2.92536,-9.7285 2.99338,-3.12945 8.16378,-3.12945 z"
           style="font-weight:bold;-inkscape-font-specification:'Gotham Bold';vector-effect:non-scaling-stroke;stroke-width:0.881854;stroke-dasharray:none;-inkscape-stroke:hairline"
           id="path2371" /><path
           d="m 645.92362,667.83826 v -21.1578 q 0,-7.41543 -3.8778,-11.56535 -3.87779,-4.14992 -12.38173,-4.14992 -4.62614,0 -7.89165,0.81637 -3.26552,0.81638 -6.2589,2.10898 l 2.58519,7.89166 q 2.51717,-0.95245 4.76221,-1.42867 2.31307,-0.54425 5.30646,-0.54425 3.87779,0 5.85071,1.70079 1.97291,1.70079 1.97291,4.9663 v 0.61228 q -1.97291,-0.68031 -4.08189,-1.0885 -2.04095,-0.40819 -4.83024,-0.40819 -3.26551,0 -5.98677,0.74835 -2.65323,0.68031 -4.62614,2.10897 -1.90488,1.42866 -2.99339,3.60567 -1.0885,2.17701 -1.0885,5.1704 v 0.13606 q 0,2.72126 0.95244,4.83024 1.02047,2.04094 2.72126,3.4696 1.70079,1.42866 3.94583,2.17701 2.31307,0.68032 4.89826,0.68032 3.80977,0 6.463,-1.22457 2.65323,-1.2926 4.55811,-3.40158 v 3.94583 z m -9.79654,-12.85795 q 0,2.85732 -2.24504,4.62614 -2.17701,1.76882 -5.85071,1.76882 -2.51716,0 -4.08189,-1.15654 -1.56472,-1.15653 -1.56472,-3.26551 v -0.13606 q 0,-2.44914 1.90488,-3.74174 1.90488,-1.29259 5.23843,-1.29259 1.90488,0 3.53763,0.40818 1.70079,0.34016 3.06142,0.95245 z m -2.85732,-27.62079 8.70803,-8.16378 -8.91213,-3.8778 -7.68755,12.04158 z"
           style="font-weight:bold;-inkscape-font-specification:'Gotham Bold';vector-effect:non-scaling-stroke;stroke-width:0.881854;stroke-dasharray:none;-inkscape-stroke:hairline"
           id="path2373" /><path
           d="m 685.31393,667.83826 v -8.36787 h -18.91276 l 18.91276,-20.81764 v -7.27937 h -31.0904 v 8.36787 h 18.23244 l -18.84472,20.81764 v 7.27937 z"
           style="font-weight:bold;-inkscape-font-specification:'Gotham Bold';vector-effect:non-scaling-stroke;stroke-width:0.881854;stroke-dasharray:none;-inkscape-stroke:hairline"
           id="path2375" /><path
           d="m 729.80652,667.83826 v -49.663 h -10.34079 v 17.96032 q -1.83685,-2.17701 -4.55811,-3.80976 -2.65323,-1.63276 -6.80315,-1.63276 -3.26551,0 -6.25889,1.22457 -2.99339,1.22456 -5.30646,3.6737 -2.24504,2.3811 -3.6737,5.91874 -1.36063,3.46961 -1.36063,8.02772 v 0.13606 q 0,4.55811 1.36063,8.09575 1.42866,3.4696 3.74173,5.91874 2.31307,2.3811 5.30646,3.60567 2.99338,1.22457 6.19086,1.22457 4.08189,0 6.73512,-1.63276 2.72126,-1.70079 4.62614,-4.28599 v 5.23843 z M 719.6018,649.67385 q 0,2.24504 -0.74835,4.14992 -0.68031,1.83685 -1.90488,3.19748 -1.15654,1.2926 -2.78929,2.04095 -1.56473,0.68031 -3.40158,0.68031 -1.83685,0 -3.4696,-0.68031 -1.56473,-0.74835 -2.7893,-2.04095 -1.22456,-1.36063 -1.97291,-3.19748 -0.68031,-1.90488 -0.68031,-4.14992 v -0.13606 q 0,-2.31307 0.68031,-4.14993 0.74835,-1.83685 1.97291,-3.12944 1.22457,-1.36063 2.7893,-2.04095 1.63275,-0.74835 3.4696,-0.74835 1.83685,0 3.40158,0.74835 1.63275,0.68032 2.78929,2.04095 1.22457,1.29259 1.90488,3.19748 0.74835,1.83685 0.74835,4.08189 z"
           style="font-weight:bold;-inkscape-font-specification:'Gotham Bold';vector-effect:non-scaling-stroke;stroke-width:0.881854;stroke-dasharray:none;-inkscape-stroke:hairline"
           id="path2377" /><path
           d="m 772.46221,667.83826 v -23.60693 q 0,-6.32693 -3.26551,-9.9326 -3.19748,-3.60567 -9.11622,-3.60567 -1.97291,0 -3.53764,0.47622 -1.56472,0.47622 -2.85732,1.2926 -1.2926,0.81638 -2.3811,1.90488 -1.02048,1.02047 -1.90489,2.17701 v -5.17039 h -10.34078 v 36.46488 h 10.34078 v -20.34142 q 0,-3.6737 1.70079,-5.51055 1.76882,-1.90488 4.76221,-1.90488 2.99338,0 4.62614,1.90488 1.63276,1.83685 1.63276,5.51055 v 20.34142 z"
           style="font-weight:bold;-inkscape-font-specification:'Gotham Bold';vector-effect:non-scaling-stroke;stroke-width:0.881854;stroke-dasharray:none;-inkscape-stroke:hairline"
           id="path2379" /><path
           d="m 792.53146,627.35952 v -9.18426 h -10.88504 v 9.18426 z m -0.27213,40.47874 v -36.46488 h -10.34079 v 36.46488 z"
           style="font-weight:bold;-inkscape-font-specification:'Gotham Bold';vector-effect:non-scaling-stroke;stroke-width:0.881854;stroke-dasharray:none;-inkscape-stroke:hairline"
           id="path2381" /><path
           d="m 835.39129,667.83826 v -23.60693 q 0,-6.32693 -3.26551,-9.9326 -3.19748,-3.60567 -9.11622,-3.60567 -1.97292,0 -3.53764,0.47622 -1.56472,0.47622 -2.85732,1.2926 -1.2926,0.81638 -2.38111,1.90488 -1.02047,1.02047 -1.90488,2.17701 v -5.17039 h -10.34079 v 36.46488 h 10.34079 v -20.34142 q 0,-3.6737 1.70079,-5.51055 1.76882,-1.90488 4.7622,-1.90488 2.99339,0 4.62615,1.90488 1.63275,1.83685 1.63275,5.51055 v 20.34142 z"
           style="font-weight:bold;-inkscape-font-specification:'Gotham Bold';vector-effect:non-scaling-stroke;stroke-width:0.881854;stroke-dasharray:none;-inkscape-stroke:hairline"
           id="path2383" /></g><path
         id="path3693"
         style="vector-effect:non-scaling-stroke;fill:none;stroke:#ff00ff;stroke-width:0.264583;stroke-dasharray:none;stroke-opacity:1;-inkscape-stroke:hairline"
         d="m 177.03655,294.71619 a 3.0000047,2.999997 0 0 1 -3.00001,3 3.0000047,2.999997 0 0 1 -2.99999,-3 3.0000047,2.999997 0 0 1 2.99999,-3 3.0000047,2.999997 0 0 1 3.00001,3 z" /><path
         id="path3693-0"
         style="vector-effect:non-scaling-stroke;fill:none;stroke:#ff00ff;stroke-width:0.264583;stroke-dasharray:none;stroke-opacity:1;-inkscape-stroke:hairline"
         d="m 177.05581,294.69639 a 3.0000047,2.999997 0 0 1 -3.00001,3 3.0000047,2.999997 0 0 1 -2.99999,-3 3.0000047,2.999997 0 0 1 2.99999,-3 3.0000047,2.999997 0 0 1 3.00001,3 z" /><g
         id="g1320"
         transform="matrix(1.4191227,0,0,1.4191227,-83.40723,-51.770419)"
         style="vector-effect:non-scaling-stroke;stroke-width:0.186441;stroke-dasharray:none;-inkscape-stroke:hairline"><g
           aria-label="L4"
           transform="matrix(0.42288162,0,0,0.41912972,-68.736807,-64.309961)"
           id="text2702"
           style="font-size:96px;font-family:Ubuntu;-inkscape-font-specification:'Ubuntu, Normal';white-space:pre;shape-inside:url(#rect2704);display:inline;vector-effect:non-scaling-stroke;fill:none;stroke:#ff00ff;stroke-width:0.442852;stroke-dasharray:none;-inkscape-stroke:hairline"><path
             d="m 576.61728,421.12439 h 45.408 v -7.008 h -37.824 v -60.192 h -7.584 z"
             style="font-family:Gotham;-inkscape-font-specification:Gotham;vector-effect:non-scaling-stroke;stroke-width:0.442852;stroke-dasharray:none;-inkscape-stroke:hairline"
             id="path2386" /><path
             d="m 668.68123,353.44439 -38.016,46.272 1.92,5.472 h 35.424 v 15.936 h 7.296 v -15.936 h 10.464 v -6.336 h -10.464 v -45.408 z m -0.672,45.408 h -28.224 l 28.224,-34.656 z"
             style="font-family:Gotham;-inkscape-font-specification:Gotham;vector-effect:non-scaling-stroke;stroke-width:0.442852;stroke-dasharray:none;-inkscape-stroke:hairline"
             id="path2388" /></g><g
           aria-label="2019-2023"
           transform="scale(1.0113077,0.98881873)"
           id="text3735"
           style="font-size:8.58204px;font-family:Ubuntu;-inkscape-font-specification:'Ubuntu, Normal';vector-effect:non-scaling-stroke;fill:none;stroke:#ff00ff;stroke-width:0.186441;stroke-dasharray:none;-inkscape-stroke:hairline"><path
             d="m 175.46762,121.34319 q 0.24029,0 0.46343,0.0858 0.22313,0.0772 0.38619,0.23172 0.16306,0.14589 0.25746,0.36045 0.10299,0.20596 0.10299,0.47201 0,0.22313 -0.0687,0.43768 -0.0601,0.20597 -0.21455,0.4291 -0.1459,0.21455 -0.38619,0.46343 -0.2403,0.24888 -0.58358,0.55784 l -2.17984,1.92237 v 0.52351 h 4.19662 v -0.61791 h -3.18394 l 1.60484,-1.42462 q 0.39478,-0.34328 0.67798,-0.62649 0.28321,-0.29179 0.47201,-0.55783 0.18881,-0.27462 0.27463,-0.54925 0.0944,-0.27462 0.0944,-0.60932 0,-0.36903 -0.13731,-0.67799 -0.13731,-0.31753 -0.38619,-0.54066 -0.24888,-0.23172 -0.59216,-0.36045 -0.3347,-0.12873 -0.74664,-0.12873 -0.39477,0 -0.71231,0.0858 -0.30895,0.0858 -0.56641,0.24888 -0.24888,0.16306 -0.46343,0.40336 -0.21456,0.24029 -0.42052,0.54066 l 0.49775,0.36045 q 0.36045,-0.50634 0.72948,-0.7638 0.36903,-0.26605 0.88395,-0.26605 z"
             style="font-family:Gotham;-inkscape-font-specification:Gotham;vector-effect:non-scaling-stroke;stroke-width:0.186441;stroke-dasharray:none;-inkscape-stroke:hairline"
             id="path2391" /><path
             d="m 183.57765,123.81482 q 0,-0.63507 -0.18022,-1.1929 -0.17164,-0.56642 -0.50634,-0.98694 -0.32612,-0.4291 -0.79813,-0.6694 -0.46343,-0.24887 -1.03843,-0.24887 -0.58358,0 -1.05559,0.24887 -0.47201,0.24888 -0.80671,0.67799 -0.32612,0.42052 -0.50634,0.98693 -0.18022,0.56642 -0.18022,1.20149 0,0.63507 0.17164,1.20148 0.18022,0.55783 0.50634,0.98694 0.3347,0.42052 0.79813,0.6694 0.47201,0.24029 1.05559,0.24029 0.575,0 1.04701,-0.24888 0.47201,-0.24888 0.79813,-0.6694 0.3347,-0.4291 0.51492,-0.99551 0.18022,-0.56642 0.18022,-1.20149 z m -0.70372,0.0172 q 0,0.49775 -0.12873,0.9526 -0.12015,0.44627 -0.36045,0.78955 -0.23172,0.3347 -0.575,0.54067 -0.3347,0.19739 -0.75522,0.19739 -0.42052,0 -0.7638,-0.19739 -0.34328,-0.20597 -0.58358,-0.54925 -0.24029,-0.34328 -0.36902,-0.79813 -0.12873,-0.45485 -0.12873,-0.95261 0,-0.49776 0.12873,-0.94402 0.12873,-0.45485 0.36044,-0.78955 0.2403,-0.34328 0.575,-0.54067 0.34328,-0.20597 0.7638,-0.20597 0.42052,0 0.75522,0.20597 0.34328,0.20597 0.58358,0.54925 0.24029,0.34328 0.36903,0.79813 0.12873,0.44627 0.12873,0.94403 z"
             style="font-family:Gotham;-inkscape-font-specification:Gotham;vector-effect:non-scaling-stroke;stroke-width:0.186441;stroke-dasharray:none;-inkscape-stroke:hairline"
             id="path2393" /><path
             d="m 184.30714,121.28312 0.16305,0.54925 1.13283,-0.35186 v 5.34661 h 0.6694 v -6.05034 h -0.49776 z"
             style="font-family:Gotham;-inkscape-font-specification:Gotham;vector-effect:non-scaling-stroke;stroke-width:0.186441;stroke-dasharray:none;-inkscape-stroke:hairline"
             id="path2395" /><path
             d="m 192.16828,123.66893 q 0,-0.45485 -0.0515,-0.80671 -0.0515,-0.36045 -0.14589,-0.63508 -0.0944,-0.2832 -0.23172,-0.49775 -0.13731,-0.21455 -0.31754,-0.39478 -0.29178,-0.29179 -0.67798,-0.45485 -0.38619,-0.16305 -0.90111,-0.16305 -0.48059,0 -0.88395,0.16305 -0.39477,0.15448 -0.67798,0.43769 -0.28321,0.27462 -0.44627,0.65223 -0.15447,0.36903 -0.15447,0.79813 0,0.41194 0.15447,0.75522 0.15448,0.34328 0.4291,0.59216 0.27463,0.24888 0.66082,0.3862 0.38619,0.13731 0.84962,0.13731 0.62649,0 1.03843,-0.28321 0.41194,-0.28321 0.66082,-0.67798 0.009,0.575 -0.12015,1.06417 -0.12015,0.4806 -0.36045,0.83246 -0.23171,0.34328 -0.56641,0.54067 -0.3347,0.19739 -0.73806,0.19739 -0.40335,0 -0.75522,-0.15448 -0.35186,-0.16306 -0.72089,-0.48918 l -0.39477,0.52351 q 0.38619,0.31753 0.82387,0.53208 0.43769,0.20597 1.02985,0.20597 0.55783,0 1.01268,-0.24029 0.46343,-0.2403 0.78955,-0.6694 0.3347,-0.43769 0.51492,-1.02985 0.18022,-0.60074 0.18022,-1.32163 z m -0.82387,-0.97836 q 0,0.25747 -0.10299,0.50635 -0.10298,0.24887 -0.30037,0.43768 -0.1888,0.1888 -0.47201,0.30895 -0.27463,0.11157 -0.61791,0.11157 -0.32612,0 -0.60074,-0.0944 -0.27463,-0.10299 -0.47201,-0.27463 -0.18881,-0.18022 -0.30037,-0.42052 -0.10299,-0.2403 -0.10299,-0.53209 0,-0.2832 0.0944,-0.54066 0.10299,-0.25746 0.28321,-0.44627 0.18881,-0.19739 0.45485,-0.30895 0.27462,-0.12015 0.60932,-0.12015 0.3347,0 0.61791,0.11156 0.28321,0.10299 0.48059,0.29179 0.20597,0.18023 0.31754,0.42911 0.11157,0.24888 0.11157,0.54066 z"
             style="font-family:Gotham;-inkscape-font-specification:Gotham;vector-effect:non-scaling-stroke;stroke-width:0.186441;stroke-dasharray:none;-inkscape-stroke:hairline"
             id="path2397" /><path
             d="m 195.63542,124.59579 v -0.69515 h -2.38581 v 0.69515 z"
             style="font-family:Gotham;-inkscape-font-specification:Gotham;vector-effect:non-scaling-stroke;stroke-width:0.186441;stroke-dasharray:none;-inkscape-stroke:hairline"
             id="path2399" /><path
             d="m 198.82795,121.34319 q 0.2403,0 0.46343,0.0858 0.22313,0.0772 0.38619,0.23172 0.16306,0.14589 0.25746,0.36045 0.10299,0.20596 0.10299,0.47201 0,0.22313 -0.0687,0.43768 -0.0601,0.20597 -0.21455,0.4291 -0.1459,0.21455 -0.38619,0.46343 -0.2403,0.24888 -0.58358,0.55784 l -2.17984,1.92237 v 0.52351 h 4.19662 v -0.61791 h -3.18394 l 1.60484,-1.42462 q 0.39478,-0.34328 0.67798,-0.62649 0.28321,-0.29179 0.47202,-0.55783 0.1888,-0.27462 0.27462,-0.54925 0.0944,-0.27462 0.0944,-0.60932 0,-0.36903 -0.13731,-0.67799 -0.13731,-0.31753 -0.38619,-0.54066 -0.24888,-0.23172 -0.59216,-0.36045 -0.3347,-0.12873 -0.74664,-0.12873 -0.39477,0 -0.71231,0.0858 -0.30895,0.0858 -0.56641,0.24888 -0.24888,0.16306 -0.46343,0.40336 -0.21455,0.24029 -0.42052,0.54066 l 0.49775,0.36045 q 0.36045,-0.50634 0.72948,-0.7638 0.36903,-0.26605 0.88395,-0.26605 z"
             style="font-family:Gotham;-inkscape-font-specification:Gotham;vector-effect:non-scaling-stroke;stroke-width:0.186441;stroke-dasharray:none;-inkscape-stroke:hairline"
             id="path2401" /><path
             d="m 206.93798,123.81482 q 0,-0.63507 -0.18022,-1.1929 -0.17164,-0.56642 -0.50634,-0.98694 -0.32612,-0.4291 -0.79813,-0.6694 -0.46343,-0.24887 -1.03843,-0.24887 -0.58357,0 -1.05559,0.24887 -0.47201,0.24888 -0.80671,0.67799 -0.32612,0.42052 -0.50634,0.98693 -0.18022,0.56642 -0.18022,1.20149 0,0.63507 0.17164,1.20148 0.18022,0.55783 0.50634,0.98694 0.3347,0.42052 0.79813,0.6694 0.47201,0.24029 1.05559,0.24029 0.575,0 1.04701,-0.24888 0.47201,-0.24888 0.79813,-0.6694 0.3347,-0.4291 0.51492,-0.99551 0.18022,-0.56642 0.18022,-1.20149 z m -0.70372,0.0172 q 0,0.49775 -0.12873,0.9526 -0.12015,0.44627 -0.36045,0.78955 -0.23171,0.3347 -0.575,0.54067 -0.3347,0.19739 -0.75522,0.19739 -0.42052,0 -0.7638,-0.19739 -0.34328,-0.20597 -0.58358,-0.54925 -0.24029,-0.34328 -0.36902,-0.79813 -0.12873,-0.45485 -0.12873,-0.95261 0,-0.49776 0.12873,-0.94402 0.12873,-0.45485 0.36044,-0.78955 0.2403,-0.34328 0.575,-0.54067 0.34328,-0.20597 0.7638,-0.20597 0.42052,0 0.75522,0.20597 0.34328,0.20597 0.58358,0.54925 0.2403,0.34328 0.36903,0.79813 0.12873,0.44627 0.12873,0.94403 z"
             style="font-family:Gotham;-inkscape-font-specification:Gotham;vector-effect:non-scaling-stroke;stroke-width:0.186441;stroke-dasharray:none;-inkscape-stroke:hairline"
             id="path2403" /><path
             d="m 210.01893,121.34319 q 0.2403,0 0.46343,0.0858 0.22314,0.0772 0.38619,0.23172 0.16306,0.14589 0.25747,0.36045 0.10298,0.20596 0.10298,0.47201 0,0.22313 -0.0687,0.43768 -0.0601,0.20597 -0.21455,0.4291 -0.14589,0.21455 -0.38619,0.46343 -0.2403,0.24888 -0.58358,0.55784 l -2.17984,1.92237 v 0.52351 h 4.19662 v -0.61791 h -3.18393 l 1.60484,-1.42462 q 0.39477,-0.34328 0.67798,-0.62649 0.28321,-0.29179 0.47201,-0.55783 0.18881,-0.27462 0.27463,-0.54925 0.0944,-0.27462 0.0944,-0.60932 0,-0.36903 -0.13731,-0.67799 -0.13732,-0.31753 -0.3862,-0.54066 -0.24888,-0.23172 -0.59216,-0.36045 -0.3347,-0.12873 -0.74663,-0.12873 -0.39478,0 -0.71231,0.0858 -0.30896,0.0858 -0.56642,0.24888 -0.24888,0.16306 -0.46343,0.40336 -0.21455,0.24029 -0.42052,0.54066 l 0.49776,0.36045 q 0.36045,-0.50634 0.72947,-0.7638 0.36903,-0.26605 0.88395,-0.26605 z"
             style="font-family:Gotham;-inkscape-font-specification:Gotham;vector-effect:non-scaling-stroke;stroke-width:0.186441;stroke-dasharray:none;-inkscape-stroke:hairline"
             id="path2405" /><path
             d="m 216.20659,121.42901 -1.89663,2.13693 0.13732,0.40336 h 0.38619 q 0.74663,0 1.21006,0.30037 0.47202,0.30037 0.47202,0.86679 0,0.26604 -0.10299,0.48917 -0.10298,0.21455 -0.2832,0.36903 -0.17165,0.15448 -0.41194,0.2403 -0.2403,0.0772 -0.51493,0.0772 -0.55783,0 -0.98693,-0.23172 -0.42052,-0.23171 -0.77238,-0.66082 l -0.48918,0.43769 q 0.36903,0.48059 0.92686,0.78096 0.55783,0.29179 1.31305,0.29179 0.42052,0 0.78097,-0.12873 0.36903,-0.13731 0.63507,-0.37761 0.27462,-0.2403 0.4291,-0.57499 0.16306,-0.3347 0.16306,-0.73806 0,-0.41194 -0.16306,-0.72089 -0.16306,-0.30895 -0.43768,-0.51492 -0.26605,-0.20597 -0.62649,-0.31754 -0.36045,-0.11157 -0.75522,-0.14589 l 1.88805,-2.09402 v -0.49776 h -3.83617 v 0.60932 z"
             style="font-family:Gotham;-inkscape-font-specification:Gotham;vector-effect:non-scaling-stroke;stroke-width:0.186441;stroke-dasharray:none;-inkscape-stroke:hairline"
             id="path2407" /></g></g><path
         id="rect4463"
         style="vector-effect:non-scaling-stroke;fill:none;stroke:#ff0000;stroke-width:0.264583;stroke-dasharray:none;-inkscape-stroke:hairline"
         d="M 115.12546,59.300968 H 281.24098 V 208.87032 H 115.12546 Z" /></g></g></svg>
