<?xml version="1.0" encoding="UTF-8" standalone="no"?>
<!-- Created with Inkscape (http://www.inkscape.org/) -->

<svg
   width="210mm"
   height="297mm"
   viewBox="0 0 210 297"
   version="1.1"
   id="svg222"
   inkscape:version="1.2 (dc2aedaf03, 2022-05-15)"
   sodipodi:docname="Návrh na trika- Poslední zvonění.svg"
   xml:space="preserve"
   inkscape:export-filename="Návrh na trika- Poslední zvonění.svg"
   inkscape:export-xdpi="96"
   inkscape:export-ydpi="96"
   xmlns:inkscape="http://www.inkscape.org/namespaces/inkscape"
   xmlns:sodipodi="http://sodipodi.sourceforge.net/DTD/sodipodi-0.dtd"
   xmlns="http://www.w3.org/2000/svg"
   xmlns:svg="http://www.w3.org/2000/svg"><sodipodi:namedview
     id="namedview224"
     pagecolor="#ffffff"
     bordercolor="#000000"
     borderopacity="0.25"
     inkscape:showpageshadow="2"
     inkscape:pageopacity="0.0"
     inkscape:pagecheckerboard="0"
     inkscape:deskcolor="#d1d1d1"
     inkscape:document-units="mm"
     showgrid="false"
     inkscape:zoom="0.25"
     inkscape:cx="-980"
     inkscape:cy="328"
     inkscape:window-width="1920"
     inkscape:window-height="1017"
     inkscape:window-x="-8"
     inkscape:window-y="-8"
     inkscape:window-maximized="1"
     inkscape:current-layer="text295"
     showguides="false" /><defs
     id="defs219"><rect
       x="-1194.9205"
       y="-65.107849"
       width="538.09723"
       height="965.12812"
       id="rect297" /><rect
       x="984.27749"
       y="467.24457"
       width="19.149367"
       height="53.618229"
       id="rect291" /><rect
       x="304.47494"
       y="201.06836"
       width="170.42937"
       height="164.68456"
       id="rect285" /><rect
       x="247.79385"
       y="807.0226"
       width="190.92313"
       height="211.2341"
       id="rect1392" /><rect
       x="280.53823"
       y="447.13773"
       width="160.85469"
       height="151.28"
       id="rect1224" /><rect
       x="194.36608"
       y="447.13773"
       width="230.74988"
       height="215.43038"
       id="rect1166" /><rect
       x="190.53621"
       y="394.47697"
       width="160.85469"
       height="211.60051"
       id="rect1160" /></defs><g
     inkscape:label="Vrstva 1"
     inkscape:groupmode="layer"
     id="layer1"><path
       id="path234"
       style="vector-effect:non-scaling-stroke;fill:none;fill-opacity:1;stroke:#0000ff;stroke-width:0.5384;stroke-opacity:1;-inkscape-stroke:hairline;opacity:1"
       d="M 190.30266,92.101608 A 81.908926,81.908926 0 0 1 108.39376,174.01053 81.908926,81.908926 0 0 1 26.484851,92.101608 81.908926,81.908926 0 0 1 108.39376,10.19268 a 81.908926,81.908926 0 0 1 81.9089,81.908928 z"
       inkscape:export-filename="path234.svg"
       inkscape:export-xdpi="96"
       inkscape:export-ydpi="96" /><g
       aria-label="Be Lyceum."
       transform="matrix(0.2157371,0,0,0.2157371,-2.38312,-43.03374)"
       id="text4285"
       style="font-size:96px;font-family:'Microsoft PhagsPa';-inkscape-font-specification:'Microsoft PhagsPa';white-space:pre;shape-inside:url(#rect4287);fill:#ffffff;fill-opacity:1;stroke:#000000" /><text
       xml:space="preserve"
       transform="scale(0.26458333)"
       id="text1164"
       style="white-space:pre;shape-inside:url(#rect1166);display:inline;opacity:0;fill:#000000" /><g
       aria-label="Be "
       transform="matrix(3.3021316,0,0,3.3021316,-1084.0899,-1458.1002)"
       id="text1222"
       style="text-align:center;letter-spacing:0px;word-spacing:0px;text-anchor:middle;white-space:pre;shape-inside:url(#rect1224);display:inline;opacity:1;vector-effect:non-scaling-stroke;stroke:#0000ff;stroke-width:0.410785;-inkscape-stroke:hairline;stroke-opacity:1"><path
         d="m 355.04199,458.08664 v -8.53125 h 2.78906 q 1.38868,0 2.08594,0.57421 0.70313,0.57422 0.70313,1.69922 0,0.59766 -0.33985,1.06055 -0.33984,0.45703 -0.92578,0.70898 0.69141,0.19336 1.08985,0.73829 0.40429,0.53906 0.40429,1.28906 0,1.14844 -0.74414,1.80469 -0.74414,0.65625 -2.10351,0.65625 z m 1.125,-3.99024 v 3.07031 h 1.85742 q 0.78516,0 1.23633,-0.40429 0.45703,-0.41016 0.45703,-1.125 0,-1.54102 -1.67578,-1.54102 z m 0,-0.90234 h 1.69922 q 0.73828,0 1.17774,-0.36914 0.44531,-0.36914 0.44531,-1.00196 0,-0.70312 -0.41016,-1.01953 -0.41015,-0.32226 -1.24805,-0.32226 h -1.66406 z"
         style="font-family:Roboto;-inkscape-font-specification:Roboto;vector-effect:non-scaling-stroke;fill:none;stroke:#0000ff;stroke-opacity:1;-inkscape-stroke:hairline;stroke-width:0.08012501;stroke-dasharray:none"
         id="path1450" /><path
         d="m 364.97363,458.20382 q -1.28906,0 -2.09765,-0.84375 -0.8086,-0.84961 -0.8086,-2.26757 v -0.19922 q 0,-0.94336 0.35742,-1.68164 0.36329,-0.74414 1.00782,-1.16016 0.65039,-0.42188 1.40625,-0.42188 1.23633,0 1.92187,0.81446 0.68555,0.81445 0.68555,2.33203 v 0.45117 h -4.29492 q 0.0234,0.9375 0.54492,1.51758 0.52734,0.57422 1.33594,0.57422 0.57422,0 0.97265,-0.23438 0.39844,-0.23437 0.69727,-0.62109 l 0.66211,0.51562 q -0.79688,1.22461 -2.39063,1.22461 z m -0.13476,-5.68359 q -0.65625,0 -1.10157,0.48047 -0.44531,0.47461 -0.55078,1.33594 h 3.17578 v -0.082 q -0.0469,-0.82617 -0.44531,-1.27734 -0.39844,-0.45703 -1.07812,-0.45703 z"
         style="font-family:Roboto;-inkscape-font-specification:Roboto;vector-effect:non-scaling-stroke;fill:none;stroke:#0000ff;stroke-opacity:1;-inkscape-stroke:hairline;stroke-width:0.08012501;stroke-dasharray:none"
         id="path1452" /></g><path
       id="path1336"
       style="opacity:1;vector-effect:non-scaling-stroke;fill:none;stroke:#0000ff;stroke-width:0.264583;-inkscape-stroke:hairline;stroke-opacity:1"
       d="m 140.87334,238.82027 a 45,45 0 0 1 -45.000003,45 45,45 0 0 1 -45,-45 45,45 0 0 1 45,-45 45,45 0 0 1 45.000003,45 z" /><g
       aria-label="L4"
       transform="matrix(4.6350502,0,0,4.6350502,-1496.354,-3534.3671)"
       id="text1390"
       style="font-family:Ubuntu;-inkscape-font-specification:Ubuntu;text-align:center;white-space:pre;shape-inside:url(#rect1392);display:inline;opacity:1;vector-effect:non-scaling-stroke;fill:none;stroke:#0000ff;stroke-width:0.0570832;-inkscape-stroke:hairline;stroke-opacity:1"><path
         d="m 338.77832,817.29342 h 4.04297 v 0.91992 h -5.17383 v -8.53125 h 1.13086 z"
         style="font-family:roboto;-inkscape-font-specification:roboto;vector-effect:non-scaling-stroke;stroke:#0000ff;stroke-opacity:1;-inkscape-stroke:hairline;stroke-width:0.05708316;stroke-dasharray:none"
         id="path1456" /><path
         d="m 348.39941,815.34811 h 1.1836 v 0.88477 h -1.1836 v 1.98046 h -1.08984 v -1.98046 h -3.88477 v -0.63868 l 3.82032,-5.91211 h 1.15429 z m -3.74414,0 h 2.6543 v -4.18359 l -0.12891,0.23437 z"
         style="font-family:roboto;-inkscape-font-specification:roboto;vector-effect:non-scaling-stroke;stroke:#0000ff;stroke-opacity:1;-inkscape-stroke:hairline;stroke-width:0.05708316;stroke-dasharray:none"
         id="path1458" /></g><text
       xml:space="preserve"
       transform="scale(0.26458333)"
       id="text283"
       style="font-style:normal;font-variant:normal;font-weight:normal;font-stretch:normal;font-family:roboto;-inkscape-font-specification:roboto;text-align:center;white-space:pre;shape-inside:url(#rect285);display:inline;vector-effect:non-scaling-stroke;fill:none;stroke:#1022ff;-inkscape-stroke:hairline" /><text
       xml:space="preserve"
       transform="scale(0.26458333)"
       id="text289"
       style="font-style:normal;font-variant:normal;font-weight:normal;font-stretch:normal;font-family:roboto;-inkscape-font-specification:roboto;text-align:center;writing-mode:lr-tb;direction:ltr;white-space:pre;shape-inside:url(#rect291);display:inline;vector-effect:non-scaling-stroke;fill:none;stroke:#1022ff;-inkscape-stroke:hairline"><tspan
         x="984.27734"
         y="531.36328"
         id="tspan29249"><tspan
           dx="0 5.6777344 5.6015625 6.28125 6.3574219 6.6152344 10.517578"
           id="tspan29247">Lyceum.</tspan></tspan></text><g
       aria-label="Lyceum."
       transform="matrix(3.463431,0,0,3.463431,3318.1409,277.46428)"
       id="text295"
       style="font-family:roboto;-inkscape-font-specification:roboto;text-align:center;text-anchor:middle;white-space:pre;shape-inside:url(#rect297);vector-effect:non-scaling-stroke;fill:none;stroke:#0000ff;stroke-width:0.0763934;-inkscape-stroke:hairline;stroke-opacity:1;opacity:1"><path
         d="m -945.85547,-55.527344 h 4.04297 v 0.919922 h -5.17383 v -8.53125 h 1.13086 z"
         style="vector-effect:non-scaling-stroke;stroke:#0000ff;stroke-opacity:1;-inkscape-stroke:hairline;stroke-width:0.07639342;stroke-dasharray:none"
         id="path1461" /><path
         d="m -939.4043,-56.195312 1.47657,-4.751954 h 1.16015 l -2.54883,7.31836 q -0.59179,1.582031 -1.88086,1.582031 l -0.20507,-0.01758 -0.4043,-0.07617 v -0.878906 l 0.29297,0.02344 q 0.55078,0 0.85547,-0.222656 0.31054,-0.222656 0.50976,-0.814453 l 0.24024,-0.644531 -2.26172,-6.269532 h 1.18359 z"
         style="vector-effect:non-scaling-stroke;stroke:#0000ff;stroke-opacity:1;-inkscape-stroke:hairline;stroke-width:0.07639342;stroke-dasharray:none"
         id="path1463" /><path
         d="m -933.33398,-55.375 q 0.58007,0 1.01367,-0.351562 0.43359,-0.351563 0.48047,-0.878907 h 1.02539 q -0.0293,0.544922 -0.375,1.03711 -0.34571,0.492187 -0.92578,0.785156 -0.57422,0.292969 -1.21875,0.292969 -1.29493,0 -2.0625,-0.861328 -0.76172,-0.867188 -0.76172,-2.367188 v -0.181641 q 0,-0.925781 0.33984,-1.646484 0.33984,-0.720703 0.97266,-1.119141 0.63867,-0.398437 1.50586,-0.398437 1.0664,0 1.76953,0.638672 0.70898,0.638672 0.75586,1.658203 h -1.02539 q -0.0469,-0.615234 -0.46875,-1.007813 -0.41602,-0.398437 -1.03125,-0.398437 -0.82618,0 -1.28321,0.597656 -0.45117,0.591797 -0.45117,1.716797 v 0.205078 q 0,1.095703 0.45117,1.6875 0.45118,0.591797 1.28907,0.591797 z"
         style="vector-effect:non-scaling-stroke;stroke:#0000ff;stroke-opacity:1;-inkscape-stroke:hairline;stroke-width:0.07639342;stroke-dasharray:none"
         id="path1465" /><path
         d="m -926.96484,-54.490234 q -1.28907,0 -2.09766,-0.84375 -0.80859,-0.84961 -0.80859,-2.267578 v -0.199219 q 0,-0.94336 0.35742,-1.681641 0.36328,-0.74414 1.00781,-1.160156 0.65039,-0.421875 1.40625,-0.421875 1.23633,0 1.92188,0.814453 0.68554,0.814453 0.68554,2.332031 v 0.451172 h -4.29492 q 0.0234,0.9375 0.54492,1.517578 0.52735,0.574219 1.33594,0.574219 0.57422,0 0.97266,-0.234375 0.39843,-0.234375 0.69726,-0.621094 l 0.66211,0.515625 q -0.79687,1.22461 -2.39062,1.22461 z m -0.13477,-5.683594 q -0.65625,0 -1.10156,0.480469 -0.44531,0.474609 -0.55078,1.335937 h 3.17578 v -0.08203 q -0.0469,-0.826172 -0.44531,-1.277344 -0.39844,-0.457031 -1.07813,-0.457031 z"
         style="vector-effect:non-scaling-stroke;stroke:#0000ff;stroke-opacity:1;-inkscape-stroke:hairline;stroke-width:0.07639342;stroke-dasharray:none"
         id="path1467" /><path
         d="m -919.32422,-55.234375 q -0.63281,0.744141 -1.85742,0.744141 -1.01367,0 -1.54688,-0.585938 -0.52734,-0.591797 -0.5332,-1.746094 v -4.125 h 1.08399 v 4.095704 q 0,1.441406 1.17187,1.441406 1.24219,0 1.65234,-0.925781 v -4.611329 h 1.08399 v 6.339844 h -1.03125 z"
         style="vector-effect:non-scaling-stroke;stroke:#0000ff;stroke-opacity:1;-inkscape-stroke:hairline;stroke-width:0.07639342;stroke-dasharray:none"
         id="path1469" /><path
         d="m -915.60352,-60.947266 0.0293,0.703125 q 0.69727,-0.820312 1.88086,-0.820312 1.33008,0 1.81055,1.019531 0.3164,-0.457031 0.82031,-0.738281 0.50977,-0.28125 1.20117,-0.28125 2.08594,0 2.1211,2.208984 v 4.248047 h -1.08399 v -4.183594 q 0,-0.679687 -0.31055,-1.013671 -0.31054,-0.339844 -1.04296,-0.339844 -0.60352,0 -1.00196,0.363281 -0.39843,0.357422 -0.46289,0.966797 v 4.207031 h -1.08984 v -4.154297 q 0,-1.382812 -1.35352,-1.382812 -1.0664,0 -1.45898,0.908203 v 4.628906 h -1.08399 v -6.339844 z"
         style="vector-effect:non-scaling-stroke;stroke:#0000ff;stroke-opacity:1;-inkscape-stroke:hairline;stroke-width:0.07639342;stroke-dasharray:none"
         id="path1471" /><path
         d="m -906.08203,-55.175781 q 0,-0.28125 0.16406,-0.46875 0.16992,-0.1875 0.50391,-0.1875 0.33398,0 0.5039,0.1875 0.17579,0.1875 0.17579,0.46875 0,0.269531 -0.17579,0.451172 -0.16992,0.18164 -0.5039,0.18164 -0.33399,0 -0.50391,-0.18164 -0.16406,-0.181641 -0.16406,-0.451172 z"
         style="stroke:#0000ff;stroke-opacity:1;vector-effect:non-scaling-stroke;-inkscape-stroke:hairline;stroke-width:0.07639342;stroke-dasharray:none"
         id="path1473" /></g><g
       id="g1390"
       transform="matrix(0.966637 0 0 0.966637 101.741 -65.9015)" /><path
       style="opacity:1;vector-effect:non-scaling-stroke;fill:none;stroke:#0000ff;stroke-width:0.0794349;stroke-dasharray:none;stroke-opacity:1;-inkscape-stroke:hairline"
       d="m 77.885982,160.72549 c -4.0238,-0.36176 -7.3625,-3.3496 -8.24648,-7.37987 -0.14218,-0.64822 -0.1481,-1.42421 -0.1481,-19.42182 v -18.74662 l 0.21428,-0.84297 c 0.807,-3.17479 3.06924,-5.6522 6.08347,-6.66206 0.86198,-0.28879 1.92404,-0.47817 2.68161,-0.47817 h 0.57817 l 0.0294,-1.56884 c 0.0275,-1.46793 0.0418,-1.59417 0.22229,-1.96266 0.72625,-1.48306 2.57262,-1.88339 3.88659,-0.84271 0.16414,0.13 0.42045,0.4614 0.56959,0.73644 l 0.27116,0.50009 0.027,1.56884 0.027,1.56884 h 3.2495 3.2495 l 2.18685,-4.37314 c 2.36887,-4.737078 2.46717,-4.895658 3.2832,-5.296405 l 0.44813,-0.220067 h 12.193248 12.19324 l 0.45471,0.223287 c 0.25009,0.12282 0.57581,0.364777 0.72382,0.537697 0.1577,0.18422 1.15961,2.131048 2.41965,4.701648 l 2.15053,4.38726 6.41952,0.0432 c 6.24437,0.0421 6.43703,0.0479 7.06116,0.21397 1.86059,0.49511 3.18074,1.24205 4.44526,2.5151 1.47358,1.48353 2.36187,3.26668 2.65523,5.33005 0.0506,0.35575 0.0795,7.13689 0.0803,18.82605 9.6e-4,19.67471 0.0168,18.89263 -0.4003,20.26047 -0.24682,0.80939 -0.82708,1.95147 -1.34355,2.64441 -1.38072,1.85249 -3.27108,3.06712 -5.60199,3.59947 l -0.79434,0.18143 -30.26467,0.0117 c -16.645558,0.007 -30.597858,-0.0181 -31.005088,-0.0548 z m 29.456108,-9.7741 c -4.08607,-0.20947 -8.080945,-2.01513 -11.041428,-4.99066 -6.56446,-6.5978 -6.68947,-17.1783 -0.28238,-23.89899 3.622063,-3.79935 8.828598,-5.75349 13.990938,-5.25115 6.76339,0.65815 12.51401,5.22636 14.643,11.63221 2.68896,8.09072 -0.9475,16.9072 -8.54815,20.72464 -2.7538,1.38309 -5.53512,1.94938 -8.76198,1.78395 z m 22.45897,-29.22353 c -0.81615,-0.20402 -1.55595,-0.89076 -1.77635,-1.6489 -0.32741,-1.12626 0.19743,-2.37606 1.21984,-2.90476 0.57981,-0.29984 1.60872,-0.29949 2.1893,5.5e-4 1.0223,0.52865 1.54563,1.77835 1.21745,2.90725 -0.16667,0.57332 -0.75735,1.23992 -1.30901,1.47724 -0.46365,0.19945 -1.12712,0.27196 -1.54123,0.16843 z"
       id="path1448"
       sodipodi:nodetypes="ssscssscsssscccccsscccssscsssssssscsssssssssscsscsscc" /><path
       style="vector-effect:non-scaling-stroke;fill:none;stroke:#0000ff;stroke-width:0.0794349;stroke-dasharray:none;stroke-opacity:1;-inkscape-stroke:hairline"
       d="m -92.62121,141.31663 c -4.0238,-0.36176 -7.3625,-3.3496 -8.24648,-7.37987 -0.14218,-0.64822 -0.1481,-1.42421 -0.1481,-19.42181 V 95.768335 l 0.21428,-0.84297 c 0.807,-3.17479 3.06924,-5.6522 6.08347,-6.66206 0.86198,-0.28879 1.92404,-0.47817 2.68161,-0.47817 h 0.57817 l 0.0294,-1.56884 c 0.0275,-1.46793 0.0418,-1.59417 0.22229,-1.96266 0.72625,-1.48306 2.57262,-1.88339 3.88659,-0.84271 0.16414,0.13 0.42045,0.4614 0.56959,0.73644 l 0.27116,0.50009 0.027,1.56884 0.027,1.56884 h 3.2495 3.2495 l 2.18685,-4.37314 c 2.36887,-4.7371 2.46717,-4.89568 3.2832,-5.29643 l 0.44813,-0.22007 h 12.19325 12.19324 l 0.45471,0.22329 c 0.25009,0.12282 0.57581,0.36478 0.72382,0.5377 0.1577,0.18422 1.15961,2.13107 2.41965,4.70167 l 2.15053,4.38726 6.41952,0.0432 c 6.24437,0.0421 6.43703,0.0479 7.06116,0.21397 1.86059,0.49511 3.18074,1.24205 4.44526,2.5151 1.47358,1.48353 2.36187,3.26668 2.65523,5.33005 0.0506,0.35575 0.0795,7.136885 0.0803,18.826045 9.6e-4,19.6747 0.0168,18.89262 -0.4003,20.26046 -0.24682,0.80939 -0.82708,1.95147 -1.34355,2.64441 -1.38072,1.85249 -3.27108,3.06712 -5.60199,3.59947 l -0.79434,0.18143 -30.26467,0.0117 c -16.64556,0.007 -30.59786,-0.0181 -31.00509,-0.0548 z"
       id="path1448-8"
       sodipodi:nodetypes="ssscssscsssscccccsscccssscsssssssscsss" /><path
       style="vector-effect:non-scaling-stroke;fill:none;stroke:#1022ff;stroke-width:0.264583;-inkscape-stroke:hairline"
       d="m -46.66692,158.38809 -13.57563,9.71107 -13.21313,-9.73445 c 0,0 0.25131,-0.27301 0.42666,-0.38905 0.22221,-0.14706 0.76602,-0.40024 0.76602,-0.40024 l 24.38001,0.009 c 0,0 0.50625,0.25312 0.75119,0.39453 0.25964,0.14991 0.46488,0.40914 0.46488,0.40914 z"
       id="path443"
       sodipodi:nodetypes="cccsccsc" /><path
       style="vector-effect:non-scaling-stroke;fill:none;stroke:#1022ff;stroke-width:0.264583;-inkscape-stroke:hairline"
       d="m -40.69178,167.44435 -1.26285,11.50596 20.48621,9.16734 -0.0233,-12.51157 c 0,0 -0.35726,-2.76876 -2.15152,-4.77075 -2.61548,-2.91829 -5.58927,-3.29743 -5.58927,-3.29743 z"
       id="path445"
       sodipodi:nodetypes="ccccscc" /><path
       style="vector-effect:non-scaling-stroke;fill:none;stroke:#1022ff;stroke-width:0.264583;-inkscape-stroke:hairline"
       d="m -21.40444,191.14215 v 21.3651 c 0,0 -0.22202,3.12342 -2.38125,5.42396 -3.04837,3.24788 -5.88698,3.04271 -5.88698,3.04271 h -10.25261 l -2.18281,-20.76979 z"
       id="path447"
       sodipodi:nodetypes="ccscccc" /><path
       style="vector-effect:non-scaling-stroke;fill:none;stroke:#1022ff;stroke-width:0.264583;-inkscape-stroke:hairline"
       d="m -75.18101,221.04007 h 28.77344 l -14.08906,-10.58334 z"
       id="path449" /><path
       style="vector-effect:non-scaling-stroke;fill:none;stroke:#1022ff;stroke-width:0.264583;-inkscape-stroke:hairline"
       d="m -81.33257,220.97392 h -10.31875 c 0,0 -3.1611,-0.77985 -5.22552,-2.84427 -1.17852,-1.17852 -2.3151,-4.43177 -2.3151,-4.43177 v -23.0849 l 20.37291,9.06198 z"
       id="path451"
       sodipodi:nodetypes="ccscccc" /><path
       style="vector-effect:non-scaling-stroke;fill:none;stroke:#1022ff;stroke-width:0.264583;-inkscape-stroke:hairline"
       d="m -79.74507,167.46194 -4.93864,0.006 -0.0554,-3.09816 c 0,0 -0.63319,-1.85401 -2.42418,-1.85401 -2.13115,0 -2.49783,2.05854 -2.49783,2.05854 l -0.0468,2.89363 c 0,0 -3.26815,-0.41214 -6.56539,2.41675 -2.36066,2.02535 -3.00964,5.58105 -3.00964,5.58105 l 0.0172,12.11271 20.66516,-9.00216 z"
       id="path453"
       sodipodi:nodetypes="cccsccscccc" /><g
       id="g679"
       transform="matrix(0.8773565,0,0,0.8773565,46.30885,-289.99399)"><path
         style="vector-effect:non-scaling-stroke;fill:none;stroke:#1022ff;stroke-width:0.264583;-inkscape-stroke:hairline"
         d="m -345.62768,429.99652 -9.84416,-0.003 c 0,0 -0.64417,0.25476 -0.97884,0.52102 -0.30139,0.23978 -0.67821,0.93543 -0.67821,0.93543 l -4.25625,8.46577 -6.50961,-0.0289 -0.0563,-3.13401 c 0,0 -0.63532,-1.82413 -2.43215,-1.82413 -2.11418,0 -2.46723,1.98339 -2.46723,1.98339 l -0.076,2.9686 c 0,0 -3.57553,-0.56379 -7.238,3.09868 -1.71069,1.71069 -2.3269,4.87015 -2.3269,4.87015 l 0.006,18.22945 26.85216,-7.01019 -6.92877,-10.63294 11.60859,6.76341 z"
         id="path661"
         sodipodi:nodetypes="ccsccccsccscccccc" /><path
         style="vector-effect:non-scaling-stroke;fill:none;stroke:#1022ff;stroke-width:0.264583;-inkscape-stroke:hairline"
         d="m -382.456,467.02008 28.531,5.94006 -7.67061,13.04943 11.55271,-7.48352 4.02241,14.9203 -28.34344,-0.0331 c 0,0 -2.8196,-0.12001 -5.65994,-2.96035 -1.75688,-1.75688 -2.38538,-4.63044 -2.38538,-4.63044 z"
         id="path665"
         sodipodi:nodetypes="ccccccscc" /><path
         style="vector-effect:non-scaling-stroke;fill:none;stroke:#1022ff;stroke-width:0.264583;-inkscape-stroke:hairline"
         d="m -336.61247,477.82615 -3.3027,15.67964 27.01231,-0.0578 c 0,0 3.28119,-0.42865 5.53144,-2.6789 3.07063,-3.07063 2.64583,-6.39135 2.64583,-6.39135 l 0.0331,-19.31458 -27.63366,7.22985 8.34388,12.88675 z"
         id="path667"
         sodipodi:nodetypes="cccsccccc" /><path
         style="vector-effect:non-scaling-stroke;fill:none;stroke:#1022ff;stroke-width:0.264583;-inkscape-stroke:hairline"
         d="m -343.2384,429.99835 12.15364,0.0157 c 0,0 0.49422,0.20991 0.71006,0.36581 0.46579,0.33645 0.57158,0.56023 0.57158,0.56023 l 4.44831,8.89661 12.8819,0.0992 c 0,0 2.92862,0.52365 5.0625,2.65753 2.31117,2.31117 2.64733,5.32308 2.64733,5.32308 l 0.0702,16.29709 -26.61502,-5.62457 6.46576,-11.1125 -11.71549,7.72336 z"
         id="path673"
         sodipodi:nodetypes="ccscccscccccc" /></g></g></svg>
