<?xml version="1.0" encoding="UTF-8" standalone="no"?>
<svg
   viewBox="0 0 1314.9402 925.98496"
   width="1314.9402"
   height="925.98492"
   version="1.1"
   id="svg12482"
   sodipodi:docname="RDY_TUŽKY.svg"
   xml:space="preserve"
   inkscape:version="1.2.1 (9c6d41e410, 2022-07-14)"
   xmlns:inkscape="http://www.inkscape.org/namespaces/inkscape"
   xmlns:sodipodi="http://sodipodi.sourceforge.net/DTD/sodipodi-0.dtd"
   xmlns="http://www.w3.org/2000/svg"
   xmlns:svg="http://www.w3.org/2000/svg"><sodipodi:namedview
     id="namedview12484"
     pagecolor="#ffffff"
     bordercolor="#000000"
     borderopacity="0.25"
     inkscape:showpageshadow="2"
     inkscape:pageopacity="0.0"
     inkscape:pagecheckerboard="0"
     inkscape:deskcolor="#d1d1d1"
     showgrid="false"
     inkscape:lockguides="false"
     inkscape:zoom="0.93198062"
     inkscape:cx="838.53675"
     inkscape:cy="1236.0772"
     inkscape:window-width="1920"
     inkscape:window-height="1017"
     inkscape:window-x="-8"
     inkscape:window-y="-8"
     inkscape:window-maximized="1"
     inkscape:current-layer="g12474" /><desc
     id="desc7623">Final_Drřák_Tužky.DXF - scale = 1.000000, origin = (0.000000, 0.000000), method = manual</desc><defs
     id="defs11728"><rect
       x="1076.9215"
       y="679.94916"
       width="131.43002"
       height="26.822453"
       id="rect15067" /></defs><g
     inkscape:groupmode="layer"
     inkscape:label="0"
     id="g11816"
     transform="translate(-30.929799,-107.61499)"><path
       style="vector-effect:non-scaling-stroke;fill:none;stroke:#0000ff;stroke-width:1;stroke-linecap:round;stroke-dasharray:none;stroke-opacity:1;-inkscape-stroke:hairline"
       d="m 1180.7,107.941 h 156.1"
       id="path11738" /><path
       style="vector-effect:non-scaling-stroke;fill:none;stroke:#0000ff;stroke-width:1;stroke-linecap:round;stroke-dasharray:none;stroke-opacity:1;-inkscape-stroke:hairline"
       d="M 1015.54,117.012 V 273.106"
       id="path11740" /><path
       style="vector-effect:non-scaling-stroke;fill:none;stroke:#0000ff;stroke-width:1;stroke-linecap:round;stroke-dasharray:none;stroke-opacity:1;-inkscape-stroke:hairline"
       d="M 1024.61,438.272 H 1180.7"
       id="path11742" /><path
       style="vector-effect:non-scaling-stroke;fill:none;stroke:#0000ff;stroke-width:1;stroke-linecap:round;stroke-dasharray:none;stroke-opacity:1;-inkscape-stroke:hairline"
       d="M 1345.87,273.106 V 429.201"
       id="path11744" /><path
       style="vector-effect:non-scaling-stroke;fill:none;stroke:#0000ff;stroke-width:1;stroke-linecap:round;stroke-dasharray:none;stroke-opacity:1;-inkscape-stroke:hairline"
       d="m 1015.54,273.106 h 9.07"
       id="path11746" /><path
       style="vector-effect:non-scaling-stroke;fill:none;stroke:#0000ff;stroke-width:1;stroke-linecap:round;stroke-dasharray:none;stroke-opacity:1;-inkscape-stroke:hairline"
       d="M 1024.61,273.106 V 438.272"
       id="path11748" /><path
       style="vector-effect:non-scaling-stroke;fill:none;stroke:#0000ff;stroke-width:1;stroke-linecap:round;stroke-dasharray:none;stroke-opacity:1;-inkscape-stroke:hairline"
       d="m 1180.7,438.272 v -9.071"
       id="path11750" /><path
       style="vector-effect:non-scaling-stroke;fill:none;stroke:#0000ff;stroke-width:1;stroke-linecap:round;stroke-dasharray:none;stroke-opacity:1;-inkscape-stroke:hairline"
       d="m 1180.7,429.201 h 165.17"
       id="path11752" /><path
       style="vector-effect:non-scaling-stroke;fill:none;stroke:#0000ff;stroke-width:1;stroke-linecap:round;stroke-dasharray:none;stroke-opacity:1;-inkscape-stroke:hairline"
       d="m 1345.87,273.106 h -9.07"
       id="path11754" /><path
       style="vector-effect:non-scaling-stroke;fill:none;stroke:#0000ff;stroke-width:1;stroke-linecap:round;stroke-dasharray:none;stroke-opacity:1;-inkscape-stroke:hairline"
       d="M 1336.8,273.106 V 107.941"
       id="path11756" /><path
       style="vector-effect:non-scaling-stroke;fill:none;stroke:#0000ff;stroke-width:1;stroke-linecap:round;stroke-dasharray:none;stroke-opacity:1;-inkscape-stroke:hairline"
       d="m 1180.7,107.941 v 9.071"
       id="path11758" /><path
       style="vector-effect:non-scaling-stroke;fill:none;stroke:#0000ff;stroke-width:1;stroke-linecap:round;stroke-dasharray:none;stroke-opacity:1;-inkscape-stroke:hairline"
       d="M 1180.7,117.012 H 1015.54"
       id="path11760" /></g><g
     inkscape:groupmode="layer"
     inkscape:label="1_-_SILNA"
     id="g12088"
     transform="translate(-30.929799,-107.61499)"><path
       style="vector-effect:non-scaling-stroke;fill:none;stroke:#0000ff;stroke-width:1;stroke-dasharray:none;stroke-opacity:1;-inkscape-stroke:hairline"
       d="M 40.0007,399.017 V 533.19"
       id="path11858" /><path
       style="vector-effect:non-scaling-stroke;fill:none;stroke:#0000ff;stroke-width:1;stroke-dasharray:none;stroke-opacity:1;-inkscape-stroke:hairline"
       d="M 40.0007,107.615 H 181.733"
       id="path11860" /><path
       style="vector-effect:non-scaling-stroke;fill:none;stroke:#0000ff;stroke-width:1;stroke-dasharray:none;stroke-opacity:1;-inkscape-stroke:hairline"
       d="m 40.0007,107.615 v 140.22"
       id="path11862" /><path
       style="vector-effect:non-scaling-stroke;fill:none;stroke:#0000ff;stroke-width:1;stroke-dasharray:none;stroke-opacity:1;-inkscape-stroke:hairline"
       d="m 196.851,542.261 h 164.41"
       id="path11864" /><path
       style="vector-effect:non-scaling-stroke;fill:none;stroke:#0000ff;stroke-width:1;stroke-dasharray:none;stroke-opacity:1;-inkscape-stroke:hairline"
       d="m 361.261,107.615 v 140.22"
       id="path11866" /><path
       style="vector-effect:non-scaling-stroke;fill:none;stroke:#0000ff;stroke-width:1;stroke-dasharray:none;stroke-opacity:1;-inkscape-stroke:hairline"
       d="m 635.276,116.686 h 37.796"
       id="path11868" /><path
       style="vector-effect:non-scaling-stroke;fill:none;stroke:#0000ff;stroke-width:1;stroke-dasharray:none;stroke-opacity:1;-inkscape-stroke:hairline"
       d="m 181.733,107.615 v 9.071"
       id="path11870" /><path
       style="vector-effect:non-scaling-stroke;fill:none;stroke:#0000ff;stroke-width:1;stroke-dasharray:none;stroke-opacity:1;-inkscape-stroke:hairline"
       d="m 181.733,116.686 h 37.795"
       id="path11872" /><path
       style="vector-effect:non-scaling-stroke;fill:none;stroke:#0000ff;stroke-width:1;stroke-dasharray:none;stroke-opacity:1;-inkscape-stroke:hairline"
       d="m 219.528,107.615 v 9.071"
       id="path11874" /><path
       style="vector-effect:non-scaling-stroke;fill:none;stroke:#0000ff;stroke-width:1;stroke-dasharray:none;stroke-opacity:1;-inkscape-stroke:hairline"
       d="M 40.0007,533.19 H 196.851"
       id="path11876" /><path
       style="vector-effect:non-scaling-stroke;fill:none;stroke:#0000ff;stroke-width:1;stroke-dasharray:none;stroke-opacity:1;-inkscape-stroke:hairline"
       d="M 673.072,107.615 H 814.804"
       id="path11878" /><path
       style="vector-effect:non-scaling-stroke;fill:none;stroke:#0000ff;stroke-width:1;stroke-dasharray:none;stroke-opacity:1;-inkscape-stroke:hairline"
       d="m 673.072,107.615 v 9.071"
       id="path11880" /><path
       style="vector-effect:non-scaling-stroke;fill:none;stroke:#0000ff;stroke-width:1;stroke-dasharray:none;stroke-opacity:1;-inkscape-stroke:hairline"
       d="m 196.851,533.19 v 9.071"
       id="path11882" /><path
       style="vector-effect:non-scaling-stroke;fill:none;stroke:#0000ff;stroke-width:1;stroke-dasharray:none;stroke-opacity:1;-inkscape-stroke:hairline"
       d="M 40.0007,247.835 H 30.9298"
       id="path11884" /><path
       style="vector-effect:non-scaling-stroke;fill:none;stroke:#0000ff;stroke-width:1;stroke-dasharray:none;stroke-opacity:1;-inkscape-stroke:hairline"
       d="M 361.261,399.017 V 542.261"
       id="path11886" /><path
       style="vector-effect:non-scaling-stroke;fill:none;stroke:#0000ff;stroke-width:1;stroke-dasharray:none;stroke-opacity:1;-inkscape-stroke:hairline"
       d="M 40.0007,399.017 H 30.9298"
       id="path11888" /><path
       style="vector-effect:non-scaling-stroke;fill:none;stroke:#0000ff;stroke-width:1;stroke-dasharray:none;stroke-opacity:1;-inkscape-stroke:hairline"
       d="M 30.9298,247.835 V 399.017"
       id="path11890" /><path
       style="vector-effect:non-scaling-stroke;fill:none;stroke:#0000ff;stroke-width:1;stroke-dasharray:none;stroke-opacity:1;-inkscape-stroke:hairline"
       d="M 361.261,247.835 H 352.19"
       id="path11892" /><path
       style="vector-effect:non-scaling-stroke;fill:none;stroke:#0000ff;stroke-width:1;stroke-dasharray:none;stroke-opacity:1;-inkscape-stroke:hairline"
       d="M 219.528,107.615 H 361.261"
       id="path11894" /><path
       style="vector-effect:non-scaling-stroke;fill:none;stroke:#0000ff;stroke-width:1;stroke-dasharray:none;stroke-opacity:1;-inkscape-stroke:hairline"
       d="M 361.261,399.017 H 352.19"
       id="path11896" /><path
       style="vector-effect:non-scaling-stroke;fill:none;stroke:#0000ff;stroke-width:1;stroke-dasharray:none;stroke-opacity:1;-inkscape-stroke:hairline"
       d="M 352.19,247.835 V 399.017"
       id="path11898" /><path
       style="vector-effect:non-scaling-stroke;fill:none;stroke:#0000ff;stroke-width:1;stroke-dasharray:none;stroke-opacity:1;-inkscape-stroke:hairline"
       d="m 635.276,107.615 v 9.071"
       id="path11900" /><path
       style="vector-effect:non-scaling-stroke;fill:none;stroke:#0000ff;stroke-width:1;stroke-dasharray:none;stroke-opacity:1;-inkscape-stroke:hairline"
       d="M 493.544,107.615 H 635.276"
       id="path11902" /><path
       style="vector-effect:non-scaling-stroke;fill:none;stroke:#0000ff;stroke-width:1;stroke-dasharray:none;stroke-opacity:1;-inkscape-stroke:hairline"
       d="m 493.544,107.615 v 140.22"
       id="path11904" /><path
       style="vector-effect:non-scaling-stroke;fill:none;stroke:#0000ff;stroke-width:1;stroke-dasharray:none;stroke-opacity:1;-inkscape-stroke:hairline"
       d="m 493.544,247.835 h -9.071"
       id="path11906" /><path
       style="vector-effect:non-scaling-stroke;fill:none;stroke:#0000ff;stroke-width:1;stroke-dasharray:none;stroke-opacity:1;-inkscape-stroke:hairline"
       d="M 484.473,247.835 V 399.017"
       id="path11908" /><path
       style="vector-effect:non-scaling-stroke;fill:none;stroke:#0000ff;stroke-width:1;stroke-dasharray:none;stroke-opacity:1;-inkscape-stroke:hairline"
       d="m 493.544,399.017 h -9.071"
       id="path11910" /><path
       style="vector-effect:non-scaling-stroke;fill:none;stroke:#0000ff;stroke-width:1;stroke-dasharray:none;stroke-opacity:1;-inkscape-stroke:hairline"
       d="M 493.544,399.017 V 533.19"
       id="path11912" /><path
       style="vector-effect:non-scaling-stroke;fill:none;stroke:#0000ff;stroke-width:1;stroke-dasharray:none;stroke-opacity:1;-inkscape-stroke:hairline"
       d="m 493.544,533.19 h 156.85"
       id="path11914" /><path
       style="vector-effect:non-scaling-stroke;fill:none;stroke:#0000ff;stroke-width:1;stroke-dasharray:none;stroke-opacity:1;-inkscape-stroke:hairline"
       d="m 650.394,533.19 v 9.071"
       id="path11916" /><path
       style="vector-effect:non-scaling-stroke;fill:none;stroke:#0000ff;stroke-width:1;stroke-dasharray:none;stroke-opacity:1;-inkscape-stroke:hairline"
       d="m 650.394,542.261 h 164.41"
       id="path11918" /><path
       style="vector-effect:non-scaling-stroke;fill:none;stroke:#0000ff;stroke-width:1;stroke-dasharray:none;stroke-opacity:1;-inkscape-stroke:hairline"
       d="M 814.804,399.017 V 542.261"
       id="path11920" /><path
       style="vector-effect:non-scaling-stroke;fill:none;stroke:#0000ff;stroke-width:1;stroke-dasharray:none;stroke-opacity:1;-inkscape-stroke:hairline"
       d="m 814.804,399.017 h -9.071"
       id="path11922" /><path
       style="vector-effect:non-scaling-stroke;fill:none;stroke:#0000ff;stroke-width:1;stroke-dasharray:none;stroke-opacity:1;-inkscape-stroke:hairline"
       d="M 805.733,247.835 V 399.017"
       id="path11924" /><path
       style="vector-effect:non-scaling-stroke;fill:none;stroke:#0000ff;stroke-width:1;stroke-dasharray:none;stroke-opacity:1;-inkscape-stroke:hairline"
       d="m 814.804,247.835 h -9.071"
       id="path11926" /><path
       style="vector-effect:non-scaling-stroke;fill:none;stroke:#0000ff;stroke-width:1;stroke-dasharray:none;stroke-opacity:1;-inkscape-stroke:hairline"
       d="m 814.804,107.615 v 140.22"
       id="path11928" /><path
       style="vector-effect:non-scaling-stroke;fill:none;stroke:#0000ff;stroke-width:1;stroke-dasharray:none;stroke-opacity:1;-inkscape-stroke:hairline"
       d="m 635.276,608.024 h 37.796"
       id="path11930" /><path
       style="vector-effect:non-scaling-stroke;fill:none;stroke:#0000ff;stroke-width:1;stroke-dasharray:none;stroke-opacity:1;-inkscape-stroke:hairline"
       d="M 673.072,598.954 H 814.804"
       id="path11932" /><path
       style="vector-effect:non-scaling-stroke;fill:none;stroke:#0000ff;stroke-width:1;stroke-dasharray:none;stroke-opacity:1;-inkscape-stroke:hairline"
       d="m 673.072,598.954 v 9.07"
       id="path11934" /><path
       style="vector-effect:non-scaling-stroke;fill:none;stroke:#0000ff;stroke-width:1;stroke-dasharray:none;stroke-opacity:1;-inkscape-stroke:hairline"
       d="m 635.276,598.954 v 9.07"
       id="path11936" /><path
       style="vector-effect:non-scaling-stroke;fill:none;stroke:#0000ff;stroke-width:1;stroke-dasharray:none;stroke-opacity:1;-inkscape-stroke:hairline"
       d="M 493.544,598.954 H 635.276"
       id="path11938" /><path
       style="vector-effect:non-scaling-stroke;fill:none;stroke:#0000ff;stroke-width:1;stroke-dasharray:none;stroke-opacity:1;-inkscape-stroke:hairline"
       d="m 493.544,598.954 v 140.22"
       id="path11940" /><path
       style="vector-effect:non-scaling-stroke;fill:none;stroke:#0000ff;stroke-width:1;stroke-dasharray:none;stroke-opacity:1;-inkscape-stroke:hairline"
       d="m 493.544,739.174 h -9.071"
       id="path11942" /><path
       style="vector-effect:non-scaling-stroke;fill:none;stroke:#0000ff;stroke-width:1;stroke-dasharray:none;stroke-opacity:1;-inkscape-stroke:hairline"
       d="M 484.473,739.174 V 890.355"
       id="path11944" /><path
       style="vector-effect:non-scaling-stroke;fill:none;stroke:#0000ff;stroke-width:1;stroke-dasharray:none;stroke-opacity:1;-inkscape-stroke:hairline"
       d="m 493.544,890.355 h -9.071"
       id="path11946" /><path
       style="vector-effect:non-scaling-stroke;fill:none;stroke:#0000ff;stroke-width:1;stroke-dasharray:none;stroke-opacity:1;-inkscape-stroke:hairline"
       d="M 493.544,890.355 V 1024.53"
       id="path11948" /><path
       style="vector-effect:non-scaling-stroke;fill:none;stroke:#0000ff;stroke-width:1;stroke-dasharray:none;stroke-opacity:1;-inkscape-stroke:hairline"
       d="m 493.544,1024.53 h 156.85"
       id="path11950" /><path
       style="vector-effect:non-scaling-stroke;fill:none;stroke:#0000ff;stroke-width:1;stroke-dasharray:none;stroke-opacity:1;-inkscape-stroke:hairline"
       d="m 650.394,1024.53 v 9.07"
       id="path11952" /><path
       style="vector-effect:non-scaling-stroke;fill:none;stroke:#0000ff;stroke-width:1;stroke-dasharray:none;stroke-opacity:1;-inkscape-stroke:hairline"
       d="M 814.804,890.355 V 1033.6"
       id="path11956" /><path
       style="vector-effect:non-scaling-stroke;fill:none;stroke:#0000ff;stroke-width:1;stroke-dasharray:none;stroke-opacity:1;-inkscape-stroke:hairline"
       d="m 814.804,890.355 h -9.071"
       id="path11958" /><path
       style="vector-effect:non-scaling-stroke;fill:none;stroke:#0000ff;stroke-width:1;stroke-dasharray:none;stroke-opacity:1;-inkscape-stroke:hairline"
       d="M 805.733,739.174 V 890.355"
       id="path11960" /><path
       style="vector-effect:non-scaling-stroke;fill:none;stroke:#0000ff;stroke-width:1;stroke-dasharray:none;stroke-opacity:1;-inkscape-stroke:hairline"
       d="m 814.804,739.174 h -9.071"
       id="path11962" /><path
       style="vector-effect:non-scaling-stroke;fill:none;stroke:#0000ff;stroke-width:1;stroke-dasharray:none;stroke-opacity:1;-inkscape-stroke:hairline"
       d="m 814.804,598.954 v 140.22"
       id="path11964" /><g
       id="g15011"
       style="vector-effect:non-scaling-stroke;stroke-width:1;stroke-dasharray:none;-inkscape-stroke:hairline"><path
         style="vector-effect:non-scaling-stroke;fill:none;stroke:#0000ff;stroke-width:1;stroke-dasharray:none;stroke-opacity:1;-inkscape-stroke:hairline"
         d="m 181.733,608.024 h 37.795"
         id="path11966" /><path
         style="vector-effect:non-scaling-stroke;fill:none;stroke:#0000ff;stroke-width:1;stroke-dasharray:none;stroke-opacity:1;-inkscape-stroke:hairline"
         d="M 219.528,598.954 H 361.261"
         id="path11968" /><path
         style="vector-effect:non-scaling-stroke;fill:none;stroke:#0000ff;stroke-width:1;stroke-dasharray:none;stroke-opacity:1;-inkscape-stroke:hairline"
         d="m 219.528,598.954 v 9.07"
         id="path11970" /><path
         style="vector-effect:non-scaling-stroke;fill:none;stroke:#0000ff;stroke-width:1;stroke-dasharray:none;stroke-opacity:1;-inkscape-stroke:hairline"
         d="m 181.733,598.954 v 9.07"
         id="path11972" /><path
         style="vector-effect:non-scaling-stroke;fill:none;stroke:#0000ff;stroke-width:1;stroke-dasharray:none;stroke-opacity:1;-inkscape-stroke:hairline"
         d="M 40.0007,598.954 H 181.733"
         id="path11974" /><path
         style="vector-effect:non-scaling-stroke;fill:none;stroke:#0000ff;stroke-width:1;stroke-dasharray:none;stroke-opacity:1;-inkscape-stroke:hairline"
         d="m 40.0007,598.954 v 140.22"
         id="path11976" /><path
         style="vector-effect:non-scaling-stroke;fill:none;stroke:#0000ff;stroke-width:1;stroke-dasharray:none;stroke-opacity:1;-inkscape-stroke:hairline"
         d="M 40.0007,739.174 H 30.9298"
         id="path11978" /><path
         style="vector-effect:non-scaling-stroke;fill:none;stroke:#0000ff;stroke-width:1;stroke-dasharray:none;stroke-opacity:1;-inkscape-stroke:hairline"
         d="M 30.9298,739.174 V 890.355"
         id="path11980" /><path
         style="vector-effect:non-scaling-stroke;fill:none;stroke:#0000ff;stroke-width:1;stroke-dasharray:none;stroke-opacity:1;-inkscape-stroke:hairline"
         d="M 40.0007,890.355 H 30.9298"
         id="path11982" /><path
         style="vector-effect:non-scaling-stroke;fill:none;stroke:#0000ff;stroke-width:1;stroke-dasharray:none;stroke-opacity:1;-inkscape-stroke:hairline"
         d="M 40.0007,890.355 V 1024.53"
         id="path11984" /><path
         style="vector-effect:non-scaling-stroke;fill:none;stroke:#0000ff;stroke-width:1;stroke-dasharray:none;stroke-opacity:1;-inkscape-stroke:hairline"
         d="M 40.0007,1024.53 H 196.851"
         id="path11986" /><path
         style="vector-effect:non-scaling-stroke;fill:none;stroke:#0000ff;stroke-width:1;stroke-dasharray:none;stroke-opacity:1;-inkscape-stroke:hairline"
         d="m 196.851,1024.53 v 9.07"
         id="path11988" /><path
         style="vector-effect:non-scaling-stroke;fill:none;stroke:#0000ff;stroke-width:1;stroke-dasharray:none;stroke-opacity:1;-inkscape-stroke:hairline"
         d="m 196.851,1033.6 h 164.41"
         id="path11990" /><path
         style="vector-effect:non-scaling-stroke;fill:none;stroke:#0000ff;stroke-width:1;stroke-dasharray:none;stroke-opacity:1;-inkscape-stroke:hairline"
         d="M 361.261,890.355 V 1033.6"
         id="path11992" /><path
         style="vector-effect:non-scaling-stroke;fill:none;stroke:#0000ff;stroke-width:1;stroke-dasharray:none;stroke-opacity:1;-inkscape-stroke:hairline"
         d="M 361.261,890.355 H 352.19"
         id="path11994" /><path
         style="vector-effect:non-scaling-stroke;fill:none;stroke:#0000ff;stroke-width:1;stroke-dasharray:none;stroke-opacity:1;-inkscape-stroke:hairline"
         d="M 352.19,739.174 V 890.355"
         id="path11996" /><path
         style="vector-effect:non-scaling-stroke;fill:none;stroke:#0000ff;stroke-width:1;stroke-dasharray:none;stroke-opacity:1;-inkscape-stroke:hairline"
         d="M 361.261,739.174 H 352.19"
         id="path11998" /><path
         style="vector-effect:non-scaling-stroke;fill:none;stroke:#0000ff;stroke-width:1;stroke-dasharray:none;stroke-opacity:1;-inkscape-stroke:hairline"
         d="m 361.261,598.954 v 140.22"
         id="path12000" /></g><g
       id="g15089"
       style="vector-effect:non-scaling-stroke;stroke-width:1;stroke-dasharray:none;-inkscape-stroke:hairline"><path
         style="vector-effect:non-scaling-stroke;fill:none;stroke:#0000ff;stroke-width:1;stroke-dasharray:none;stroke-opacity:1;-inkscape-stroke:hairline"
         d="M 1030.6,709.637 V 855.905"
         id="path12002" /><path
         style="vector-effect:non-scaling-stroke;fill:none;stroke:#0000ff;stroke-width:1;stroke-dasharray:none;stroke-opacity:1;-inkscape-stroke:hairline"
         d="m 1030.6,525.574 h 37.8"
         id="path12004" /><path
         style="vector-effect:non-scaling-stroke;fill:none;stroke:#0000ff;stroke-width:1;stroke-dasharray:none;stroke-opacity:1;-inkscape-stroke:hairline"
         d="M 1030.6,525.574 V 671.842"
         id="path12006" /><path
         style="vector-effect:non-scaling-stroke;fill:none;stroke:#0000ff;stroke-width:1;stroke-dasharray:none;stroke-opacity:1;-inkscape-stroke:hairline"
         d="m 1030.6,855.905 h 37.8"
         id="path12008" /><path
         style="vector-effect:non-scaling-stroke;fill:none;stroke:#0000ff;stroke-width:1;stroke-dasharray:none;stroke-opacity:1;-inkscape-stroke:hairline"
         d="M 1068.4,525.574 V 671.842"
         id="path12010" /><path
         style="vector-effect:non-scaling-stroke;fill:none;stroke:#0000ff;stroke-width:1;stroke-dasharray:none;stroke-opacity:1;-inkscape-stroke:hairline"
         d="M 884.337,671.842 H 1030.6"
         id="path12012" /><path
         style="vector-effect:non-scaling-stroke;fill:none;stroke:#0000ff;stroke-width:1;stroke-dasharray:none;stroke-opacity:1;-inkscape-stroke:hairline"
         d="m 884.337,671.842 v 37.795"
         id="path12014" /><path
         style="vector-effect:non-scaling-stroke;fill:none;stroke:#0000ff;stroke-width:1;stroke-dasharray:none;stroke-opacity:1;-inkscape-stroke:hairline"
         d="M 884.337,709.637 H 1030.6"
         id="path12016" /><path
         style="vector-effect:non-scaling-stroke;fill:none;stroke:#0000ff;stroke-width:1;stroke-dasharray:none;stroke-opacity:1;-inkscape-stroke:hairline"
         d="m 1214.67,671.842 v 37.795"
         id="path12018" /><path
         style="vector-effect:non-scaling-stroke;fill:none;stroke:#0000ff;stroke-width:1;stroke-dasharray:none;stroke-opacity:1;-inkscape-stroke:hairline"
         d="M 1068.4,709.637 V 855.905"
         id="path12020" /><path
         style="vector-effect:non-scaling-stroke;fill:none;stroke:#0000ff;stroke-width:1;stroke-dasharray:none;stroke-opacity:1;-inkscape-stroke:hairline"
         d="m 1068.4,671.842 h 146.27"
         id="path12022" /><path
         style="vector-effect:non-scaling-stroke;fill:none;stroke:#0000ff;stroke-width:1;stroke-dasharray:none;stroke-opacity:1;-inkscape-stroke:hairline"
         d="m 1068.4,709.637 h 146.27"
         id="path12024" /></g></g><g
     inkscape:groupmode="layer"
     inkscape:label="2_-_SLABA"
     id="g12474"
     transform="translate(-30.929799,-107.61499)"><path
       style="vector-effect:non-scaling-stroke;fill:none;stroke:#ff00ff;stroke-width:1;stroke-dasharray:none;stroke-opacity:1;-inkscape-stroke:hairline"
       d="m 94.832794,429.18242 c -0.0707,-0.28083 3.76957,-5.7601 8.533726,-12.17618 7.95558,-10.71406 8.40762,-11.81487 5.54188,-13.49601 -3.45767,-2.02838 -2.16462,-3.78697 -12.535156,17.0482 l -4.63283,9.30767 1.25976,-7.86229 c 0.69321,-4.32422 1.12739,-11.62591 0.96575,-16.22584 -0.27541,-7.83703 0.19719,-8.86142 7.507986,-16.27357 8.5828,-8.7018 7.89126,-8.63775 20.29801,-1.87998 3.40419,1.8542 6.32666,3.9169 6.49439,4.5838 0.16771,0.6669 -1.16159,5.59814 -2.954,10.95832 -2.98581,8.92908 -3.89435,10.05874 -10.84127,13.48029 -4.17028,2.05397 -10.26598,5.82963 -13.54603,8.39036 -3.280016,2.56072 -6.021456,4.42608 -6.092096,4.14525 z m 26.299246,-47.20461 -12.07223,-6.99231 9.17387,-19.7772 c 12.04324,-25.96307 28.96816,-59.8999 30.06408,-60.28265 1.34199,-0.46867 38.52432,19.69655 38.87279,21.08205 0.56188,2.23414 -50.56611,72.23879 -53.1634,72.79153 -0.44161,0.094 -6.23542,-2.97565 -12.87511,-6.82142 z m 62.86444,-75.20439 c -3.68022,-1.98781 -12.58732,-6.76919 -19.79355,-10.62526 l -13.10223,-7.01106 3.31424,-5.88624 c 12.54888,-22.28727 55.77168,-79.57852 61.03608,-80.90252 1.40776,-0.35404 3.6516,0.15533 4.98633,1.13194 2.00739,1.46881 -1.1275,7.9739 -18.14016,37.6426 -19.27986,33.62237 -22.14113,40.77492 -15.65932,39.14476 1.21655,-0.30597 8.68152,-10.5039 16.58884,-22.66208 7.90731,-12.15816 17.91028,-27.54607 22.22885,-34.19532 6.25589,-9.63217 8.46287,-11.92454 10.85765,-11.27768 4.63408,1.25171 4.62985,4.89281 -0.0187,16.05181 -9.65756,23.18346 -40.71524,81.09849 -43.87251,81.81158 -0.95386,0.21539 -4.74536,-1.23471 -8.42556,-3.22253 z m 45.56564,-103.6333 c -10.43918,-5.48033 -11.00438,-6.03064 -7.92844,-7.71969 3.75618,-2.0626 10.65858,-1.61889 15.58133,1.00164 3.24706,1.7285 7.13927,11.84699 4.75634,12.36497 -0.64283,0.13964 -6.22697,-2.40139 -12.40923,-5.64692 z"
       id="path14076" /><path
       style="vector-effect:non-scaling-stroke;fill:none;stroke:#ff0000;stroke-width:1;stroke-dasharray:none;stroke-opacity:1;-inkscape-stroke:hairline"
       d="M 314.17094,523.90153 C 269.90026,456.49893 266.7769,492.2179 207.27381,463.6003 147.77072,434.98271 134.86011,514.9914 81.555252,424.84598"
       id="path14141"
       sodipodi:nodetypes="csc" /><ellipse
       style="vector-effect:non-scaling-stroke;fill:none;stroke:#0000ff;stroke-width:1;stroke-dasharray:none;stroke-opacity:1;-inkscape-stroke:hairline"
       id="path14195"
       cx="542.26447"
       cy="447.26181"
       rx="67.066254"
       ry="18.60232"
       transform="rotate(-21.505625)" /><ellipse
       style="vector-effect:non-scaling-stroke;fill:none;stroke:#0000ff;stroke-width:1;stroke-dasharray:none;stroke-opacity:1;-inkscape-stroke:hairline"
       id="path14195-3"
       cx="657.31244"
       cy="-179.08569"
       rx="67.066254"
       ry="18.60232"
       transform="rotate(44.075908)" /><ellipse
       style="vector-effect:non-scaling-stroke;fill:none;stroke:#0000ff;stroke-width:1;stroke-dasharray:none;stroke-opacity:1;-inkscape-stroke:hairline"
       id="path14195-3-1"
       cx="648.1925"
       cy="479.1131"
       rx="67.066254"
       ry="18.60232"
       transform="rotate(-2.9386222)" /><ellipse
       style="vector-effect:non-scaling-stroke;fill:none;stroke:#0000ff;stroke-width:1;stroke-dasharray:none;stroke-opacity:1;-inkscape-stroke:hairline"
       id="path14195-1"
       cx="-844.2569"
       cy="417.17206"
       rx="67.066254"
       ry="18.60232"
       transform="matrix(-0.93038158,-0.36659257,-0.36659257,0.93038158,0,0)" /><ellipse
       style="vector-effect:non-scaling-stroke;fill:none;stroke:#0000ff;stroke-width:1;stroke-dasharray:none;stroke-opacity:1;-inkscape-stroke:hairline"
       id="path14195-3-2"
       cx="56.729038"
       cy="1070.9729"
       rx="67.066254"
       ry="18.60232"
       transform="matrix(-0.71841885,0.69561077,0.69561077,0.71841885,0,0)" /><ellipse
       style="vector-effect:non-scaling-stroke;fill:none;stroke:#0000ff;stroke-width:1;stroke-dasharray:none;stroke-opacity:1;-inkscape-stroke:hairline"
       id="path14195-3-1-9"
       cx="-675.74414"
       cy="892.07642"
       rx="67.066254"
       ry="18.60232"
       transform="matrix(-0.99868503,-0.05126615,-0.05126615,0.99868503,0,0)" /><g
       id="g15125"
       style="vector-effect:non-scaling-stroke;stroke-width:1;stroke-dasharray:none;-inkscape-stroke:hairline"><g
         id="g15177"
         style="vector-effect:non-scaling-stroke;stroke-width:1;stroke-dasharray:none;-inkscape-stroke:hairline"><g
           id="g15167"
           style="vector-effect:non-scaling-stroke;stroke-width:1;stroke-dasharray:none;-inkscape-stroke:hairline"><g
             id="g15158"
             style="vector-effect:non-scaling-stroke;stroke-width:1;stroke-dasharray:none;-inkscape-stroke:hairline"><g
               id="g15150"
               style="vector-effect:non-scaling-stroke;stroke-width:1;stroke-dasharray:none;-inkscape-stroke:hairline"><g
                 id="g15143"
                 style="vector-effect:non-scaling-stroke;stroke-width:1;stroke-dasharray:none;-inkscape-stroke:hairline"><g
                   id="g15137"
                   style="vector-effect:non-scaling-stroke;stroke-width:1;stroke-dasharray:none;-inkscape-stroke:hairline"><g
                     id="g15132"
                     style="vector-effect:non-scaling-stroke;stroke-width:1;stroke-dasharray:none;-inkscape-stroke:hairline"><g
                       id="g15128"
                       style="vector-effect:non-scaling-stroke;stroke-width:1;stroke-dasharray:none;-inkscape-stroke:hairline"><path
                         style="vector-effect:non-scaling-stroke;fill:none;stroke:#ff00ff;stroke-width:1;stroke-dasharray:none;stroke-opacity:1;-inkscape-stroke:hairline"
                         d="m 89.823191,920.55509 c 0.30427,-1.2375 3.2921,-15.525 6.63962,-31.75 7.551179,-36.59965 6.672419,-33.71664 9.270379,-30.41387 2.33967,2.9744 7.39602,5.41387 11.22147,5.41387 2.2008,0 2.53212,0.43421 2.53212,3.3185 0,5.36389 2.86015,13.45262 6.03565,17.06932 3.47958,3.96302 10.52366,7.21953 17.66581,8.16697 4.82895,0.64058 5.15549,0.86917 5.74721,4.02328 0.66467,3.54303 5.73637,9.42193 8.12825,9.42193 0.78269,0 1.42308,0.45 1.42308,1 0,0.55 -0.65532,1 -1.45626,1 -0.80095,0 -15.89563,3.375 -33.54374,7.5 -17.64811,4.125 -32.566579,7.5 -33.152139,7.5 -0.60136,0 -0.82393,-0.97914 -0.51145,-2.25 z m 71.118139,-25.20455 c -1.60706,-1.60706 -2.45455,-3.58565 -2.45455,-5.73054 0,-2.9935 4.61271,-7.89108 53.49059,-56.794 l 53.4906,-53.51798 5.75794,5.75794 5.75794,5.75794 -53.51798,53.4906 c -48.90292,48.87788 -53.8005,53.49059 -56.79399,53.49059 -2.1449,0 -4.12349,-0.84748 -5.73055,-2.45455 z m -23.85045,-15.8119 c -6.74577,-3.8674 -9.33818,-11.81411 -6.20337,-19.01567 0.79756,-1.83222 24.16278,-25.93567 54.26029,-55.97466 l 52.85956,-52.75679 10.91991,10.95387 10.9199,10.95387 -53.2824,52.80292 c -29.30531,29.0416 -54.4739,53.34511 -55.93019,54.00781 -4.08211,1.85759 -9.25661,1.48647 -13.5437,-0.97135 z m -20.96924,-28.80613 c -2.00601,-1.57793 -2.63486,-2.96375 -2.63486,-5.80656 0,-3.59937 1.91153,-5.64262 53.0236,-56.67742 29.16298,-29.11889 53.36205,-53.05979 53.7757,-53.20201 0.41366,-0.14221 3.20958,2.22982 6.21316,5.27118 l 5.46105,5.52975 -53.5062,53.47882 c -58.34514,58.31527 -56.00381,56.38435 -62.33245,51.40624 z m 140.38414,-95.37295 -28.48099,-28.52961 5.98099,-6.04623 c 10.31753,-10.43005 20.468,-13.50159 29.981,-9.07228 2.44086,1.13648 10.29535,8.2415 20.15082,18.22804 12.86408,13.03516 16.37337,17.17962 17.24442,20.36561 2.74543,10.04177 0.75697,15.82379 -8.86999,25.79204 l -7.52525,7.79204 z"
                         id="path14991" /></g></g></g></g></g></g></g></g></g><g
       aria-label="Spokojené potřeby"
       transform="matrix(2.68897,0,0,2.68897,-1992.531,-1159.3708)"
       id="text15065"
       style="font-weight:bold;font-family:Raleway;-inkscape-font-specification:'Raleway Bold';white-space:pre;shape-inside:url(#rect15067);vector-effect:non-scaling-stroke;fill:none;stroke:#ff00ff;stroke-width:0.37189;stroke-dasharray:none;-inkscape-stroke:hairline"><path
         d="m 1082.8859,684.7694 q -0.084,-0.084 -0.312,-0.228 -0.216,-0.144 -0.54,-0.276 -0.312,-0.132 -0.684,-0.228 -0.372,-0.108 -0.756,-0.108 -0.672,0 -1.02,0.252 -0.336,0.252 -0.336,0.708 0,0.348 0.216,0.552 0.216,0.204 0.648,0.348 0.432,0.144 1.08,0.312 0.84,0.204 1.452,0.504 0.624,0.288 0.948,0.768 0.336,0.468 0.336,1.248 0,0.684 -0.252,1.176 -0.252,0.48 -0.696,0.78 -0.444,0.3 -1.008,0.444 -0.564,0.132 -1.2,0.132 -0.636,0 -1.272,-0.132 -0.636,-0.132 -1.224,-0.372 -0.588,-0.252 -1.08,-0.6 l 0.732,-1.428 q 0.108,0.108 0.384,0.288 0.276,0.168 0.672,0.348 0.396,0.168 0.864,0.288 0.468,0.12 0.948,0.12 0.672,0 1.02,-0.228 0.348,-0.228 0.348,-0.648 0,-0.384 -0.276,-0.6 -0.276,-0.216 -0.768,-0.372 -0.492,-0.168 -1.164,-0.36 -0.804,-0.228 -1.344,-0.504 -0.54,-0.288 -0.804,-0.72 -0.264,-0.432 -0.264,-1.08 0,-0.876 0.408,-1.464 0.42,-0.6 1.128,-0.9 0.708,-0.312 1.572,-0.312 0.6,0 1.128,0.132 0.54,0.132 1.008,0.348 0.468,0.216 0.84,0.468 z"
         style="vector-effect:non-scaling-stroke;stroke-width:0.37189;stroke-dasharray:none;-inkscape-stroke:hairline"
         id="path15091" /><path
         d="m 1088.74,691.1774 q -0.732,0 -1.296,-0.324 -0.552,-0.336 -0.864,-0.9 v 3.66 h -1.608 v -8.844 h 1.404 v 1.08 q 0.36,-0.552 0.912,-0.864 0.552,-0.324 1.26,-0.324 0.636,0 1.164,0.252 0.54,0.252 0.936,0.708 0.396,0.444 0.612,1.032 0.228,0.576 0.228,1.248 0,0.912 -0.36,1.656 -0.348,0.744 -0.972,1.188 -0.612,0.432 -1.416,0.432 z m -0.54,-1.368 q 0.372,0 0.672,-0.156 0.3,-0.156 0.516,-0.42 0.228,-0.276 0.336,-0.612 0.12,-0.348 0.12,-0.72 0,-0.396 -0.132,-0.732 -0.12,-0.336 -0.36,-0.588 -0.24,-0.264 -0.564,-0.408 -0.312,-0.144 -0.684,-0.144 -0.228,0 -0.468,0.084 -0.228,0.072 -0.444,0.216 -0.216,0.144 -0.384,0.336 -0.156,0.192 -0.228,0.42 v 1.476 q 0.144,0.348 0.384,0.636 0.252,0.288 0.576,0.456 0.324,0.156 0.66,0.156 z"
         style="vector-effect:non-scaling-stroke;stroke-width:0.37189;stroke-dasharray:none;-inkscape-stroke:hairline"
         id="path15093" /><path
         d="m 1095.484,691.1774 q -0.768,0 -1.38,-0.252 -0.612,-0.264 -1.044,-0.72 -0.42,-0.456 -0.648,-1.044 -0.228,-0.588 -0.228,-1.236 0,-0.66 0.228,-1.248 0.228,-0.588 0.648,-1.044 0.432,-0.456 1.044,-0.708 0.612,-0.264 1.38,-0.264 0.768,0 1.368,0.264 0.612,0.252 1.044,0.708 0.432,0.456 0.648,1.044 0.228,0.588 0.228,1.248 0,0.648 -0.228,1.236 -0.216,0.588 -0.648,1.044 -0.42,0.456 -1.032,0.72 -0.612,0.252 -1.38,0.252 z m -1.644,-3.252 q 0,0.552 0.216,0.984 0.216,0.42 0.588,0.66 0.372,0.24 0.84,0.24 0.456,0 0.828,-0.24 0.372,-0.252 0.588,-0.672 0.228,-0.432 0.228,-0.984 0,-0.54 -0.228,-0.972 -0.216,-0.432 -0.588,-0.672 -0.372,-0.24 -0.828,-0.24 -0.468,0 -0.84,0.252 -0.372,0.24 -0.588,0.672 -0.216,0.42 -0.216,0.972 z"
         style="vector-effect:non-scaling-stroke;stroke-width:0.37189;stroke-dasharray:none;-inkscape-stroke:hairline"
         id="path15095" /><path
         d="m 1104.148,691.0574 -1.836,-2.712 -0.852,0.84 v 1.872 h -1.608 v -8.76 h 1.608 v 5.304 l 2.532,-2.82 h 1.704 l -2.34,2.664 2.508,3.612 z"
         style="vector-effect:non-scaling-stroke;stroke-width:0.37189;stroke-dasharray:none;-inkscape-stroke:hairline"
         id="path15097" /><path
         d="m 1109.1334,691.1774 q -0.768,0 -1.38,-0.252 -0.612,-0.264 -1.044,-0.72 -0.42,-0.456 -0.648,-1.044 -0.228,-0.588 -0.228,-1.236 0,-0.66 0.228,-1.248 0.228,-0.588 0.648,-1.044 0.432,-0.456 1.044,-0.708 0.612,-0.264 1.38,-0.264 0.768,0 1.368,0.264 0.612,0.252 1.044,0.708 0.432,0.456 0.648,1.044 0.228,0.588 0.228,1.248 0,0.648 -0.228,1.236 -0.216,0.588 -0.648,1.044 -0.42,0.456 -1.032,0.72 -0.612,0.252 -1.38,0.252 z m -1.644,-3.252 q 0,0.552 0.216,0.984 0.216,0.42 0.588,0.66 0.372,0.24 0.84,0.24 0.456,0 0.828,-0.24 0.372,-0.252 0.588,-0.672 0.228,-0.432 0.228,-0.984 0,-0.54 -0.228,-0.972 -0.216,-0.432 -0.588,-0.672 -0.372,-0.24 -0.828,-0.24 -0.468,0 -0.84,0.252 -0.372,0.24 -0.588,0.672 -0.216,0.42 -0.216,0.972 z"
         style="vector-effect:non-scaling-stroke;stroke-width:0.37189;stroke-dasharray:none;-inkscape-stroke:hairline"
         id="path15099" /><path
         d="m 1112.9854,693.4094 q -0.444,0 -0.852,-0.144 -0.408,-0.132 -0.744,-0.42 l 0.696,-1.092 q 0.132,0.144 0.324,0.204 0.192,0.06 0.384,0.06 0.216,0 0.384,-0.108 0.18,-0.096 0.276,-0.276 0.108,-0.18 0.108,-0.408 v -6.456 h 1.608 v 6.336 q 0,0.672 -0.3,1.2 -0.288,0.528 -0.78,0.816 -0.48,0.288 -1.104,0.288 z m 0.576,-9.516 v -1.596 h 1.608 v 1.596 z"
         style="vector-effect:non-scaling-stroke;stroke-width:0.37189;stroke-dasharray:none;-inkscape-stroke:hairline"
         id="path15101" /><path
         d="m 1119.5494,691.1774 q -0.756,0 -1.368,-0.252 -0.612,-0.264 -1.044,-0.708 -0.432,-0.456 -0.672,-1.032 -0.228,-0.588 -0.228,-1.236 0,-0.9 0.396,-1.644 0.408,-0.744 1.152,-1.188 0.756,-0.456 1.776,-0.456 1.032,0 1.764,0.456 0.732,0.444 1.116,1.188 0.396,0.732 0.396,1.584 0,0.144 -0.012,0.3 -0.012,0.144 -0.024,0.24 h -4.86 q 0.048,0.48 0.276,0.84 0.24,0.36 0.6,0.552 0.372,0.18 0.792,0.18 0.48,0 0.9,-0.228 0.432,-0.24 0.588,-0.624 l 1.38,0.384 q -0.228,0.48 -0.66,0.852 -0.42,0.372 -0.996,0.588 -0.576,0.204 -1.272,0.204 z m -1.644,-3.768 h 3.288 q -0.048,-0.48 -0.276,-0.828 -0.216,-0.36 -0.576,-0.552 -0.36,-0.204 -0.804,-0.204 -0.432,0 -0.792,0.204 -0.348,0.192 -0.576,0.552 -0.216,0.348 -0.264,0.828 z"
         style="vector-effect:non-scaling-stroke;stroke-width:0.37189;stroke-dasharray:none;-inkscape-stroke:hairline"
         id="path15103" /><path
         d="m 1129.6654,691.0574 h -1.608 v -3.528 q 0,-0.756 -0.264,-1.104 -0.264,-0.348 -0.732,-0.348 -0.324,0 -0.66,0.168 -0.324,0.168 -0.588,0.468 -0.264,0.288 -0.384,0.672 v 3.672 h -1.608 v -6.288 h 1.452 v 1.164 q 0.24,-0.408 0.612,-0.684 0.372,-0.288 0.852,-0.432 0.492,-0.156 1.032,-0.156 0.588,0 0.96,0.216 0.384,0.204 0.576,0.564 0.204,0.348 0.276,0.792 0.084,0.444 0.084,0.9 z"
         style="vector-effect:non-scaling-stroke;stroke-width:0.37189;stroke-dasharray:none;-inkscape-stroke:hairline"
         id="path15105" /><path
         d="m 1133.9854,691.1774 q -0.756,0 -1.368,-0.252 -0.612,-0.264 -1.044,-0.708 -0.432,-0.456 -0.672,-1.032 -0.228,-0.588 -0.228,-1.236 0,-0.9 0.396,-1.644 0.408,-0.744 1.152,-1.188 0.756,-0.456 1.776,-0.456 1.032,0 1.764,0.456 0.732,0.444 1.116,1.188 0.396,0.732 0.396,1.584 0,0.144 -0.012,0.3 -0.012,0.144 -0.024,0.24 h -4.86 q 0.048,0.48 0.276,0.84 0.24,0.36 0.6,0.552 0.372,0.18 0.792,0.18 0.48,0 0.9,-0.228 0.432,-0.24 0.588,-0.624 l 1.38,0.384 q -0.228,0.48 -0.66,0.852 -0.42,0.372 -0.996,0.588 -0.576,0.204 -1.272,0.204 z m -1.644,-3.768 h 3.288 q -0.048,-0.48 -0.276,-0.828 -0.216,-0.36 -0.576,-0.552 -0.36,-0.204 -0.804,-0.204 -0.432,0 -0.792,0.204 -0.348,0.192 -0.576,0.552 -0.216,0.348 -0.264,0.828 z m 2.16,-3.372 -1.032,-0.312 0.648,-1.428 h 1.5 z"
         style="vector-effect:non-scaling-stroke;stroke-width:0.37189;stroke-dasharray:none;-inkscape-stroke:hairline"
         id="path15107" /><path
         d="m 1144.9055,691.1774 q -0.732,0 -1.296,-0.324 -0.552,-0.336 -0.864,-0.9 v 3.66 h -1.608 v -8.844 h 1.404 v 1.08 q 0.36,-0.552 0.912,-0.864 0.552,-0.324 1.26,-0.324 0.636,0 1.164,0.252 0.54,0.252 0.936,0.708 0.396,0.444 0.612,1.032 0.228,0.576 0.228,1.248 0,0.912 -0.36,1.656 -0.348,0.744 -0.972,1.188 -0.612,0.432 -1.416,0.432 z m -0.54,-1.368 q 0.372,0 0.672,-0.156 0.3,-0.156 0.516,-0.42 0.228,-0.276 0.336,-0.612 0.12,-0.348 0.12,-0.72 0,-0.396 -0.132,-0.732 -0.12,-0.336 -0.36,-0.588 -0.24,-0.264 -0.564,-0.408 -0.312,-0.144 -0.684,-0.144 -0.228,0 -0.468,0.084 -0.228,0.072 -0.444,0.216 -0.216,0.144 -0.384,0.336 -0.156,0.192 -0.228,0.42 v 1.476 q 0.144,0.348 0.384,0.636 0.252,0.288 0.576,0.456 0.324,0.156 0.66,0.156 z"
         style="vector-effect:non-scaling-stroke;stroke-width:0.37189;stroke-dasharray:none;-inkscape-stroke:hairline"
         id="path15109" /><path
         d="m 1151.6495,691.1774 q -0.768,0 -1.38,-0.252 -0.612,-0.264 -1.044,-0.72 -0.42,-0.456 -0.648,-1.044 -0.228,-0.588 -0.228,-1.236 0,-0.66 0.228,-1.248 0.228,-0.588 0.648,-1.044 0.432,-0.456 1.044,-0.708 0.612,-0.264 1.38,-0.264 0.768,0 1.368,0.264 0.612,0.252 1.044,0.708 0.432,0.456 0.648,1.044 0.228,0.588 0.228,1.248 0,0.648 -0.228,1.236 -0.216,0.588 -0.648,1.044 -0.42,0.456 -1.032,0.72 -0.612,0.252 -1.38,0.252 z m -1.644,-3.252 q 0,0.552 0.216,0.984 0.216,0.42 0.588,0.66 0.372,0.24 0.84,0.24 0.456,0 0.828,-0.24 0.372,-0.252 0.588,-0.672 0.228,-0.432 0.228,-0.984 0,-0.54 -0.228,-0.972 -0.216,-0.432 -0.588,-0.672 -0.372,-0.24 -0.828,-0.24 -0.468,0 -0.84,0.252 -0.372,0.24 -0.588,0.672 -0.216,0.42 -0.216,0.972 z"
         style="vector-effect:non-scaling-stroke;stroke-width:0.37189;stroke-dasharray:none;-inkscape-stroke:hairline"
         id="path15111" /><path
         d="m 1159.6895,690.7334 q -0.204,0.084 -0.492,0.192 -0.288,0.108 -0.624,0.168 -0.324,0.072 -0.66,0.072 -0.444,0 -0.816,-0.156 -0.372,-0.156 -0.6,-0.492 -0.216,-0.348 -0.216,-0.9 v -3.612 h -0.828 v -1.236 h 0.828 v -2.04 h 1.608 v 2.04 h 1.32 v 1.236 h -1.32 v 3.072 q 0.012,0.324 0.18,0.468 0.168,0.144 0.42,0.144 0.252,0 0.492,-0.084 0.24,-0.084 0.384,-0.144 z"
         style="vector-effect:non-scaling-stroke;stroke-width:0.37189;stroke-dasharray:none;-inkscape-stroke:hairline"
         id="path15113" /><path
         d="m 1164.2735,686.1614 q -0.732,0 -1.308,0.288 -0.576,0.276 -0.828,0.804 v 3.804 h -1.608 v -6.288 h 1.476 v 1.344 q 0.336,-0.648 0.852,-1.02 0.516,-0.372 1.092,-0.408 0.132,0 0.204,0 0.072,0 0.12,0.012 z m -2.904,-3.864 1.02,0.756 1.02,-0.756 0.828,0.384 -1.272,1.212 h -1.164 l -1.272,-1.212 z"
         style="vector-effect:non-scaling-stroke;stroke-width:0.37189;stroke-dasharray:none;-inkscape-stroke:hairline"
         id="path15115" /><path
         d="m 1168.0104,691.1774 q -0.756,0 -1.368,-0.252 -0.612,-0.264 -1.044,-0.708 -0.432,-0.456 -0.672,-1.032 -0.228,-0.588 -0.228,-1.236 0,-0.9 0.396,-1.644 0.408,-0.744 1.152,-1.188 0.756,-0.456 1.776,-0.456 1.032,0 1.764,0.456 0.732,0.444 1.116,1.188 0.396,0.732 0.396,1.584 0,0.144 -0.012,0.3 -0.012,0.144 -0.024,0.24 h -4.86 q 0.048,0.48 0.276,0.84 0.24,0.36 0.6,0.552 0.372,0.18 0.792,0.18 0.48,0 0.9,-0.228 0.432,-0.24 0.588,-0.624 l 1.38,0.384 q -0.228,0.48 -0.66,0.852 -0.42,0.372 -0.996,0.588 -0.576,0.204 -1.272,0.204 z m -1.644,-3.768 h 3.288 q -0.048,-0.48 -0.276,-0.828 -0.216,-0.36 -0.576,-0.552 -0.36,-0.204 -0.804,-0.204 -0.432,0 -0.792,0.204 -0.348,0.192 -0.576,0.552 -0.216,0.348 -0.264,0.828 z"
         style="vector-effect:non-scaling-stroke;stroke-width:0.37189;stroke-dasharray:none;-inkscape-stroke:hairline"
         id="path15117" /><path
         d="m 1175.8584,691.1774 q -0.72,0 -1.284,-0.324 -0.564,-0.324 -0.888,-0.888 v 1.092 h -1.404 v -8.76 h 1.608 v 3.576 q 0.336,-0.564 0.876,-0.888 0.552,-0.324 1.284,-0.324 0.612,0 1.116,0.264 0.504,0.252 0.864,0.708 0.372,0.456 0.564,1.044 0.204,0.588 0.204,1.26 0,0.672 -0.228,1.26 -0.216,0.588 -0.612,1.044 -0.396,0.444 -0.936,0.696 -0.528,0.24 -1.164,0.24 z m -0.444,-1.368 q 0.384,0 0.696,-0.144 0.324,-0.156 0.552,-0.408 0.24,-0.252 0.36,-0.588 0.132,-0.348 0.132,-0.72 0,-0.516 -0.216,-0.948 -0.204,-0.444 -0.576,-0.708 -0.36,-0.264 -0.852,-0.264 -0.348,0 -0.672,0.168 -0.312,0.156 -0.564,0.432 -0.24,0.276 -0.384,0.624 v 1.5 q 0.072,0.24 0.228,0.432 0.168,0.192 0.384,0.336 0.216,0.132 0.444,0.216 0.24,0.072 0.468,0.072 z"
         style="vector-effect:non-scaling-stroke;stroke-width:0.37189;stroke-dasharray:none;-inkscape-stroke:hairline"
         id="path15119" /><path
         d="m 1179.801,692.2814 q 0.216,0.048 0.396,0.084 0.192,0.036 0.324,0.036 0.228,0 0.372,-0.12 0.156,-0.108 0.3,-0.408 0.144,-0.288 0.3,-0.816 l -2.484,-6.288 h 1.668 l 1.692,4.644 1.488,-4.644 h 1.536 l -2.64,7.536 q -0.144,0.42 -0.444,0.756 -0.288,0.348 -0.732,0.54 -0.432,0.204 -0.972,0.204 -0.192,0 -0.384,-0.036 -0.192,-0.024 -0.42,-0.096 z"
         style="vector-effect:non-scaling-stroke;stroke-width:0.37189;stroke-dasharray:none;-inkscape-stroke:hairline"
         id="path15121" /></g><path
       style="vector-effect:non-scaling-stroke;fill:none;stroke:#0000ff;-inkscape-stroke:hairline;stroke-opacity:1"
       d="M 650.41982,1033.4358 H 815.25044"
       id="path751" /></g></svg>
