999
"DXF R12 Output" (www.mydxf.blogspot.com)
 0 
SECTION
 2 
HEADER
 9 
$ACADVER
 1 
AC1009
 9 
$EXTMIN
 10 
 0 
 20 
 0 
 9 
$EXTMAX
 10 
 8.5 
 20 
 11 
 0 
ENDSEC
 0 
SECTION
 2 
ENTITIES
0
LINE
8
Layer 1
10
0.793749
20
297.794000
11
-0.793749
21
296.206000
0
LINE
8
Layer 1
10
0.000000
20
298.323000
11
0.000000
21
295.677000
0
LINE
8
Layer 1
10
2.116660
20
295.942000
11
1.058330
21
294.883670
0
LINE
8
Layer 1
10
1.587500
20
296.471000
11
0.529170
21
295.412670
0
LINE
8
Layer 1
10
1.058330
20
297.000000
11
0.000000
21
295.941670
0
LINE
8
Layer 1
10
544.078000
20
10.215800
11
444.079000
21
10.215800
0
LINE
8
Layer 1
10
494.077000
20
48.215000
11
494.077000
21
38.215100
0
LINE
8
Layer 1
10
574.928000
20
48.215000
11
574.928000
21
38.215100
0
LINE
8
Layer 1
10
404.079000
20
30.215700
11
584.078000
21
30.215700
0
LINE
8
Layer 1
10
476.077000
20
38.215100
11
476.077000
21
30.215700
0
LINE
8
Layer 1
10
424.079000
20
48.215000
11
424.079000
21
38.215100
0
LINE
8
Layer 1
10
550.079000
20
30.215700
11
550.079000
21
22.214700
0
LINE
8
Layer 1
10
584.078000
20
82.215000
11
584.078000
21
10.215800
0
LINE
8
Layer 1
10
584.078000
20
48.215000
11
584.078000
21
10.215800
0
LINE
8
Layer 1
10
464.079000
20
10.215800
11
464.079000
21
30.215700
0
LINE
8
Layer 1
10
584.078000
20
10.215800
11
404.079000
21
10.215800
0
LINE
8
Layer 1
10
404.079000
20
22.214700
11
584.011000
21
22.214700
0
LINE
8
Layer 1
10
509.079000
20
48.215000
11
509.079000
21
38.215100
0
LINE
8
Layer 1
10
529.079000
20
38.215100
11
529.079000
21
30.215700
0
LINE
8
Layer 1
10
404.079000
20
48.215000
11
584.078000
21
48.215000
0
LINE
8
Layer 1
10
404.079000
20
48.215000
11
404.079000
21
10.215800
0
LINE
8
Layer 1
10
444.079000
20
22.214700
11
444.079000
21
10.215800
0
LINE
8
Layer 1
10
558.077000
20
48.215000
11
558.077000
21
38.215100
0
LINE
8
Layer 1
10
404.079000
20
43.215200
11
584.011000
21
43.215200
0
LINE
8
Layer 1
10
404.079000
20
38.215100
11
584.078000
21
38.215100
0
LINE
8
Layer 1
10
521.078000
20
22.214700
11
521.078000
21
10.215800
0
LINE
8
Layer 1
10
404.079000
20
10.215800
11
584.078000
21
10.215800
0
LINE
8
Layer 1
10
494.077000
20
30.215700
11
494.045000
21
22.214700
0
LINE
8
Layer 1
10
12.922000
20
3.962870
11
12.831131
21
4.647779
0
LINE
8
Layer 1
10
12.831131
20
4.647779
11
12.570312
21
5.275370
0
LINE
8
Layer 1
10
12.570312
20
5.275370
11
12.157211
21
5.815040
0
LINE
8
Layer 1
10
12.157211
20
5.815040
11
11.609495
21
6.236187
0
LINE
8
Layer 1
10
11.609495
20
6.236187
11
10.970914
21
6.499949
0
LINE
8
Layer 1
10
10.970914
20
6.499949
11
10.296995
21
6.587870
0
LINE
8
Layer 1
10
10.296995
20
6.587870
11
9.623076
21
6.499949
0
LINE
8
Layer 1
10
9.623076
20
6.499949
11
8.984495
21
6.236187
0
LINE
8
Layer 1
10
8.984495
20
6.236187
11
8.436779
21
5.815040
0
LINE
8
Layer 1
10
8.436779
20
5.815040
11
8.023678
21
5.275370
0
LINE
8
Layer 1
10
8.023678
20
5.275370
11
7.762861
21
4.647779
0
LINE
8
Layer 1
10
7.762861
20
4.647779
11
7.671995
21
3.962870
0
LINE
8
Layer 1
10
7.671995
20
3.962870
11
7.762862
21
3.277961
0
LINE
8
Layer 1
10
7.762862
20
3.277961
11
8.023681
21
2.650370
0
LINE
8
Layer 1
10
8.023681
20
2.650370
11
8.436782
21
2.110700
0
LINE
8
Layer 1
10
8.436782
20
2.110700
11
8.984497
21
1.689553
0
LINE
8
Layer 1
10
8.984497
20
1.689553
11
9.623079
21
1.425791
0
LINE
8
Layer 1
10
9.623079
20
1.425791
11
10.296997
21
1.337870
0
LINE
8
Layer 1
10
10.296997
20
1.337870
11
10.970916
21
1.425791
0
LINE
8
Layer 1
10
10.970916
20
1.425791
11
11.609497
21
1.689553
0
LINE
8
Layer 1
10
11.609497
20
1.689553
11
12.157213
21
2.110700
0
LINE
8
Layer 1
10
12.157213
20
2.110700
11
12.570314
21
2.650370
0
LINE
8
Layer 1
10
12.570314
20
2.650370
11
12.831132
21
3.277961
0
LINE
8
Layer 1
10
12.831132
20
3.277961
11
12.921997
21
3.962870
0
LINE
8
Layer 1
10
12.921997
20
3.962870
11
12.922000
21
3.962870
0
LINE
8
Layer 1
10
11.609500
20
3.962870
11
11.433654
21
4.619120
0
LINE
8
Layer 1
10
11.433654
20
4.619120
11
10.953245
21
5.099528
0
LINE
8
Layer 1
10
10.953245
20
5.099528
11
10.296995
21
5.275370
0
LINE
8
Layer 1
10
10.296995
20
5.275370
11
9.640745
21
5.099528
0
LINE
8
Layer 1
10
9.640745
20
5.099528
11
9.160337
21
4.619120
0
LINE
8
Layer 1
10
9.160337
20
4.619120
11
8.984495
21
3.962870
0
LINE
8
Layer 1
10
8.984495
20
3.962870
11
9.160339
21
3.306620
0
LINE
8
Layer 1
10
9.160339
20
3.306620
11
9.640747
21
2.826212
0
LINE
8
Layer 1
10
9.640747
20
2.826212
11
10.296997
21
2.650370
0
LINE
8
Layer 1
10
10.296997
20
2.650370
11
10.953247
21
2.826212
0
LINE
8
Layer 1
10
10.953247
20
2.826212
11
11.433656
21
3.306620
0
LINE
8
Layer 1
10
11.433656
20
3.306620
11
11.609497
21
3.962870
0
LINE
8
Layer 1
10
11.609497
20
3.962870
11
11.609500
21
3.962870
0
LINE
8
Layer 1
10
13.597000
20
3.963740
11
0.324249
21
3.963740
0
LINE
8
Layer 1
10
10.297000
20
3.963740
11
10.297000
21
0.661748
0
LINE
8
Layer 1
10
10.297000
20
3.963740
11
10.297000
21
7.263090
0
LINE
8
Layer 1
10
6.547000
20
1.339080
11
6.547000
21
6.588410
0
LINE
8
Layer 1
10
1.297000
20
2.651410
11
1.297000
21
5.276080
0
LINE
8
Layer 1
10
1.297000
20
5.276080
11
6.547000
21
6.588410
0
LINE
8
Layer 1
10
1.297000
20
2.651410
11
6.547000
21
1.339080
0
LINE
8
Layer 1
10
302.000000
20
0.000291
11
302.000000
21
14.999500
0
LINE
8
Layer 1
10
302.000000
20
420.000000
11
302.000000
21
405.000000
0
LINE
8
Layer 1
10
304.501000
20
11.665800
11
302.000000
21
6.667780
0
LINE
8
Layer 1
10
302.000000
20
6.667780
11
299.500000
21
11.665800
0
LINE
8
Layer 1
10
252.000000
20
5.000910
11
351.999000
21
5.000910
0
LINE
8
Layer 1
10
252.000000
20
10.001500
11
252.000000
21
5.000910
0
LINE
8
Layer 1
10
262.000000
20
5.000910
11
262.000000
21
10.001500
0
LINE
8
Layer 1
10
271.999000
20
5.000910
11
271.999000
21
10.001500
0
LINE
8
Layer 1
10
282.000000
20
5.000910
11
282.000000
21
10.001500
0
LINE
8
Layer 1
10
291.999000
20
5.000910
11
291.999000
21
10.001500
0
LINE
8
Layer 1
10
302.000000
20
5.000910
11
302.000000
21
10.001500
0
LINE
8
Layer 1
10
311.999000
20
5.000910
11
311.999000
21
10.001500
0
LINE
8
Layer 1
10
322.000000
20
5.000910
11
322.000000
21
10.001500
0
LINE
8
Layer 1
10
331.999000
20
5.000910
11
331.999000
21
10.001500
0
LINE
8
Layer 1
10
342.000000
20
5.000910
11
342.000000
21
10.001500
0
LINE
8
Layer 1
10
351.999000
20
5.000910
11
351.999000
21
10.001500
0
LINE
8
Layer 1
10
583.998000
20
410.000000
11
20.000000
21
410.000000
0
LINE
8
Layer 1
10
20.000000
20
10.001500
11
583.998000
21
10.001500
0
LINE
8
Layer 1
10
20.000000
20
410.000000
11
20.000000
21
10.001500
0
LINE
8
Layer 1
10
21.666600
20
212.500000
11
21.666600
21
207.500000
0
LINE
8
Layer 1
10
21.666600
20
207.500000
11
16.666600
21
210.000000
0
LINE
8
Layer 1
10
16.666600
20
210.000000
11
21.666600
21
212.500000
0
LINE
8
Layer 1
10
9.999990
20
210.000000
11
25.000000
21
210.000000
0
LINE
8
Layer 1
10
583.998000
20
10.001500
11
583.998000
21
410.000000
0
LINE
8
Layer 1
10
9.999990
20
0.000291
11
0.000000
21
0.000291
0
LINE
8
Layer 1
10
0.000000
20
0.000291
11
0.000000
21
10.001500
0
LINE
8
Layer 1
10
9.999990
20
420.000000
11
0.000000
21
420.000000
0
LINE
8
Layer 1
10
0.000000
20
420.000000
11
0.000000
21
410.000000
0
LINE
8
Layer 1
10
583.998000
20
420.000000
11
593.999000
21
420.000000
0
LINE
8
Layer 1
10
593.999000
20
420.000000
11
593.999000
21
410.000000
0
LINE
8
Layer 1
10
593.999000
20
210.000000
11
579.000000
21
210.000000
0
LINE
8
Layer 1
10
299.500000
20
11.665800
11
304.501000
21
11.665800
0
LINE
8
Layer 1
10
583.998000
20
10.001500
11
404.000000
21
10.001500
0
LINE
8
Layer 1
10
20.000000
20
102.000000
11
99.999900
21
102.000000
0
LINE
8
Layer 1
10
0.000000
20
11.999100
11
99.999900
21
11.999100
0
LINE
8
Layer 1
10
20.000000
20
30.001400
11
99.999900
21
30.001400
0
LINE
8
Layer 1
10
99.999900
20
156.000000
11
99.999900
21
176.000000
0
LINE
8
Layer 1
10
99.999900
20
132.000000
11
99.999900
21
126.000000
0
LINE
8
Layer 1
10
99.999900
20
138.000000
11
99.999900
21
132.000000
0
LINE
8
Layer 1
10
99.999900
20
138.000000
11
99.999900
21
156.000000
0
LINE
8
Layer 1
10
99.999900
20
108.000000
11
99.999900
21
126.000000
0
LINE
8
Layer 1
10
99.999900
20
108.000000
11
99.999900
21
102.000000
0
LINE
8
Layer 1
10
99.999900
20
102.000000
11
99.999900
21
60.000300
0
LINE
8
Layer 1
10
99.999900
20
54.000400
11
99.999900
21
17.999900
0
LINE
8
Layer 1
10
99.999900
20
6.001030
11
99.999900
21
0.000291
0
LINE
8
Layer 1
10
99.999900
20
60.000300
11
99.999900
21
54.000400
0
LINE
8
Layer 1
10
64.999800
20
132.000000
11
64.999800
21
126.000000
0
LINE
8
Layer 1
10
54.999900
20
132.000000
11
54.999900
21
126.000000
0
LINE
8
Layer 1
10
0.000000
20
132.000000
11
0.000000
21
126.000000
0
LINE
8
Layer 1
10
0.000000
20
108.000000
11
99.999900
21
108.000000
0
LINE
8
Layer 1
10
0.000000
20
126.000000
11
99.999900
21
126.000000
0
LINE
8
Layer 1
10
0.000000
20
120.000000
11
99.999900
21
120.000000
0
LINE
8
Layer 1
10
64.999800
20
138.000000
11
64.999800
21
132.000000
0
LINE
8
Layer 1
10
54.999900
20
138.000000
11
54.999900
21
132.000000
0
LINE
8
Layer 1
10
0.000000
20
138.000000
11
0.000000
21
132.000000
0
LINE
8
Layer 1
10
0.000000
20
132.000000
11
99.999900
21
132.000000
0
LINE
8
Layer 1
10
64.999800
20
138.000000
11
64.999800
21
156.000000
0
LINE
8
Layer 1
10
54.999900
20
138.000000
11
54.999900
21
156.000000
0
LINE
8
Layer 1
10
0.000000
20
156.000000
11
0.000000
21
138.000000
0
LINE
8
Layer 1
10
0.000000
20
138.000000
11
99.999900
21
138.000000
0
LINE
8
Layer 1
10
0.000000
20
144.000000
11
99.999900
21
144.000000
0
LINE
8
Layer 1
10
0.000000
20
150.000000
11
99.999900
21
150.000000
0
LINE
8
Layer 1
10
0.000000
20
156.000000
11
99.999900
21
156.000000
0
LINE
8
Layer 1
10
54.999900
20
108.000000
11
54.999900
21
126.000000
0
LINE
8
Layer 1
10
64.999800
20
108.000000
11
64.999800
21
126.000000
0
LINE
8
Layer 1
10
0.000000
20
126.000000
11
0.000000
21
120.000000
0
LINE
8
Layer 1
10
64.999800
20
108.000000
11
64.999800
21
102.000000
0
LINE
8
Layer 1
10
54.999900
20
108.000000
11
54.999900
21
102.000000
0
LINE
8
Layer 1
10
20.000000
20
102.000000
11
20.000000
21
108.000000
0
LINE
8
Layer 1
10
0.000000
20
72.000200
11
99.999900
21
72.000200
0
LINE
8
Layer 1
10
20.000000
20
90.000300
11
99.999900
21
90.000300
0
LINE
8
Layer 1
10
20.000000
20
96.000300
11
99.999900
21
96.000300
0
LINE
8
Layer 1
10
20.000000
20
60.000300
11
99.999900
21
60.000300
0
LINE
8
Layer 1
10
20.000000
20
78.000200
11
99.999900
21
78.000200
0
LINE
8
Layer 1
10
20.000000
20
84.000400
11
99.999900
21
84.000400
0
LINE
8
Layer 1
10
59.173700
20
67.069400
11
61.224200
21
67.069400
0
LINE
8
Layer 1
10
0.000000
20
108.000000
11
0.000000
21
72.000200
0
LINE
8
Layer 1
10
58.909400
20
59.088000
11
60.959900
21
59.088000
0
LINE
8
Layer 1
10
20.000000
20
60.000300
11
20.000000
21
108.000000
0
LINE
8
Layer 1
10
54.999900
20
102.000000
11
54.999900
21
60.000300
0
LINE
8
Layer 1
10
64.999800
20
102.000000
11
64.999800
21
60.000300
0
LINE
8
Layer 1
10
64.999800
20
54.000400
11
64.999800
21
17.999900
0
LINE
8
Layer 1
10
54.999900
20
54.000400
11
54.999900
21
17.999900
0
LINE
8
Layer 1
10
20.000000
20
30.001400
11
20.000000
21
54.000400
0
LINE
8
Layer 1
10
0.000000
20
42.000200
11
0.000000
21
17.999900
0
LINE
8
Layer 1
10
20.000000
20
30.001400
11
20.000000
21
24.000600
0
LINE
8
Layer 1
10
0.000000
20
6.001030
11
0.000000
21
0.000291
0
LINE
8
Layer 1
10
0.000000
20
0.000291
11
99.999900
21
0.000291
0
LINE
8
Layer 1
10
20.000000
20
36.000200
11
99.999900
21
36.000200
0
LINE
8
Layer 1
10
0.000000
20
6.001030
11
99.999900
21
6.001030
0
LINE
8
Layer 1
10
0.000000
20
17.999900
11
99.999900
21
17.999900
0
LINE
8
Layer 1
10
0.000000
20
24.000600
11
99.999900
21
24.000600
0
LINE
8
Layer 1
10
0.000000
20
42.000200
11
99.999900
21
42.000200
0
LINE
8
Layer 1
10
20.000000
20
54.000400
11
99.999900
21
54.000400
0
LINE
8
Layer 1
10
54.999900
20
6.001030
11
54.999900
21
0.000291
0
LINE
8
Layer 1
10
64.999800
20
6.001030
11
64.999800
21
0.000291
0
LINE
8
Layer 1
10
0.000000
20
72.000200
11
0.000000
21
42.000200
0
LINE
8
Layer 1
10
54.999900
20
60.000300
11
54.999900
21
54.000400
0
LINE
8
Layer 1
10
64.999800
20
60.000300
11
64.999800
21
54.000400
0
LINE
8
Layer 1
10
20.000000
20
60.000300
11
20.000000
21
54.000400
0
LINE
8
Layer 1
10
0.000000
20
120.000000
11
0.000000
21
108.000000
0
LINE
8
Layer 1
10
0.000000
20
114.000000
11
99.999900
21
114.000000
0
LINE
8
Layer 1
10
0.000000
20
17.999900
11
0.000000
21
6.001030
0
LINE
8
Layer 1
10
54.999900
20
17.999900
11
54.999900
21
6.001030
0
LINE
8
Layer 1
10
64.999800
20
17.999900
11
64.999800
21
6.001030
0
LINE
8
Layer 1
10
99.999900
20
17.999900
11
99.999900
21
6.001030
0
LINE
8
Layer 1
10
99.999900
20
90.000300
11
99.999900
21
110.000000
0
LINE
8
Layer 1
10
0.000000
20
48.000400
11
99.999900
21
48.000400
0
LINE
8
Layer 1
10
0.000000
20
54.000400
11
0.000000
21
42.000200
0
LINE
8
Layer 1
10
99.999900
20
36.000200
11
99.999900
21
24.000600
0
LINE
8
Layer 1
10
64.999800
20
36.000200
11
64.999800
21
24.000600
0
LINE
8
Layer 1
10
54.999900
20
36.000200
11
54.999900
21
24.000600
0
LINE
8
Layer 1
10
0.000000
20
36.000200
11
0.000000
21
24.000600
0
LINE
8
Layer 1
10
64.999800
20
42.000200
11
64.999800
21
36.000200
0
LINE
8
Layer 1
10
54.999900
20
42.000200
11
54.999900
21
36.000200
0
LINE
8
Layer 1
10
99.999900
20
42.000200
11
99.999900
21
36.000200
0
LINE
8
Layer 1
10
0.000000
20
42.000200
11
0.000000
21
36.000200
0
LINE
8
Layer 1
10
0.000000
20
42.000200
11
99.999900
21
42.000200
0
LINE
8
Layer 1
10
64.999800
20
24.000600
11
64.999800
21
17.999900
0
LINE
8
Layer 1
10
54.999900
20
24.000600
11
54.999900
21
17.999900
0
LINE
8
Layer 1
10
0.000000
20
0.000291
11
99.999900
21
0.000291
0
LINE
8
Layer 1
10
0.000000
20
36.000200
11
99.999900
21
36.000200
0
LINE
8
Layer 1
10
0.000000
20
30.001400
11
99.999900
21
30.001400
0
LINE
8
Layer 1
10
0.000000
20
24.000600
11
99.999900
21
24.000600
0
LINE
8
Layer 1
10
20.000000
20
6.001030
11
99.999900
21
6.001030
0
LINE
8
Layer 1
10
20.000000
20
11.999100
11
99.999900
21
11.999100
0
LINE
8
Layer 1
10
0.000000
20
17.999900
11
99.999900
21
17.999900
0
LINE
8
Layer 1
10
0.000000
20
24.000600
11
0.000000
21
17.999900
0
LINE
8
Layer 1
10
20.000000
20
6.001030
11
20.000000
21
0.000291
0
LINE
8
Layer 1
10
0.000000
20
17.999900
11
0.000000
21
0.000291
0
LINE
8
Layer 1
10
20.000000
20
6.001030
11
20.000000
21
17.999900
0
LINE
8
Layer 1
10
54.999900
20
17.999900
11
54.999900
21
0.000291
0
LINE
8
Layer 1
10
64.999800
20
17.999900
11
64.999800
21
0.000291
0
LINE
8
Layer 1
10
0.000000
20
60.000300
11
0.000000
21
54.000400
0
LINE
8
Layer 1
10
64.999800
20
42.000200
11
64.999800
21
60.000300
0
LINE
8
Layer 1
10
54.999900
20
42.000200
11
54.999900
21
60.000300
0
LINE
8
Layer 1
10
0.000000
20
90.000300
11
99.999900
21
90.000300
0
LINE
8
Layer 1
10
0.000000
20
84.000400
11
99.999900
21
84.000400
0
LINE
8
Layer 1
10
0.000000
20
78.000200
11
99.999900
21
78.000200
0
LINE
8
Layer 1
10
0.000000
20
72.000200
11
99.999900
21
72.000200
0
LINE
8
Layer 1
10
0.000000
20
90.000300
11
0.000000
21
72.000200
0
LINE
8
Layer 1
10
54.999900
20
72.000200
11
54.999900
21
90.000300
0
LINE
8
Layer 1
10
64.999800
20
72.000200
11
64.999800
21
90.000300
0
LINE
8
Layer 1
10
0.000000
20
66.000300
11
99.999900
21
66.000300
0
LINE
8
Layer 1
10
0.000000
20
72.000200
11
0.000000
21
66.000300
0
LINE
8
Layer 1
10
54.999900
20
72.000200
11
54.999900
21
66.000300
0
LINE
8
Layer 1
10
64.999800
20
72.000200
11
64.999800
21
66.000300
0
LINE
8
Layer 1
10
0.000000
20
54.000400
11
99.999900
21
54.000400
0
LINE
8
Layer 1
10
0.000000
20
60.000300
11
99.999900
21
60.000300
0
LINE
8
Layer 1
10
0.000000
20
66.000300
11
0.000000
21
60.000300
0
LINE
8
Layer 1
10
54.999900
20
66.000300
11
54.999900
21
60.000300
0
LINE
8
Layer 1
10
64.999800
20
66.000300
11
64.999800
21
60.000300
0
LINE
8
Layer 1
10
99.999900
20
24.000600
11
99.999900
21
17.999900
0
LINE
8
Layer 1
10
99.999900
20
17.999900
11
99.999900
21
0.000291
0
LINE
8
Layer 1
10
99.999900
20
42.000200
11
99.999900
21
60.000300
0
LINE
8
Layer 1
10
99.999900
20
72.000200
11
99.999900
21
90.000300
0
LINE
8
Layer 1
10
99.999900
20
72.000200
11
99.999900
21
66.000300
0
LINE
8
Layer 1
10
99.999900
20
66.000300
11
99.999900
21
60.000300
0
LINE
8
Layer 1
10
69.999900
20
56.000300
11
69.999900
21
0.000291
0
LINE
8
Layer 1
10
89.999800
20
0.000291
11
89.999800
21
56.000300
0
LINE
8
Layer 1
10
0.000000
20
56.000300
11
0.000000
21
0.000291
0
LINE
8
Layer 1
10
20.000000
20
7.001160
11
89.999800
21
7.001160
0
LINE
8
Layer 1
10
0.000000
20
13.999400
11
89.999800
21
13.999400
0
LINE
8
Layer 1
10
0.000000
20
21.000200
11
89.999800
21
21.000200
0
LINE
8
Layer 1
10
0.000000
20
0.000291
11
89.999800
21
0.000291
0
LINE
8
Layer 1
10
20.000000
20
0.000291
11
20.000000
21
13.999400
0
LINE
8
Layer 1
10
0.000000
20
28.001100
11
89.999800
21
28.001100
0
LINE
8
Layer 1
10
0.000000
20
35.000400
11
89.999800
21
35.000400
0
LINE
8
Layer 1
10
0.000000
20
42.000200
11
89.999800
21
42.000200
0
LINE
8
Layer 1
10
0.000000
20
49.000300
11
89.999800
21
49.000300
0
LINE
8
Layer 1
10
89.999800
20
56.000300
11
0.000000
21
56.000300
0
LINE
8
Layer 1
10
89.999800
20
56.000300
11
89.999800
21
76.000200
0
LINE
8
Layer 1
10
274.039000
20
178.658000
11
374.041000
21
178.658000
0
LINE
8
Layer 1
10
294.039000
20
127.337000
11
374.041000
21
127.337000
0
LINE
8
Layer 1
10
374.041000
20
232.658000
11
374.041000
21
252.658000
0
LINE
8
Layer 1
10
374.041000
20
208.658000
11
374.041000
21
202.658000
0
LINE
8
Layer 1
10
374.041000
20
214.658000
11
374.041000
21
208.658000
0
LINE
8
Layer 1
10
374.041000
20
214.658000
11
374.041000
21
232.658000
0
LINE
8
Layer 1
10
374.041000
20
184.658000
11
374.041000
21
202.658000
0
LINE
8
Layer 1
10
374.041000
20
184.658000
11
374.041000
21
178.658000
0
LINE
8
Layer 1
10
374.041000
20
178.658000
11
374.041000
21
136.658000
0
LINE
8
Layer 1
10
374.041000
20
130.658000
11
374.041000
21
110.248000
0
LINE
8
Layer 1
10
374.041000
20
136.658000
11
374.041000
21
130.658000
0
LINE
8
Layer 1
10
329.041000
20
208.658000
11
329.041000
21
202.658000
0
LINE
8
Layer 1
10
274.039000
20
208.658000
11
274.039000
21
202.658000
0
LINE
8
Layer 1
10
274.039000
20
184.658000
11
374.041000
21
184.658000
0
LINE
8
Layer 1
10
274.039000
20
202.658000
11
374.041000
21
202.658000
0
LINE
8
Layer 1
10
274.039000
20
196.658000
11
374.041000
21
196.658000
0
LINE
8
Layer 1
10
339.039000
20
214.658000
11
339.039000
21
208.658000
0
LINE
8
Layer 1
10
329.041000
20
214.658000
11
329.041000
21
208.658000
0
LINE
8
Layer 1
10
274.039000
20
214.658000
11
274.039000
21
208.658000
0
LINE
8
Layer 1
10
274.039000
20
208.658000
11
374.041000
21
208.658000
0
LINE
8
Layer 1
10
339.039000
20
214.658000
11
339.039000
21
226.658000
0
LINE
8
Layer 1
10
329.041000
20
214.658000
11
329.041000
21
232.658000
0
LINE
8
Layer 1
10
274.039000
20
232.658000
11
274.039000
21
214.658000
0
LINE
8
Layer 1
10
274.039000
20
214.658000
11
374.041000
21
214.658000
0
LINE
8
Layer 1
10
292.018000
20
220.658000
11
374.041000
21
220.658000
0
LINE
8
Layer 1
10
292.018000
20
226.658000
11
374.041000
21
226.658000
0
LINE
8
Layer 1
10
274.039000
20
232.658000
11
374.041000
21
232.658000
0
LINE
8
Layer 1
10
329.041000
20
184.658000
11
329.041000
21
202.658000
0
LINE
8
Layer 1
10
339.039000
20
184.658000
11
339.039000
21
202.658000
0
LINE
8
Layer 1
10
274.039000
20
202.658000
11
274.039000
21
196.658000
0
LINE
8
Layer 1
10
339.039000
20
184.658000
11
339.039000
21
178.658000
0
LINE
8
Layer 1
10
329.041000
20
184.658000
11
329.041000
21
178.658000
0
LINE
8
Layer 1
10
274.039000
20
166.658000
11
374.041000
21
166.658000
0
LINE
8
Layer 1
10
274.039000
20
172.658000
11
374.041000
21
172.658000
0
LINE
8
Layer 1
10
294.039000
20
147.464000
11
374.041000
21
147.464000
0
LINE
8
Layer 1
10
274.039000
20
154.658000
11
374.041000
21
154.658000
0
LINE
8
Layer 1
10
274.039000
20
160.658000
11
374.041000
21
160.658000
0
LINE
8
Layer 1
10
274.039000
20
184.658000
11
274.039000
21
110.248000
0
LINE
8
Layer 1
10
329.041000
20
178.658000
11
329.041000
21
136.658000
0
LINE
8
Layer 1
10
339.039000
20
178.658000
11
339.039000
21
136.658000
0
LINE
8
Layer 1
10
339.039000
20
130.658000
11
339.039000
21
110.248000
0
LINE
8
Layer 1
10
329.041000
20
130.658000
11
329.041000
21
110.248000
0
LINE
8
Layer 1
10
294.039000
20
110.248000
11
294.039000
21
154.658000
0
LINE
8
Layer 1
10
274.039000
20
110.248000
11
374.041000
21
110.248000
0
LINE
8
Layer 1
10
294.039000
20
137.401000
11
374.041000
21
137.401000
0
LINE
8
Layer 1
10
329.041000
20
136.658000
11
329.041000
21
130.658000
0
LINE
8
Layer 1
10
339.039000
20
136.658000
11
339.039000
21
130.658000
0
LINE
8
Layer 1
10
294.039000
20
136.658000
11
294.039000
21
130.658000
0
LINE
8
Layer 1
10
274.039000
20
196.658000
11
274.039000
21
184.658000
0
LINE
8
Layer 1
10
274.039000
20
190.658000
11
374.041000
21
190.658000
0
LINE
8
Layer 1
10
292.018000
20
232.658000
11
292.018000
21
214.658000
0
LINE
8
Layer 1
10
445.582000
20
264.167000
11
445.074000
21
260.865000
0
LINE
8
Layer 1
10
445.074000
20
260.865000
11
446.090000
21
260.865000
0
LINE
8
Layer 1
10
446.090000
20
260.865000
11
445.582000
21
264.167000
0
LINE
8
Layer 1
10
445.582000
20
179.167000
11
446.090000
21
182.469000
0
LINE
8
Layer 1
10
446.090000
20
182.469000
11
445.074000
21
182.469000
0
LINE
8
Layer 1
10
445.074000
20
182.469000
11
445.582000
21
179.167000
0
LINE
8
Layer 1
10
345.495000
20
264.167000
11
446.582000
21
264.167000
0
LINE
8
Layer 1
10
304.995000
20
179.167000
11
446.582000
21
179.167000
0
LINE
8
Layer 1
10
445.582000
20
264.167000
11
445.582000
21
179.167000
0
LINE
8
Layer 1
10
261.496000
20
221.631000
11
258.194000
21
222.139000
0
LINE
8
Layer 1
10
258.194000
20
222.139000
11
258.194000
21
221.123000
0
LINE
8
Layer 1
10
258.194000
20
221.123000
11
261.496000
21
221.631000
0
LINE
8
Layer 1
10
263.496000
20
221.631000
11
266.798000
21
221.123000
0
LINE
8
Layer 1
10
266.798000
20
221.123000
11
266.798000
21
222.139000
0
LINE
8
Layer 1
10
266.798000
20
222.139000
11
263.496000
21
221.631000
0
LINE
8
Layer 1
10
261.496000
20
220.667000
11
261.496000
21
220.631000
0
LINE
8
Layer 1
10
263.496000
20
220.667000
11
263.496000
21
220.631000
0
LINE
8
Layer 1
10
261.496000
20
221.631000
11
255.146000
21
221.631000
0
LINE
8
Layer 1
10
261.496000
20
221.631000
11
263.496000
21
221.631000
0
LINE
8
Layer 1
10
263.496000
20
221.631000
11
266.745000
21
221.631000
0
LINE
8
Layer 1
10
261.496000
20
253.255000
11
264.797000
21
252.747000
0
LINE
8
Layer 1
10
264.797000
20
252.747000
11
264.797000
21
253.763000
0
LINE
8
Layer 1
10
264.797000
20
253.763000
11
261.496000
21
253.255000
0
LINE
8
Layer 1
10
346.495000
20
253.255000
11
343.193000
21
253.763000
0
LINE
8
Layer 1
10
343.193000
20
253.763000
11
343.193000
21
252.747000
0
LINE
8
Layer 1
10
343.193000
20
252.747000
11
346.495000
21
253.255000
0
LINE
8
Layer 1
10
346.495000
20
223.667000
11
346.495000
21
254.256000
0
LINE
8
Layer 1
10
261.496000
20
253.255000
11
346.495000
21
253.255000
0
LINE
8
Layer 1
10
10.583500
20
328.376000
11
13.885500
21
327.868000
0
LINE
8
Layer 1
10
13.885500
20
327.868000
11
13.885500
21
328.884000
0
LINE
8
Layer 1
10
13.885500
20
328.884000
11
10.583500
21
328.376000
0
LINE
8
Layer 1
10
95.583500
20
328.376000
11
92.281500
21
328.884000
0
LINE
8
Layer 1
10
92.281500
20
328.884000
11
92.281500
21
327.868000
0
LINE
8
Layer 1
10
92.281500
20
327.868000
11
95.583500
21
328.376000
0
LINE
8
Layer 1
10
10.583500
20
269.927000
11
10.583500
21
329.376000
0
LINE
8
Layer 1
10
95.583500
20
269.927000
11
95.583500
21
329.376000
0
LINE
8
Layer 1
10
10.583500
20
328.376000
11
95.583500
21
328.376000
0
LINE
8
Layer 1
10
38.888900
20
268.927000
11
39.396900
21
272.229000
0
LINE
8
Layer 1
10
39.396900
20
272.229000
11
38.380900
21
272.229000
0
LINE
8
Layer 1
10
38.380900
20
272.229000
11
38.888900
21
268.927000
0
LINE
8
Layer 1
10
38.888900
20
266.927000
11
38.380900
21
263.625000
0
LINE
8
Layer 1
10
38.380900
20
263.625000
11
39.396900
21
263.625000
0
LINE
8
Layer 1
10
39.396900
20
263.625000
11
38.888900
21
266.927000
0
LINE
8
Layer 1
10
47.083300
20
268.927000
11
37.888800
21
268.927000
0
LINE
8
Layer 1
10
47.083300
20
266.927000
11
37.888800
21
266.927000
0
LINE
8
Layer 1
10
38.888900
20
268.927000
11
38.888900
21
275.277000
0
LINE
8
Layer 1
10
38.888900
20
268.927000
11
38.888900
21
266.927000
0
LINE
8
Layer 1
10
38.888900
20
266.927000
11
38.888900
21
264.947000
0
LINE
8
Layer 1
10
10.583500
20
242.327000
11
13.885500
21
241.819000
0
LINE
8
Layer 1
10
13.885500
20
241.819000
11
13.885500
21
242.835000
0
LINE
8
Layer 1
10
13.885500
20
242.835000
11
10.583500
21
242.327000
0
LINE
8
Layer 1
10
8.583500
20
242.327000
11
5.281500
21
242.835000
0
LINE
8
Layer 1
10
5.281500
20
242.835000
11
5.281500
21
241.819000
0
LINE
8
Layer 1
10
5.281500
20
241.819000
11
8.583500
21
242.327000
0
LINE
8
Layer 1
10
10.583500
20
232.427000
11
10.583500
21
243.327000
0
LINE
8
Layer 1
10
8.583500
20
232.427000
11
8.583500
21
243.327000
0
LINE
8
Layer 1
10
10.583500
20
242.327000
11
16.933500
21
242.327000
0
LINE
8
Layer 1
10
10.583500
20
242.327000
11
8.583500
21
242.327000
0
LINE
8
Layer 1
10
8.583500
20
242.327000
11
2.233510
21
242.327000
0
LINE
8
Layer 1
10
1.233350
20
231.427000
11
0.725349
21
228.125000
0
LINE
8
Layer 1
10
0.725349
20
228.125000
11
1.741350
21
228.125000
0
LINE
8
Layer 1
10
1.741350
20
228.125000
11
1.233350
21
231.427000
0
LINE
8
Layer 1
10
1.233350
20
191.427000
11
1.741350
21
194.729000
0
LINE
8
Layer 1
10
1.741350
20
194.729000
11
0.725349
21
194.729000
0
LINE
8
Layer 1
10
0.725349
20
194.729000
11
1.233350
21
191.427000
0
LINE
8
Layer 1
10
7.583500
20
231.427000
11
0.233349
21
231.427000
0
LINE
8
Layer 1
10
7.583500
20
191.427000
11
0.233349
21
191.427000
0
LINE
8
Layer 1
10
1.233350
20
231.427000
11
1.233350
21
191.427000
0
LINE
8
Layer 1
10
113.110000
20
268.927000
11
112.602000
21
265.625000
0
LINE
8
Layer 1
10
112.602000
20
265.625000
11
113.618000
21
265.625000
0
LINE
8
Layer 1
10
113.618000
20
265.625000
11
113.110000
21
268.927000
0
LINE
8
Layer 1
10
113.110000
20
153.927000
11
113.618000
21
157.229000
0
LINE
8
Layer 1
10
113.618000
20
157.229000
11
112.602000
21
157.229000
0
LINE
8
Layer 1
10
112.602000
20
157.229000
11
113.110000
21
153.927000
0
LINE
8
Layer 1
10
96.583400
20
268.927000
11
114.110000
21
268.927000
0
LINE
8
Layer 1
10
96.583400
20
153.927000
11
114.110000
21
153.927000
0
LINE
8
Layer 1
10
113.110000
20
268.927000
11
113.110000
21
153.927000
0
LINE
8
Layer 1
10
353.491000
20
157.942000
11
352.983000
21
154.640000
0
LINE
8
Layer 1
10
352.983000
20
154.640000
11
353.999000
21
154.640000
0
LINE
8
Layer 1
10
353.999000
20
154.640000
11
353.491000
21
157.942000
0
LINE
8
Layer 1
10
353.491000
20
72.942100
11
353.999000
21
76.244100
0
LINE
8
Layer 1
10
353.999000
20
76.244100
11
352.983000
21
76.244100
0
LINE
8
Layer 1
10
352.983000
20
76.244100
11
353.491000
21
72.942100
0
LINE
8
Layer 1
10
283.681000
20
157.942000
11
354.491000
21
157.942000
0
LINE
8
Layer 1
10
283.681000
20
72.942100
11
354.491000
21
72.942100
0
LINE
8
Layer 1
10
353.491000
20
157.942000
11
353.491000
21
72.942100
0
LINE
8
Layer 1
10
48.083500
20
242.327000
11
44.781500
21
242.835000
0
LINE
8
Layer 1
10
44.781500
20
242.835000
11
44.781500
21
241.819000
0
LINE
8
Layer 1
10
44.781500
20
241.819000
11
48.083500
21
242.327000
0
LINE
8
Layer 1
10
58.083400
20
242.327000
11
61.385400
21
241.819000
0
LINE
8
Layer 1
10
61.385400
20
241.819000
11
61.385400
21
242.835000
0
LINE
8
Layer 1
10
61.385400
20
242.835000
11
58.083400
21
242.327000
0
LINE
8
Layer 1
10
48.083500
20
265.927000
11
48.083500
21
241.327000
0
LINE
8
Layer 1
10
58.083400
20
265.927000
11
58.083400
21
241.327000
0
LINE
8
Layer 1
10
48.083500
20
242.327000
11
41.733500
21
242.327000
0
LINE
8
Layer 1
10
48.083500
20
242.327000
11
58.083400
21
242.327000
0
LINE
8
Layer 1
10
58.083400
20
242.327000
11
64.433400
21
242.327000
0
LINE
8
Layer 1
10
10.583500
20
252.992000
11
13.885500
21
252.484000
0
LINE
8
Layer 1
10
13.885500
20
252.484000
11
13.885500
21
253.500000
0
LINE
8
Layer 1
10
13.885500
20
253.500000
11
10.583500
21
252.992000
0
LINE
8
Layer 1
10
48.083500
20
252.992000
11
44.781500
21
253.500000
0
LINE
8
Layer 1
10
44.781500
20
253.500000
11
44.781500
21
252.484000
0
LINE
8
Layer 1
10
44.781500
20
252.484000
11
48.083500
21
252.992000
0
LINE
8
Layer 1
10
10.583500
20
267.927000
11
10.583500
21
251.992000
0
LINE
8
Layer 1
10
48.083500
20
267.927000
11
48.083500
21
251.992000
0
LINE
8
Layer 1
10
10.583500
20
252.992000
11
48.083500
21
252.992000
0
LINE
8
Layer 1
10
272.679000
20
169.134000
11
269.377000
21
169.642000
0
LINE
8
Layer 1
10
269.377000
20
169.642000
11
269.377000
21
168.626000
0
LINE
8
Layer 1
10
269.377000
20
168.626000
11
272.679000
21
169.134000
0
LINE
8
Layer 1
10
282.680000
20
169.134000
11
285.982000
21
168.626000
0
LINE
8
Layer 1
10
285.982000
20
168.626000
11
285.982000
21
169.642000
0
LINE
8
Layer 1
10
285.982000
20
169.642000
11
282.680000
21
169.134000
0
LINE
8
Layer 1
10
272.679000
20
158.942000
11
272.679000
21
170.134000
0
LINE
8
Layer 1
10
282.680000
20
158.942000
11
282.680000
21
170.134000
0
LINE
8
Layer 1
10
272.679000
20
169.134000
11
266.329000
21
169.134000
0
LINE
8
Layer 1
10
272.679000
20
169.134000
11
282.680000
21
169.134000
0
LINE
8
Layer 1
10
282.680000
20
169.134000
11
289.030000
21
169.134000
0
LINE
8
Layer 1
10
425.521000
20
-0.002355
11
425.521000
21
14.999500
0
LINE
8
Layer 1
10
741.020000
20
47.998800
11
741.020000
21
37.998900
0
LINE
8
Layer 1
10
821.869000
20
47.998800
11
821.869000
21
37.998900
0
LINE
8
Layer 1
10
651.020000
20
29.998700
11
831.018000
21
29.998700
0
LINE
8
Layer 1
10
723.021000
20
37.998900
11
723.021000
21
29.998700
0
LINE
8
Layer 1
10
425.521000
20
593.997000
11
425.521000
21
578.998000
0
LINE
8
Layer 1
10
428.019000
20
11.665800
11
425.521000
21
6.665140
0
LINE
8
Layer 1
10
425.521000
20
6.665140
11
423.021000
21
11.665800
0
LINE
8
Layer 1
10
375.520000
20
4.998260
11
475.519000
21
4.998260
0
LINE
8
Layer 1
10
375.520000
20
9.998880
11
375.520000
21
4.998260
0
LINE
8
Layer 1
10
385.519000
20
4.998260
11
385.519000
21
9.998880
0
LINE
8
Layer 1
10
395.520000
20
4.998260
11
395.520000
21
9.998880
0
LINE
8
Layer 1
10
405.521000
20
4.998260
11
405.521000
21
9.998880
0
LINE
8
Layer 1
10
415.520000
20
4.998260
11
415.520000
21
9.998880
0
LINE
8
Layer 1
10
435.519000
20
4.998260
11
435.519000
21
9.998880
0
LINE
8
Layer 1
10
445.521000
20
4.998260
11
445.521000
21
9.998880
0
LINE
8
Layer 1
10
455.519000
20
4.998260
11
455.519000
21
9.998880
0
LINE
8
Layer 1
10
465.521000
20
4.998260
11
465.521000
21
9.998880
0
LINE
8
Layer 1
10
475.519000
20
4.998260
11
475.519000
21
9.998880
0
LINE
8
Layer 1
10
831.018000
20
583.998000
11
20.020400
21
583.998000
0
LINE
8
Layer 1
10
20.020400
20
9.998880
11
831.018000
21
9.998880
0
LINE
8
Layer 1
10
20.020400
20
583.998000
11
20.020400
21
9.998880
0
LINE
8
Layer 1
10
21.687000
20
299.498000
11
21.687000
21
294.498000
0
LINE
8
Layer 1
10
21.687000
20
294.498000
11
16.687000
21
296.998000
0
LINE
8
Layer 1
10
16.687000
20
296.998000
11
21.687000
21
299.498000
0
LINE
8
Layer 1
10
10.020400
20
296.998000
11
25.020300
21
296.998000
0
LINE
8
Layer 1
10
831.018000
20
9.998880
11
831.018000
21
583.998000
0
LINE
8
Layer 1
10
10.020400
20
-0.002355
11
0.020378
21
-0.002355
0
LINE
8
Layer 1
10
0.020378
20
-0.002355
11
0.020378
21
9.998880
0
LINE
8
Layer 1
10
831.018000
20
-0.002355
11
841.019000
21
-0.002355
0
LINE
8
Layer 1
10
841.019000
20
-0.002355
11
841.019000
21
9.998880
0
LINE
8
Layer 1
10
10.020400
20
593.997000
11
0.020378
21
593.997000
0
LINE
8
Layer 1
10
0.020378
20
593.997000
11
0.020378
21
583.998000
0
LINE
8
Layer 1
10
831.018000
20
593.997000
11
841.019000
21
593.997000
0
LINE
8
Layer 1
10
841.019000
20
593.997000
11
841.019000
21
583.998000
0
LINE
8
Layer 1
10
841.019000
20
296.998000
11
826.020000
21
296.998000
0
LINE
8
Layer 1
10
423.021000
20
11.665800
11
428.019000
21
11.665800
0
LINE
8
Layer 1
10
671.020000
20
47.998800
11
671.020000
21
37.998900
0
LINE
8
Layer 1
10
797.019000
20
29.998700
11
797.019000
21
21.997700
0
LINE
8
Layer 1
10
831.018000
20
47.998800
11
831.018000
21
9.998880
0
LINE
8
Layer 1
10
711.019000
20
9.998880
11
711.019000
21
29.998700
0
LINE
8
Layer 1
10
651.020000
20
21.997700
11
830.955000
21
21.997700
0
LINE
8
Layer 1
10
756.019000
20
47.998800
11
756.019000
21
37.998900
0
LINE
8
Layer 1
10
776.019000
20
37.998900
11
776.019000
21
29.998700
0
LINE
8
Layer 1
10
651.020000
20
47.998800
11
831.018000
21
47.998800
0
LINE
8
Layer 1
10
651.020000
20
47.998800
11
651.020000
21
9.998880
0
LINE
8
Layer 1
10
691.019000
20
21.997700
11
691.019000
21
9.998880
0
LINE
8
Layer 1
10
805.020000
20
47.998800
11
805.020000
21
37.998900
0
LINE
8
Layer 1
10
651.020000
20
42.998700
11
830.955000
21
42.998700
0
LINE
8
Layer 1
10
651.020000
20
37.998900
11
831.018000
21
37.998900
0
LINE
8
Layer 1
10
768.018000
20
21.997700
11
768.018000
21
9.998880
0
LINE
8
Layer 1
10
651.020000
20
9.998880
11
831.018000
21
9.998880
0
LINE
8
Layer 1
10
741.020000
20
29.998700
11
740.986000
21
21.997700
0
LINE
8
Layer 1
10
0.078843
20
0.214603
11
420.078000
21
0.214603
0
LINE
8
Layer 1
10
0.078843
20
0.214603
11
0.078843
21
297.215000
0
LINE
8
Layer 1
10
0.078843
20
297.215000
11
420.078000
21
297.215000
0
LINE
8
Layer 1
10
420.078000
20
0.214603
11
420.078000
21
297.215000
0
LINE
8
Layer 1
10
194.913000
20
270.762000
11
194.913000
21
30.763400
0
LINE
8
Layer 1
10
14.913100
20
270.762000
11
194.913000
21
270.762000
0
LINE
8
Layer 1
10
14.913100
20
258.762000
11
194.913000
21
258.762000
0
LINE
8
Layer 1
10
14.913100
20
270.762000
11
14.913100
21
30.763400
0
LINE
8
Layer 1
10
26.913100
20
270.762000
11
26.913100
21
30.763400
0
LINE
8
Layer 1
10
182.913000
20
270.762000
11
182.913000
21
30.763400
0
LINE
8
Layer 1
10
26.913100
20
264.762000
11
194.913000
21
264.762000
0
LINE
8
Layer 1
10
26.913100
20
252.762000
11
194.913000
21
252.762000
0
LINE
8
Layer 1
10
14.913100
20
246.762000
11
194.913000
21
246.762000
0
LINE
8
Layer 1
10
26.913100
20
240.762000
11
194.913000
21
240.762000
0
LINE
8
Layer 1
10
14.913100
20
234.762000
11
194.913000
21
234.762000
0
LINE
8
Layer 1
10
26.913100
20
228.762000
11
194.913000
21
228.762000
0
LINE
8
Layer 1
10
14.913100
20
222.762000
11
194.913000
21
222.762000
0
LINE
8
Layer 1
10
26.913100
20
216.762000
11
194.913000
21
216.762000
0
LINE
8
Layer 1
10
14.913100
20
210.762000
11
194.913000
21
210.762000
0
LINE
8
Layer 1
10
26.913100
20
204.762000
11
194.913000
21
204.762000
0
LINE
8
Layer 1
10
14.913100
20
198.762000
11
194.913000
21
198.762000
0
LINE
8
Layer 1
10
26.913100
20
192.762000
11
194.913000
21
192.762000
0
LINE
8
Layer 1
10
14.913100
20
186.762000
11
194.913000
21
186.762000
0
LINE
8
Layer 1
10
26.913100
20
180.762000
11
194.913000
21
180.762000
0
LINE
8
Layer 1
10
14.913100
20
174.762000
11
194.913000
21
174.762000
0
LINE
8
Layer 1
10
26.913100
20
168.762000
11
194.913000
21
168.762000
0
LINE
8
Layer 1
10
14.913100
20
162.762000
11
194.913000
21
162.762000
0
LINE
8
Layer 1
10
26.913100
20
156.762000
11
194.913000
21
156.762000
0
LINE
8
Layer 1
10
14.913100
20
150.762000
11
194.913000
21
150.762000
0
LINE
8
Layer 1
10
26.913100
20
144.762000
11
194.913000
21
144.762000
0
LINE
8
Layer 1
10
14.913100
20
138.762000
11
194.913000
21
138.762000
0
LINE
8
Layer 1
10
26.913100
20
132.762000
11
194.913000
21
132.762000
0
LINE
8
Layer 1
10
14.913100
20
126.762000
11
194.913000
21
126.762000
0
LINE
8
Layer 1
10
26.913100
20
120.762000
11
194.913000
21
120.762000
0
LINE
8
Layer 1
10
14.913100
20
114.762000
11
194.913000
21
114.762000
0
LINE
8
Layer 1
10
26.913100
20
108.762000
11
194.913000
21
108.762000
0
LINE
8
Layer 1
10
14.913100
20
102.762000
11
194.913000
21
102.762000
0
LINE
8
Layer 1
10
26.913100
20
96.762500
11
194.913000
21
96.762500
0
LINE
8
Layer 1
10
14.913100
20
90.762300
11
194.913000
21
90.762300
0
LINE
8
Layer 1
10
26.913100
20
84.762400
11
194.913000
21
84.762400
0
LINE
8
Layer 1
10
14.913100
20
78.762400
11
194.913000
21
78.762400
0
LINE
8
Layer 1
10
26.913100
20
72.762500
11
194.913000
21
72.762500
0
LINE
8
Layer 1
10
14.913100
20
66.762500
11
194.913000
21
66.762500
0
LINE
8
Layer 1
10
26.913100
20
60.762600
11
194.913000
21
60.762600
0
LINE
8
Layer 1
10
14.913100
20
54.762600
11
194.913000
21
54.762600
0
LINE
8
Layer 1
10
26.913100
20
48.762400
11
194.913000
21
48.762400
0
LINE
8
Layer 1
10
14.913100
20
42.762500
11
194.913000
21
42.762500
0
LINE
8
Layer 1
10
26.913100
20
36.762500
11
194.913000
21
36.762500
0
LINE
8
Layer 1
10
14.913100
20
30.763400
11
194.913000
21
30.763400
0
LINE
8
Layer 1
10
119.512000
20
270.762000
11
119.512000
21
30.763400
0
LINE
8
Layer 1
10
20.029800
20
286.928000
11
200.030000
21
286.928000
0
LINE
8
Layer 1
10
20.029800
20
286.928000
11
20.029800
21
106.928000
0
LINE
8
Layer 1
10
200.030000
20
286.928000
11
200.030000
21
106.928000
0
LINE
8
Layer 1
10
20.029800
20
274.928000
11
200.030000
21
274.928000
0
LINE
8
Layer 1
10
32.029900
20
286.928000
11
32.029900
21
46.928300
0
LINE
8
Layer 1
10
188.030000
20
286.928000
11
188.030000
21
46.928300
0
LINE
8
Layer 1
10
32.029900
20
280.928000
11
200.030000
21
280.928000
0
LINE
8
Layer 1
10
32.029900
20
268.928000
11
200.030000
21
268.928000
0
LINE
8
Layer 1
10
20.029800
20
262.928000
11
200.030000
21
262.928000
0
LINE
8
Layer 1
10
32.029900
20
256.928000
11
200.030000
21
256.928000
0
LINE
8
Layer 1
10
20.029800
20
250.928000
11
200.030000
21
250.928000
0
LINE
8
Layer 1
10
32.029900
20
244.928000
11
200.030000
21
244.928000
0
LINE
8
Layer 1
10
20.029800
20
238.928000
11
200.030000
21
238.928000
0
LINE
8
Layer 1
10
32.029900
20
232.928000
11
200.030000
21
232.928000
0
LINE
8
Layer 1
10
20.029800
20
226.928000
11
200.030000
21
226.928000
0
LINE
8
Layer 1
10
32.029900
20
220.928000
11
200.030000
21
220.928000
0
LINE
8
Layer 1
10
20.029800
20
214.928000
11
200.030000
21
214.928000
0
LINE
8
Layer 1
10
32.029900
20
208.928000
11
200.030000
21
208.928000
0
LINE
8
Layer 1
10
20.029800
20
202.928000
11
200.030000
21
202.928000
0
LINE
8
Layer 1
10
32.029900
20
196.928000
11
200.030000
21
196.928000
0
LINE
8
Layer 1
10
20.029800
20
190.928000
11
200.030000
21
190.928000
0
LINE
8
Layer 1
10
32.029900
20
184.928000
11
200.030000
21
184.928000
0
LINE
8
Layer 1
10
20.029800
20
178.928000
11
200.030000
21
178.928000
0
LINE
8
Layer 1
10
32.029900
20
172.928000
11
200.030000
21
172.928000
0
LINE
8
Layer 1
10
20.029800
20
166.928000
11
200.030000
21
166.928000
0
LINE
8
Layer 1
10
32.029900
20
160.928000
11
200.030000
21
160.928000
0
LINE
8
Layer 1
10
20.029800
20
154.928000
11
200.030000
21
154.928000
0
LINE
8
Layer 1
10
32.029900
20
148.928000
11
200.030000
21
148.928000
0
LINE
8
Layer 1
10
20.029800
20
142.928000
11
200.030000
21
142.928000
0
LINE
8
Layer 1
10
32.029900
20
136.928000
11
200.030000
21
136.928000
0
LINE
8
Layer 1
10
20.029800
20
130.928000
11
200.030000
21
130.928000
0
LINE
8
Layer 1
10
32.029900
20
124.928000
11
200.030000
21
124.928000
0
LINE
8
Layer 1
10
20.029800
20
118.928000
11
200.030000
21
118.928000
0
LINE
8
Layer 1
10
32.029900
20
112.928000
11
200.030000
21
112.928000
0
LINE
8
Layer 1
10
20.029800
20
106.928000
11
200.030000
21
106.928000
0
LINE
8
Layer 1
10
32.029900
20
100.928000
11
200.030000
21
100.928000
0
LINE
8
Layer 1
10
20.029800
20
94.928200
11
200.030000
21
94.928200
0
LINE
8
Layer 1
10
32.029900
20
88.928200
11
200.030000
21
88.928200
0
LINE
8
Layer 1
10
20.029800
20
82.928300
11
200.030000
21
82.928300
0
LINE
8
Layer 1
10
32.029900
20
76.928100
11
200.030000
21
76.928100
0
LINE
8
Layer 1
10
20.029800
20
70.928100
11
200.030000
21
70.928100
0
LINE
8
Layer 1
10
32.029900
20
64.928200
11
200.030000
21
64.928200
0
LINE
8
Layer 1
10
20.029800
20
58.928200
11
200.030000
21
58.928200
0
LINE
8
Layer 1
10
32.029900
20
52.928300
11
200.030000
21
52.928300
0
LINE
8
Layer 1
10
20.029800
20
46.928300
11
200.030000
21
46.928300
0
LINE
8
Layer 1
10
124.628000
20
286.928000
11
124.628000
21
46.928300
0
LINE
8
Layer 1
10
110.030000
20
-0.071147
11
110.030000
21
14.928100
0
LINE
8
Layer 1
10
110.030000
20
296.928000
11
110.030000
21
281.928000
0
LINE
8
Layer 1
10
107.530000
20
11.594300
11
112.530000
21
11.594300
0
LINE
8
Layer 1
10
112.530000
20
11.594300
11
110.030000
21
6.593700
0
LINE
8
Layer 1
10
110.030000
20
6.593700
11
107.530000
21
11.594300
0
LINE
8
Layer 1
10
60.029600
20
4.929470
11
160.030000
21
4.929470
0
LINE
8
Layer 1
10
160.030000
20
4.929470
11
160.030000
21
9.927440
0
LINE
8
Layer 1
10
160.030000
20
9.927440
11
60.029600
21
9.927440
0
LINE
8
Layer 1
10
60.029600
20
9.927440
11
60.029600
21
4.929470
0
LINE
8
Layer 1
10
70.029800
20
4.929470
11
70.029800
21
9.927440
0
LINE
8
Layer 1
10
80.029700
20
4.929470
11
80.029700
21
9.927440
0
LINE
8
Layer 1
10
90.029700
20
4.929470
11
90.029700
21
9.927440
0
LINE
8
Layer 1
10
100.030000
20
4.929470
11
100.030000
21
9.927440
0
LINE
8
Layer 1
10
110.030000
20
4.929470
11
110.030000
21
9.927440
0
LINE
8
Layer 1
10
120.030000
20
4.929470
11
120.030000
21
9.927440
0
LINE
8
Layer 1
10
130.030000
20
4.929470
11
130.030000
21
9.927440
0
LINE
8
Layer 1
10
140.030000
20
4.929470
11
140.030000
21
9.927440
0
LINE
8
Layer 1
10
150.030000
20
4.929470
11
150.030000
21
9.927440
0
LINE
8
Layer 1
10
160.030000
20
4.929470
11
160.030000
21
9.927440
0
LINE
8
Layer 1
10
200.030000
20
286.928000
11
20.029800
21
286.928000
0
LINE
8
Layer 1
10
20.029800
20
286.928000
11
20.029800
21
9.927440
0
LINE
8
Layer 1
10
21.696500
20
150.928000
11
21.696500
21
145.928000
0
LINE
8
Layer 1
10
21.696500
20
145.928000
11
16.696500
21
148.428000
0
LINE
8
Layer 1
10
16.696500
20
148.428000
11
21.696500
21
150.928000
0
LINE
8
Layer 1
10
10.029800
20
148.428000
11
25.029800
21
148.428000
0
LINE
8
Layer 1
10
200.030000
20
9.927440
11
200.030000
21
286.928000
0
LINE
8
Layer 1
10
10.029800
20
-0.071147
11
0.029846
21
-0.071147
0
LINE
8
Layer 1
10
0.029846
20
-0.071147
11
0.029846
21
9.927440
0
LINE
8
Layer 1
10
200.030000
20
-0.071147
11
210.030000
21
-0.071147
0
LINE
8
Layer 1
10
210.030000
20
-0.071147
11
210.030000
21
9.927440
0
LINE
8
Layer 1
10
10.029800
20
296.928000
11
0.029846
21
296.928000
0
LINE
8
Layer 1
10
0.029846
20
296.928000
11
0.029846
21
286.928000
0
LINE
8
Layer 1
10
200.030000
20
296.928000
11
210.030000
21
296.928000
0
LINE
8
Layer 1
10
210.030000
20
296.928000
11
210.030000
21
286.928000
0
LINE
8
Layer 1
10
210.030000
20
148.428000
11
195.030000
21
148.428000
0
LINE
8
Layer 1
10
20.029800
20
29.927300
11
200.030000
21
29.927300
0
LINE
8
Layer 1
10
92.029600
20
37.928300
11
92.029600
21
29.927300
0
LINE
8
Layer 1
10
166.030000
20
29.927300
11
166.030000
21
21.928900
0
LINE
8
Layer 1
10
200.030000
20
81.928200
11
200.030000
21
9.927440
0
LINE
8
Layer 1
10
200.030000
20
47.928200
11
200.030000
21
9.927440
0
LINE
8
Layer 1
10
20.029800
20
9.927440
11
20.029800
21
81.928200
0
LINE
8
Layer 1
10
200.030000
20
9.927440
11
20.029800
21
9.927440
0
LINE
8
Layer 1
10
80.029700
20
9.927440
11
80.029700
21
29.927300
0
LINE
8
Layer 1
10
20.029800
20
21.928900
11
199.964000
21
21.928900
0
LINE
8
Layer 1
10
145.030000
20
37.928300
11
145.030000
21
29.927300
0
LINE
8
Layer 1
10
20.029800
20
47.928200
11
20.029800
21
9.927440
0
LINE
8
Layer 1
10
60.029600
20
21.928900
11
60.029600
21
9.927440
0
LINE
8
Layer 1
10
20.029800
20
37.928300
11
200.030000
21
37.928300
0
LINE
8
Layer 1
10
137.030000
20
21.928900
11
137.030000
21
9.927440
0
LINE
8
Layer 1
10
20.029800
20
9.927440
11
200.030000
21
9.927440
0
LINE
8
Layer 1
10
110.030000
20
29.927300
11
109.997000
21
21.928900
0
LINE
8
Layer 1
10
20.029800
20
29.927300
11
200.030000
21
29.927300
0
LINE
8
Layer 1
10
110.030000
20
296.928000
11
110.030000
21
281.928000
0
LINE
8
Layer 1
10
40.029800
20
29.927300
11
40.029800
21
9.927440
0
LINE
8
Layer 1
10
58.859100
20
29.927300
11
58.859100
21
9.927440
0
LINE
8
Layer 1
10
83.859100
20
29.927300
11
83.859100
21
9.927440
0
LINE
8
Layer 1
10
128.859000
20
29.927300
11
128.859000
21
9.927440
0
LINE
8
Layer 1
10
178.859000
20
29.927300
11
178.859000
21
9.927440
0
LINE
8
Layer 1
10
160.030000
20
9.927440
11
60.029600
21
9.927440
0
LINE
8
Layer 1
10
200.030000
20
286.928000
11
20.029800
21
286.928000
0
LINE
8
Layer 1
10
20.029800
20
286.928000
11
20.029800
21
9.927440
0
LINE
8
Layer 1
10
21.696500
20
150.928000
11
21.696500
21
145.928000
0
LINE
8
Layer 1
10
21.696500
20
145.928000
11
16.696500
21
148.428000
0
LINE
8
Layer 1
10
16.696500
20
148.428000
11
21.696500
21
150.928000
0
LINE
8
Layer 1
10
10.029800
20
148.428000
11
25.029800
21
148.428000
0
LINE
8
Layer 1
10
200.030000
20
9.927440
11
200.030000
21
286.928000
0
LINE
8
Layer 1
10
10.029800
20
-0.071147
11
0.029846
21
-0.071147
0
LINE
8
Layer 1
10
0.029846
20
-0.071147
11
0.029846
21
9.927440
0
LINE
8
Layer 1
10
200.030000
20
-0.071147
11
210.030000
21
-0.071147
0
LINE
8
Layer 1
10
210.030000
20
-0.071147
11
210.030000
21
9.927440
0
LINE
8
Layer 1
10
10.029800
20
296.928000
11
0.029846
21
296.928000
0
LINE
8
Layer 1
10
0.029846
20
296.928000
11
0.029846
21
286.928000
0
LINE
8
Layer 1
10
200.030000
20
296.928000
11
210.030000
21
296.928000
0
LINE
8
Layer 1
10
210.030000
20
296.928000
11
210.030000
21
286.928000
0
LINE
8
Layer 1
10
210.030000
20
148.428000
11
195.030000
21
148.428000
0
LINE
8
Layer 1
10
200.030000
20
81.928200
11
200.030000
21
9.927440
0
LINE
8
Layer 1
10
20.029800
20
9.927440
11
20.029800
21
81.928200
0
LINE
8
Layer 1
10
200.030000
20
9.927440
11
20.029800
21
9.927440
0
LINE
8
1_-_SILNA
10
10.583500
20
191.427000
11
10.583500
21
155.927000
0
LINE
8
1_-_SILNA
10
273.388000
20
257.643000
11
314.888000
21
257.643000
0
LINE
8
1_-_SILNA
10
231.888000
20
255.643000
11
231.888000
21
215.143000
0
LINE
8
1_-_SILNA
10
233.888000
20
172.643000
11
274.388000
21
172.643000
0
LINE
8
1_-_SILNA
10
316.888000
20
216.143000
11
316.888000
21
174.643000
0
LINE
8
1_-_SILNA
10
231.888000
20
215.143000
11
233.888000
21
215.143000
0
LINE
8
1_-_SILNA
10
10.583500
20
268.927000
11
48.083500
21
268.927000
0
LINE
8
1_-_SILNA
10
10.583500
20
268.927000
11
10.583500
21
231.427000
0
LINE
8
1_-_SILNA
10
233.888000
20
215.143000
11
233.888000
21
172.643000
0
LINE
8
1_-_SILNA
10
52.083400
20
153.927000
11
95.583500
21
153.927000
0
LINE
8
1_-_SILNA
10
274.388000
20
172.643000
11
274.388000
21
174.643000
0
LINE
8
1_-_SILNA
10
274.388000
20
174.643000
11
316.888000
21
174.643000
0
LINE
8
1_-_SILNA
10
95.583500
20
268.927000
11
95.583500
21
231.427000
0
LINE
8
1_-_SILNA
10
316.888000
20
216.143000
11
314.888000
21
216.143000
0
LINE
8
1_-_SILNA
10
168.083000
20
266.927000
11
178.083000
21
266.927000
0
LINE
8
1_-_SILNA
10
48.083500
20
268.927000
11
48.083500
21
266.927000
0
LINE
8
1_-_SILNA
10
314.888000
20
216.143000
11
314.888000
21
257.643000
0
LINE
8
1_-_SILNA
10
48.083500
20
266.927000
11
58.083400
21
266.927000
0
LINE
8
1_-_SILNA
10
273.388000
20
257.643000
11
273.388000
21
255.643000
0
LINE
8
1_-_SILNA
10
273.388000
20
255.643000
11
231.888000
21
255.643000
0
LINE
8
1_-_SILNA
10
58.083400
20
268.927000
11
58.083400
21
266.927000
0
LINE
8
1_-_SILNA
10
10.583500
20
155.927000
11
52.083400
21
155.927000
0
LINE
8
1_-_SILNA
10
178.083000
20
268.927000
11
215.583000
21
268.927000
0
LINE
8
1_-_SILNA
10
178.083000
20
268.927000
11
178.083000
21
266.927000
0
LINE
8
1_-_SILNA
10
52.083400
20
155.927000
11
52.083400
21
153.927000
0
LINE
8
1_-_SILNA
10
10.583500
20
231.427000
11
8.583500
21
231.427000
0
LINE
8
1_-_SILNA
10
95.583500
20
191.427000
11
95.583500
21
153.927000
0
LINE
8
1_-_SILNA
10
10.583500
20
191.427000
11
8.583500
21
191.427000
0
LINE
8
1_-_SILNA
10
8.583500
20
231.427000
11
8.583500
21
191.427000
0
LINE
8
1_-_SILNA
10
95.583500
20
231.427000
11
93.730600
21
231.427000
0
LINE
8
1_-_SILNA
10
58.083400
20
268.927000
11
95.583500
21
268.927000
0
LINE
8
1_-_SILNA
10
95.583500
20
191.427000
11
93.730600
21
191.427000
0
LINE
8
1_-_SILNA
10
93.730600
20
231.427000
11
93.730600
21
191.427000
0
LINE
8
1_-_SILNA
10
168.083000
20
268.927000
11
168.083000
21
266.927000
0
LINE
8
1_-_SILNA
10
130.583000
20
268.927000
11
168.083000
21
268.927000
0
LINE
8
1_-_SILNA
10
130.583000
20
268.927000
11
130.583000
21
231.427000
0
LINE
8
1_-_SILNA
10
130.583000
20
231.427000
11
128.583000
21
231.427000
0
LINE
8
1_-_SILNA
10
128.583000
20
231.427000
11
128.583000
21
191.427000
0
LINE
8
1_-_SILNA
10
130.583000
20
191.427000
11
128.583000
21
191.427000
0
LINE
8
1_-_SILNA
10
130.583000
20
191.427000
11
130.583000
21
155.927000
0
LINE
8
1_-_SILNA
10
130.583000
20
155.927000
11
172.083000
21
155.927000
0
LINE
8
1_-_SILNA
10
172.083000
20
155.927000
11
172.083000
21
153.927000
0
LINE
8
1_-_SILNA
10
172.083000
20
153.927000
11
215.583000
21
153.927000
0
LINE
8
1_-_SILNA
10
215.583000
20
191.427000
11
215.583000
21
153.927000
0
LINE
8
1_-_SILNA
10
215.583000
20
191.427000
11
213.730000
21
191.427000
0
LINE
8
1_-_SILNA
10
213.730000
20
231.427000
11
213.730000
21
191.427000
0
LINE
8
1_-_SILNA
10
215.583000
20
231.427000
11
213.730000
21
231.427000
0
LINE
8
1_-_SILNA
10
215.583000
20
268.927000
11
215.583000
21
231.427000
0
LINE
8
1_-_SILNA
10
168.083000
20
136.927000
11
178.083000
21
136.927000
0
LINE
8
1_-_SILNA
10
178.083000
20
138.927000
11
215.583000
21
138.927000
0
LINE
8
1_-_SILNA
10
178.083000
20
138.927000
11
178.083000
21
136.927000
0
LINE
8
1_-_SILNA
10
168.083000
20
138.927000
11
168.083000
21
136.927000
0
LINE
8
1_-_SILNA
10
130.583000
20
138.927000
11
168.083000
21
138.927000
0
LINE
8
1_-_SILNA
10
130.583000
20
138.927000
11
130.583000
21
101.427000
0
LINE
8
1_-_SILNA
10
130.583000
20
101.427000
11
128.583000
21
101.427000
0
LINE
8
1_-_SILNA
10
128.583000
20
101.427000
11
128.583000
21
61.427200
0
LINE
8
1_-_SILNA
10
130.583000
20
61.427200
11
128.583000
21
61.427200
0
LINE
8
1_-_SILNA
10
130.583000
20
61.427200
11
130.583000
21
25.926800
0
LINE
8
1_-_SILNA
10
130.583000
20
25.926800
11
172.083000
21
25.926800
0
LINE
8
1_-_SILNA
10
172.083000
20
25.926800
11
172.083000
21
23.926500
0
LINE
8
1_-_SILNA
10
172.083000
20
23.926500
11
215.583000
21
23.926500
0
LINE
8
1_-_SILNA
10
215.583000
20
61.427200
11
215.583000
21
23.926500
0
LINE
8
1_-_SILNA
10
215.583000
20
61.427200
11
213.730000
21
61.427200
0
LINE
8
1_-_SILNA
10
213.730000
20
101.427000
11
213.730000
21
61.427200
0
LINE
8
1_-_SILNA
10
215.583000
20
101.427000
11
213.730000
21
101.427000
0
LINE
8
1_-_SILNA
10
215.583000
20
138.927000
11
215.583000
21
101.427000
0
LINE
8
1_-_SILNA
10
48.083500
20
136.927000
11
58.083400
21
136.927000
0
LINE
8
1_-_SILNA
10
58.083400
20
138.927000
11
95.583500
21
138.927000
0
LINE
8
1_-_SILNA
10
58.083400
20
138.927000
11
58.083400
21
136.927000
0
LINE
8
1_-_SILNA
10
48.083500
20
138.927000
11
48.083500
21
136.927000
0
LINE
8
1_-_SILNA
10
10.583500
20
138.927000
11
48.083500
21
138.927000
0
LINE
8
1_-_SILNA
10
10.583500
20
138.927000
11
10.583500
21
101.427000
0
LINE
8
1_-_SILNA
10
10.583500
20
101.427000
11
8.583500
21
101.427000
0
LINE
8
1_-_SILNA
10
8.583500
20
101.427000
11
8.583500
21
61.427200
0
LINE
8
1_-_SILNA
10
10.583500
20
61.427200
11
8.583500
21
61.427200
0
LINE
8
1_-_SILNA
10
10.583500
20
61.427200
11
10.583500
21
25.926800
0
LINE
8
1_-_SILNA
10
10.583500
20
25.926800
11
52.083400
21
25.926800
0
LINE
8
1_-_SILNA
10
52.083400
20
25.926800
11
52.083400
21
23.926500
0
LINE
8
1_-_SILNA
10
52.083400
20
23.926500
11
95.583500
21
23.926500
0
LINE
8
1_-_SILNA
10
95.583500
20
61.427200
11
95.583500
21
23.926500
0
LINE
8
1_-_SILNA
10
95.583500
20
61.427200
11
93.730600
21
61.427200
0
LINE
8
1_-_SILNA
10
93.730600
20
101.427000
11
93.730600
21
61.427200
0
LINE
8
1_-_SILNA
10
95.583500
20
101.427000
11
93.730600
21
101.427000
0
LINE
8
1_-_SILNA
10
95.583500
20
138.927000
11
95.583500
21
101.427000
0
LINE
8
1_-_SILNA
10
272.679000
20
110.442000
11
272.679000
21
72.942100
0
LINE
8
1_-_SILNA
10
272.679000
20
157.942000
11
282.680000
21
157.942000
0
LINE
8
1_-_SILNA
10
272.679000
20
157.942000
11
272.679000
21
120.442000
0
LINE
8
1_-_SILNA
10
272.679000
20
72.942100
11
282.680000
21
72.942100
0
LINE
8
1_-_SILNA
10
282.680000
20
157.942000
11
282.680000
21
120.442000
0
LINE
8
1_-_SILNA
10
235.181000
20
120.442000
11
272.679000
21
120.442000
0
LINE
8
1_-_SILNA
10
235.181000
20
120.442000
11
235.181000
21
110.442000
0
LINE
8
1_-_SILNA
10
235.181000
20
110.442000
11
272.679000
21
110.442000
0
LINE
8
1_-_SILNA
10
320.180000
20
120.442000
11
320.180000
21
110.442000
0
LINE
8
1_-_SILNA
10
282.680000
20
110.442000
11
282.680000
21
72.942100
0
LINE
8
1_-_SILNA
10
282.680000
20
120.442000
11
320.180000
21
120.442000
0
LINE
8
1_-_SILNA
10
282.680000
20
110.442000
11
320.180000
21
110.442000
 0 
ENDSEC
 0 
EOF